<?xml version="1.0" standalone="no"?>
 <!DOCTYPE svg PUBLIC "-//W3C//DTD SVG 1.1//EN" 
 "http://www.w3.org/Graphics/SVG/1.1/DTD/svg11.dtd"> 
<svg
  xmlns:svg="http://www.w3.org/2000/svg"
  xmlns="http://www.w3.org/2000/svg"
  xmlns:xlink="http://www.w3.org/1999/xlink"
  version="1.1"
  width="29.700220cm" height="21.000720cm" viewBox="0 0 297002200 210007200">
<title>SVG Picture created as temp_pt_combinare-F_Paste.svg date 2022/05/06 11:49:03 </title>
  <desc>Picture generated by PCBNEW </desc>
<g style="fill:#000000; fill-opacity:1.000000;stroke:#000000; stroke-opacity:1.000000;
stroke-linecap:round; stroke-linejoin:round;"
 transform="translate(0 0) scale(1 1)">
</g>
<g style="fill:#000000; fill-opacity:0.0; 
stroke:#000000; stroke-width:0.000000; stroke-opacity:1; 
stroke-linecap:round; stroke-linejoin:round;">
</g>
<g style="fill:#000000; fill-opacity:0.0; 
stroke:#000000; stroke-width:150000.000000; stroke-opacity:1; 
stroke-linecap:round; stroke-linejoin:round;">
<path d="M58500000 170840400
L120000000 170840400
" />
<path d="M120000000 170840400
L120000000 96367600
" />
<path d="M120000000 96367600
L58500000 96367600
" />
<path d="M58500000 96367600
L58500000 170840400
" />
<g >
</g>
<g style="fill:#000000; fill-opacity:0.0; 
stroke:#000000; stroke-width:1.000000; stroke-opacity:1; 
stroke-linecap:round; stroke-linejoin:round;">
</g>
<g style="fill:#000000; fill-opacity:1.0; 
stroke:#000000; stroke-width:1.000000; stroke-opacity:1; 
stroke-linecap:round; stroke-linejoin:round;">
<path style="fill:#000000; fill-opacity:1.0; 
stroke:#000000; stroke-width:1.000000; stroke-opacity:1; 
stroke-linecap:round; stroke-linejoin:round;fill-rule:evenodd;"
d="M 109630001.000000,123834999.000000
109630001.000000,123185001.000000
111189999.000000,123185001.000000
111189999.000000,123834999.000000
Z" /> 
<path style="fill:#000000; fill-opacity:1.0; 
stroke:#000000; stroke-width:1.000000; stroke-opacity:1; 
stroke-linecap:round; stroke-linejoin:round;fill-rule:evenodd;"
d="M 109630001.000000,124784999.000000
109630001.000000,124135001.000000
111189999.000000,124135001.000000
111189999.000000,124784999.000000
Z" /> 
<path style="fill:#000000; fill-opacity:1.0; 
stroke:#000000; stroke-width:1.000000; stroke-opacity:1; 
stroke-linecap:round; stroke-linejoin:round;fill-rule:evenodd;"
d="M 109630001.000000,125734999.000000
109630001.000000,125085001.000000
111189999.000000,125085001.000000
111189999.000000,125734999.000000
Z" /> 
<path style="fill:#000000; fill-opacity:1.0; 
stroke:#000000; stroke-width:1.000000; stroke-opacity:1; 
stroke-linecap:round; stroke-linejoin:round;fill-rule:evenodd;"
d="M 112330001.000000,125734999.000000
112330001.000000,125085001.000000
113889999.000000,125085001.000000
113889999.000000,125734999.000000
Z" /> 
<path style="fill:#000000; fill-opacity:1.0; 
stroke:#000000; stroke-width:1.000000; stroke-opacity:1; 
stroke-linecap:round; stroke-linejoin:round;fill-rule:evenodd;"
d="M 112330001.000000,124784999.000000
112330001.000000,124135001.000000
113889999.000000,124135001.000000
113889999.000000,124784999.000000
Z" /> 
<path style="fill:#000000; fill-opacity:1.0; 
stroke:#000000; stroke-width:1.000000; stroke-opacity:1; 
stroke-linecap:round; stroke-linejoin:round;fill-rule:evenodd;"
d="M 112330001.000000,123834999.000000
112330001.000000,123185001.000000
113889999.000000,123185001.000000
113889999.000000,123834999.000000
Z" /> 
</g>
<g >
</g>
<g >
</g>
<g >
</g>
<g style="fill:#000000; fill-opacity:1.0; 
stroke:#000000; stroke-width:1.000000; stroke-opacity:1; 
stroke-linecap:round; stroke-linejoin:round;">
<path style="fill:#000000; fill-opacity:1.0; 
stroke:#000000; stroke-width:1.000000; stroke-opacity:1; 
stroke-linecap:round; stroke-linejoin:round;fill-rule:evenodd;"
d="M 67998800.000000,113775500.000000
67980721.000000,113866387.000000
67929238.000000,113943438.000000
67852187.000000,113994921.000000
67761300.000000,114013000.000000
67161300.000000,114013000.000000
67070413.000000,113994921.000000
66993362.000000,113943438.000000
66941879.000000,113866387.000000
66923800.000000,113775500.000000
66923800.000000,113300500.000000
66941879.000000,113209613.000000
66993362.000000,113132562.000000
67070413.000000,113081079.000000
67161300.000000,113063000.000000
67761300.000000,113063000.000000
67852187.000000,113081079.000000
67929238.000000,113132562.000000
67980721.000000,113209613.000000
67998800.000000,113300500.000000
Z" /> 
<path style="fill:#000000; fill-opacity:1.0; 
stroke:#000000; stroke-width:1.000000; stroke-opacity:1; 
stroke-linecap:round; stroke-linejoin:round;fill-rule:evenodd;"
d="M 66273800.000000,113775500.000000
66255721.000000,113866387.000000
66204238.000000,113943438.000000
66127187.000000,113994921.000000
66036300.000000,114013000.000000
65436300.000000,114013000.000000
65345413.000000,113994921.000000
65268362.000000,113943438.000000
65216879.000000,113866387.000000
65198800.000000,113775500.000000
65198800.000000,113300500.000000
65216879.000000,113209613.000000
65268362.000000,113132562.000000
65345413.000000,113081079.000000
65436300.000000,113063000.000000
66036300.000000,113063000.000000
66127187.000000,113081079.000000
66204238.000000,113132562.000000
66255721.000000,113209613.000000
66273800.000000,113300500.000000
Z" /> 
</g>
<g >
</g>
<g >
</g>
<g style="fill:#000000; fill-opacity:1.0; 
stroke:#000000; stroke-width:1.000000; stroke-opacity:1; 
stroke-linecap:round; stroke-linejoin:round;">
<path style="fill:#000000; fill-opacity:1.0; 
stroke:#000000; stroke-width:1.000000; stroke-opacity:1; 
stroke-linecap:round; stroke-linejoin:round;fill-rule:evenodd;"
d="M 75599300.000000,107566000.000000
75690187.000000,107584079.000000
75767238.000000,107635562.000000
75818721.000000,107712613.000000
75836800.000000,107803500.000000
75836800.000000,108403500.000000
75818721.000000,108494387.000000
75767238.000000,108571438.000000
75690187.000000,108622921.000000
75599300.000000,108641000.000000
75124300.000000,108641000.000000
75033413.000000,108622921.000000
74956362.000000,108571438.000000
74904879.000000,108494387.000000
74886800.000000,108403500.000000
74886800.000000,107803500.000000
74904879.000000,107712613.000000
74956362.000000,107635562.000000
75033413.000000,107584079.000000
75124300.000000,107566000.000000
Z" /> 
<path style="fill:#000000; fill-opacity:1.0; 
stroke:#000000; stroke-width:1.000000; stroke-opacity:1; 
stroke-linecap:round; stroke-linejoin:round;fill-rule:evenodd;"
d="M 75599300.000000,109291000.000000
75690187.000000,109309079.000000
75767238.000000,109360562.000000
75818721.000000,109437613.000000
75836800.000000,109528500.000000
75836800.000000,110128500.000000
75818721.000000,110219387.000000
75767238.000000,110296438.000000
75690187.000000,110347921.000000
75599300.000000,110366000.000000
75124300.000000,110366000.000000
75033413.000000,110347921.000000
74956362.000000,110296438.000000
74904879.000000,110219387.000000
74886800.000000,110128500.000000
74886800.000000,109528500.000000
74904879.000000,109437613.000000
74956362.000000,109360562.000000
75033413.000000,109309079.000000
75124300.000000,109291000.000000
Z" /> 
</g>
<g >
</g>
<g >
</g>
<g style="fill:#000000; fill-opacity:1.0; 
stroke:#000000; stroke-width:1.000000; stroke-opacity:1; 
stroke-linecap:round; stroke-linejoin:round;">
<path style="fill:#000000; fill-opacity:1.0; 
stroke:#000000; stroke-width:1.000000; stroke-opacity:1; 
stroke-linecap:round; stroke-linejoin:round;fill-rule:evenodd;"
d="M 77224900.000000,107566000.000000
77315787.000000,107584079.000000
77392838.000000,107635562.000000
77444321.000000,107712613.000000
77462400.000000,107803500.000000
77462400.000000,108403500.000000
77444321.000000,108494387.000000
77392838.000000,108571438.000000
77315787.000000,108622921.000000
77224900.000000,108641000.000000
76749900.000000,108641000.000000
76659013.000000,108622921.000000
76581962.000000,108571438.000000
76530479.000000,108494387.000000
76512400.000000,108403500.000000
76512400.000000,107803500.000000
76530479.000000,107712613.000000
76581962.000000,107635562.000000
76659013.000000,107584079.000000
76749900.000000,107566000.000000
Z" /> 
<path style="fill:#000000; fill-opacity:1.0; 
stroke:#000000; stroke-width:1.000000; stroke-opacity:1; 
stroke-linecap:round; stroke-linejoin:round;fill-rule:evenodd;"
d="M 77224900.000000,109291000.000000
77315787.000000,109309079.000000
77392838.000000,109360562.000000
77444321.000000,109437613.000000
77462400.000000,109528500.000000
77462400.000000,110128500.000000
77444321.000000,110219387.000000
77392838.000000,110296438.000000
77315787.000000,110347921.000000
77224900.000000,110366000.000000
76749900.000000,110366000.000000
76659013.000000,110347921.000000
76581962.000000,110296438.000000
76530479.000000,110219387.000000
76512400.000000,110128500.000000
76512400.000000,109528500.000000
76530479.000000,109437613.000000
76581962.000000,109360562.000000
76659013.000000,109309079.000000
76749900.000000,109291000.000000
Z" /> 
</g>
<g >
</g>
<g >
</g>
<g >
</g>
<g style="fill:#000000; fill-opacity:1.0; 
stroke:#000000; stroke-width:1.000000; stroke-opacity:1; 
stroke-linecap:round; stroke-linejoin:round;">
<path style="fill:#000000; fill-opacity:1.0; 
stroke:#000000; stroke-width:1.000000; stroke-opacity:1; 
stroke-linecap:round; stroke-linejoin:round;fill-rule:evenodd;"
d="M 77028201.000000,102695801.000000
77678199.000000,102695801.000000
77678199.000000,104255799.000000
77028201.000000,104255799.000000
Z" /> 
<path style="fill:#000000; fill-opacity:1.0; 
stroke:#000000; stroke-width:1.000000; stroke-opacity:1; 
stroke-linecap:round; stroke-linejoin:round;fill-rule:evenodd;"
d="M 76078201.000000,102695801.000000
76728199.000000,102695801.000000
76728199.000000,104255799.000000
76078201.000000,104255799.000000
Z" /> 
<path style="fill:#000000; fill-opacity:1.0; 
stroke:#000000; stroke-width:1.000000; stroke-opacity:1; 
stroke-linecap:round; stroke-linejoin:round;fill-rule:evenodd;"
d="M 75128201.000000,102695801.000000
75778199.000000,102695801.000000
75778199.000000,104255799.000000
75128201.000000,104255799.000000
Z" /> 
<path style="fill:#000000; fill-opacity:1.0; 
stroke:#000000; stroke-width:1.000000; stroke-opacity:1; 
stroke-linecap:round; stroke-linejoin:round;fill-rule:evenodd;"
d="M 75128201.000000,105395801.000000
75778199.000000,105395801.000000
75778199.000000,106955799.000000
75128201.000000,106955799.000000
Z" /> 
<path style="fill:#000000; fill-opacity:1.0; 
stroke:#000000; stroke-width:1.000000; stroke-opacity:1; 
stroke-linecap:round; stroke-linejoin:round;fill-rule:evenodd;"
d="M 77028201.000000,105395801.000000
77678199.000000,105395801.000000
77678199.000000,106955799.000000
77028201.000000,106955799.000000
Z" /> 
</g>
<g >
</g>
<g >
</g>
<g >
</g>
<g >
</g>
<g >
</g>
<g style="fill:#000000; fill-opacity:1.0; 
stroke:#000000; stroke-width:1.000000; stroke-opacity:1; 
stroke-linecap:round; stroke-linejoin:round;">
<path style="fill:#000000; fill-opacity:1.0; 
stroke:#000000; stroke-width:1.000000; stroke-opacity:1; 
stroke-linecap:round; stroke-linejoin:round;fill-rule:evenodd;"
d="M 81620099.000000,144623399.000000
80145101.000000,144623399.000000
80145101.000000,144173401.000000
81620099.000000,144173401.000000
Z" /> 
<path style="fill:#000000; fill-opacity:1.0; 
stroke:#000000; stroke-width:1.000000; stroke-opacity:1; 
stroke-linecap:round; stroke-linejoin:round;fill-rule:evenodd;"
d="M 81620099.000000,145273399.000000
80145101.000000,145273399.000000
80145101.000000,144823401.000000
81620099.000000,144823401.000000
Z" /> 
<path style="fill:#000000; fill-opacity:1.0; 
stroke:#000000; stroke-width:1.000000; stroke-opacity:1; 
stroke-linecap:round; stroke-linejoin:round;fill-rule:evenodd;"
d="M 81620099.000000,145923399.000000
80145101.000000,145923399.000000
80145101.000000,145473401.000000
81620099.000000,145473401.000000
Z" /> 
<path style="fill:#000000; fill-opacity:1.0; 
stroke:#000000; stroke-width:1.000000; stroke-opacity:1; 
stroke-linecap:round; stroke-linejoin:round;fill-rule:evenodd;"
d="M 81620099.000000,146573399.000000
80145101.000000,146573399.000000
80145101.000000,146123401.000000
81620099.000000,146123401.000000
Z" /> 
<path style="fill:#000000; fill-opacity:1.0; 
stroke:#000000; stroke-width:1.000000; stroke-opacity:1; 
stroke-linecap:round; stroke-linejoin:round;fill-rule:evenodd;"
d="M 81620099.000000,147223399.000000
80145101.000000,147223399.000000
80145101.000000,146773401.000000
81620099.000000,146773401.000000
Z" /> 
<path style="fill:#000000; fill-opacity:1.0; 
stroke:#000000; stroke-width:1.000000; stroke-opacity:1; 
stroke-linecap:round; stroke-linejoin:round;fill-rule:evenodd;"
d="M 81620099.000000,147873399.000000
80145101.000000,147873399.000000
80145101.000000,147423401.000000
81620099.000000,147423401.000000
Z" /> 
<path style="fill:#000000; fill-opacity:1.0; 
stroke:#000000; stroke-width:1.000000; stroke-opacity:1; 
stroke-linecap:round; stroke-linejoin:round;fill-rule:evenodd;"
d="M 81620099.000000,148523399.000000
80145101.000000,148523399.000000
80145101.000000,148073401.000000
81620099.000000,148073401.000000
Z" /> 
<path style="fill:#000000; fill-opacity:1.0; 
stroke:#000000; stroke-width:1.000000; stroke-opacity:1; 
stroke-linecap:round; stroke-linejoin:round;fill-rule:evenodd;"
d="M 81620099.000000,149173399.000000
80145101.000000,149173399.000000
80145101.000000,148723401.000000
81620099.000000,148723401.000000
Z" /> 
<path style="fill:#000000; fill-opacity:1.0; 
stroke:#000000; stroke-width:1.000000; stroke-opacity:1; 
stroke-linecap:round; stroke-linejoin:round;fill-rule:evenodd;"
d="M 81620099.000000,149823399.000000
80145101.000000,149823399.000000
80145101.000000,149373401.000000
81620099.000000,149373401.000000
Z" /> 
<path style="fill:#000000; fill-opacity:1.0; 
stroke:#000000; stroke-width:1.000000; stroke-opacity:1; 
stroke-linecap:round; stroke-linejoin:round;fill-rule:evenodd;"
d="M 81620099.000000,150473399.000000
80145101.000000,150473399.000000
80145101.000000,150023401.000000
81620099.000000,150023401.000000
Z" /> 
<path style="fill:#000000; fill-opacity:1.0; 
stroke:#000000; stroke-width:1.000000; stroke-opacity:1; 
stroke-linecap:round; stroke-linejoin:round;fill-rule:evenodd;"
d="M 81620099.000000,151123399.000000
80145101.000000,151123399.000000
80145101.000000,150673401.000000
81620099.000000,150673401.000000
Z" /> 
<path style="fill:#000000; fill-opacity:1.0; 
stroke:#000000; stroke-width:1.000000; stroke-opacity:1; 
stroke-linecap:round; stroke-linejoin:round;fill-rule:evenodd;"
d="M 81620099.000000,151773399.000000
80145101.000000,151773399.000000
80145101.000000,151323401.000000
81620099.000000,151323401.000000
Z" /> 
<path style="fill:#000000; fill-opacity:1.0; 
stroke:#000000; stroke-width:1.000000; stroke-opacity:1; 
stroke-linecap:round; stroke-linejoin:round;fill-rule:evenodd;"
d="M 81620099.000000,152423399.000000
80145101.000000,152423399.000000
80145101.000000,151973401.000000
81620099.000000,151973401.000000
Z" /> 
<path style="fill:#000000; fill-opacity:1.0; 
stroke:#000000; stroke-width:1.000000; stroke-opacity:1; 
stroke-linecap:round; stroke-linejoin:round;fill-rule:evenodd;"
d="M 81620099.000000,153073399.000000
80145101.000000,153073399.000000
80145101.000000,152623401.000000
81620099.000000,152623401.000000
Z" /> 
<path style="fill:#000000; fill-opacity:1.0; 
stroke:#000000; stroke-width:1.000000; stroke-opacity:1; 
stroke-linecap:round; stroke-linejoin:round;fill-rule:evenodd;"
d="M 87496099.000000,153073399.000000
86021101.000000,153073399.000000
86021101.000000,152623401.000000
87496099.000000,152623401.000000
Z" /> 
<path style="fill:#000000; fill-opacity:1.0; 
stroke:#000000; stroke-width:1.000000; stroke-opacity:1; 
stroke-linecap:round; stroke-linejoin:round;fill-rule:evenodd;"
d="M 87496099.000000,152423399.000000
86021101.000000,152423399.000000
86021101.000000,151973401.000000
87496099.000000,151973401.000000
Z" /> 
<path style="fill:#000000; fill-opacity:1.0; 
stroke:#000000; stroke-width:1.000000; stroke-opacity:1; 
stroke-linecap:round; stroke-linejoin:round;fill-rule:evenodd;"
d="M 87496099.000000,151773399.000000
86021101.000000,151773399.000000
86021101.000000,151323401.000000
87496099.000000,151323401.000000
Z" /> 
<path style="fill:#000000; fill-opacity:1.0; 
stroke:#000000; stroke-width:1.000000; stroke-opacity:1; 
stroke-linecap:round; stroke-linejoin:round;fill-rule:evenodd;"
d="M 87496099.000000,151123399.000000
86021101.000000,151123399.000000
86021101.000000,150673401.000000
87496099.000000,150673401.000000
Z" /> 
<path style="fill:#000000; fill-opacity:1.0; 
stroke:#000000; stroke-width:1.000000; stroke-opacity:1; 
stroke-linecap:round; stroke-linejoin:round;fill-rule:evenodd;"
d="M 87496099.000000,150473399.000000
86021101.000000,150473399.000000
86021101.000000,150023401.000000
87496099.000000,150023401.000000
Z" /> 
<path style="fill:#000000; fill-opacity:1.0; 
stroke:#000000; stroke-width:1.000000; stroke-opacity:1; 
stroke-linecap:round; stroke-linejoin:round;fill-rule:evenodd;"
d="M 87496099.000000,149823399.000000
86021101.000000,149823399.000000
86021101.000000,149373401.000000
87496099.000000,149373401.000000
Z" /> 
<path style="fill:#000000; fill-opacity:1.0; 
stroke:#000000; stroke-width:1.000000; stroke-opacity:1; 
stroke-linecap:round; stroke-linejoin:round;fill-rule:evenodd;"
d="M 87496099.000000,149173399.000000
86021101.000000,149173399.000000
86021101.000000,148723401.000000
87496099.000000,148723401.000000
Z" /> 
<path style="fill:#000000; fill-opacity:1.0; 
stroke:#000000; stroke-width:1.000000; stroke-opacity:1; 
stroke-linecap:round; stroke-linejoin:round;fill-rule:evenodd;"
d="M 87496099.000000,148523399.000000
86021101.000000,148523399.000000
86021101.000000,148073401.000000
87496099.000000,148073401.000000
Z" /> 
<path style="fill:#000000; fill-opacity:1.0; 
stroke:#000000; stroke-width:1.000000; stroke-opacity:1; 
stroke-linecap:round; stroke-linejoin:round;fill-rule:evenodd;"
d="M 87496099.000000,147873399.000000
86021101.000000,147873399.000000
86021101.000000,147423401.000000
87496099.000000,147423401.000000
Z" /> 
<path style="fill:#000000; fill-opacity:1.0; 
stroke:#000000; stroke-width:1.000000; stroke-opacity:1; 
stroke-linecap:round; stroke-linejoin:round;fill-rule:evenodd;"
d="M 87496099.000000,147223399.000000
86021101.000000,147223399.000000
86021101.000000,146773401.000000
87496099.000000,146773401.000000
Z" /> 
<path style="fill:#000000; fill-opacity:1.0; 
stroke:#000000; stroke-width:1.000000; stroke-opacity:1; 
stroke-linecap:round; stroke-linejoin:round;fill-rule:evenodd;"
d="M 87496099.000000,146573399.000000
86021101.000000,146573399.000000
86021101.000000,146123401.000000
87496099.000000,146123401.000000
Z" /> 
<path style="fill:#000000; fill-opacity:1.0; 
stroke:#000000; stroke-width:1.000000; stroke-opacity:1; 
stroke-linecap:round; stroke-linejoin:round;fill-rule:evenodd;"
d="M 87496099.000000,145923399.000000
86021101.000000,145923399.000000
86021101.000000,145473401.000000
87496099.000000,145473401.000000
Z" /> 
<path style="fill:#000000; fill-opacity:1.0; 
stroke:#000000; stroke-width:1.000000; stroke-opacity:1; 
stroke-linecap:round; stroke-linejoin:round;fill-rule:evenodd;"
d="M 87496099.000000,145273399.000000
86021101.000000,145273399.000000
86021101.000000,144823401.000000
87496099.000000,144823401.000000
Z" /> 
<path style="fill:#000000; fill-opacity:1.0; 
stroke:#000000; stroke-width:1.000000; stroke-opacity:1; 
stroke-linecap:round; stroke-linejoin:round;fill-rule:evenodd;"
d="M 87496099.000000,144623399.000000
86021101.000000,144623399.000000
86021101.000000,144173401.000000
87496099.000000,144173401.000000
Z" /> 
</g>
<g >
</g>
<g style="fill:#000000; fill-opacity:1.0; 
stroke:#000000; stroke-width:1.000000; stroke-opacity:1; 
stroke-linecap:round; stroke-linejoin:round;">
<path style="fill:#000000; fill-opacity:1.0; 
stroke:#000000; stroke-width:1.000000; stroke-opacity:1; 
stroke-linecap:round; stroke-linejoin:round;fill-rule:evenodd;"
d="M 69543799.000000,125766201.000000
69543799.000000,126766199.000000
68843801.000000,126766199.000000
68843801.000000,125766201.000000
Z" /> 
<path style="fill:#000000; fill-opacity:1.0; 
stroke:#000000; stroke-width:1.000000; stroke-opacity:1; 
stroke-linecap:round; stroke-linejoin:round;fill-rule:evenodd;"
d="M 69543799.000000,119766201.000000
69543799.000000,120766199.000000
68843801.000000,120766199.000000
68843801.000000,119766201.000000
Z" /> 
<path style="fill:#000000; fill-opacity:1.0; 
stroke:#000000; stroke-width:1.000000; stroke-opacity:1; 
stroke-linecap:round; stroke-linejoin:round;fill-rule:evenodd;"
d="M 73243799.000000,125766201.000000
73243799.000000,126766199.000000
72543801.000000,126766199.000000
72543801.000000,125766201.000000
Z" /> 
<path style="fill:#000000; fill-opacity:1.0; 
stroke:#000000; stroke-width:1.000000; stroke-opacity:1; 
stroke-linecap:round; stroke-linejoin:round;fill-rule:evenodd;"
d="M 73243799.000000,119766201.000000
73243799.000000,120766199.000000
72543801.000000,120766199.000000
72543801.000000,119766201.000000
Z" /> 
</g>
<g >
</g>
<g >
</g>
<g style="fill:#000000; fill-opacity:1.0; 
stroke:#000000; stroke-width:1.000000; stroke-opacity:1; 
stroke-linecap:round; stroke-linejoin:round;">
<path style="fill:#000000; fill-opacity:1.0; 
stroke:#000000; stroke-width:1.000000; stroke-opacity:1; 
stroke-linecap:round; stroke-linejoin:round;fill-rule:evenodd;"
d="M 67966199.000000,105517601.000000
67966199.000000,107767599.000000
67466201.000000,107767599.000000
67466201.000000,105517601.000000
Z" /> 
<path style="fill:#000000; fill-opacity:1.0; 
stroke:#000000; stroke-width:1.000000; stroke-opacity:1; 
stroke-linecap:round; stroke-linejoin:round;fill-rule:evenodd;"
d="M 67166199.000000,105517601.000000
67166199.000000,107767599.000000
66666201.000000,107767599.000000
66666201.000000,105517601.000000
Z" /> 
<path style="fill:#000000; fill-opacity:1.0; 
stroke:#000000; stroke-width:1.000000; stroke-opacity:1; 
stroke-linecap:round; stroke-linejoin:round;fill-rule:evenodd;"
d="M 66366199.000000,105517601.000000
66366199.000000,107767599.000000
65866201.000000,107767599.000000
65866201.000000,105517601.000000
Z" /> 
<path style="fill:#000000; fill-opacity:1.0; 
stroke:#000000; stroke-width:1.000000; stroke-opacity:1; 
stroke-linecap:round; stroke-linejoin:round;fill-rule:evenodd;"
d="M 65566199.000000,105517601.000000
65566199.000000,107767599.000000
65066201.000000,107767599.000000
65066201.000000,105517601.000000
Z" /> 
<path style="fill:#000000; fill-opacity:1.0; 
stroke:#000000; stroke-width:1.000000; stroke-opacity:1; 
stroke-linecap:round; stroke-linejoin:round;fill-rule:evenodd;"
d="M 64766199.000000,105517601.000000
64766199.000000,107767599.000000
64266201.000000,107767599.000000
64266201.000000,105517601.000000
Z" /> 
<path style="fill:#000000; fill-opacity:1.0; 
stroke:#000000; stroke-width:1.000000; stroke-opacity:1; 
stroke-linecap:round; stroke-linejoin:round;fill-rule:evenodd;"
d="M 71566199.000000,105367601.000000
71566199.000000,107667599.000000
69566201.000000,107667599.000000
69566201.000000,105367601.000000
Z" /> 
<path style="fill:#000000; fill-opacity:1.0; 
stroke:#000000; stroke-width:1.000000; stroke-opacity:1; 
stroke-linecap:round; stroke-linejoin:round;fill-rule:evenodd;"
d="M 62666199.000000,105267601.000000
62666199.000000,107767599.000000
60666201.000000,107767599.000000
60666201.000000,105267601.000000
Z" /> 
<path style="fill:#000000; fill-opacity:1.0; 
stroke:#000000; stroke-width:1.000000; stroke-opacity:1; 
stroke-linecap:round; stroke-linejoin:round;fill-rule:evenodd;"
d="M 71566199.000000,99817601.000000
71566199.000000,102317599.000000
69566201.000000,102317599.000000
69566201.000000,99817601.000000
Z" /> 
<path style="fill:#000000; fill-opacity:1.0; 
stroke:#000000; stroke-width:1.000000; stroke-opacity:1; 
stroke-linecap:round; stroke-linejoin:round;fill-rule:evenodd;"
d="M 62666199.000000,99817601.000000
62666199.000000,102317599.000000
60666201.000000,102317599.000000
60666201.000000,99817601.000000
Z" /> 
</g>
<g >
</g>
<g >
</g>
<g >
</g>
<g style="fill:#000000; fill-opacity:1.0; 
stroke:#000000; stroke-width:1.000000; stroke-opacity:1; 
stroke-linecap:round; stroke-linejoin:round;">
<path style="fill:#000000; fill-opacity:1.0; 
stroke:#000000; stroke-width:1.000000; stroke-opacity:1; 
stroke-linecap:round; stroke-linejoin:round;fill-rule:evenodd;"
d="M 80159400.000000,117313700.000000
80177479.000000,117222813.000000
80228962.000000,117145762.000000
80306013.000000,117094279.000000
80396900.000000,117076200.000000
80996900.000000,117076200.000000
81087787.000000,117094279.000000
81164838.000000,117145762.000000
81216321.000000,117222813.000000
81234400.000000,117313700.000000
81234400.000000,117788700.000000
81216321.000000,117879587.000000
81164838.000000,117956638.000000
81087787.000000,118008121.000000
80996900.000000,118026200.000000
80396900.000000,118026200.000000
80306013.000000,118008121.000000
80228962.000000,117956638.000000
80177479.000000,117879587.000000
80159400.000000,117788700.000000
Z" /> 
<path style="fill:#000000; fill-opacity:1.0; 
stroke:#000000; stroke-width:1.000000; stroke-opacity:1; 
stroke-linecap:round; stroke-linejoin:round;fill-rule:evenodd;"
d="M 81884400.000000,117313700.000000
81902479.000000,117222813.000000
81953962.000000,117145762.000000
82031013.000000,117094279.000000
82121900.000000,117076200.000000
82721900.000000,117076200.000000
82812787.000000,117094279.000000
82889838.000000,117145762.000000
82941321.000000,117222813.000000
82959400.000000,117313700.000000
82959400.000000,117788700.000000
82941321.000000,117879587.000000
82889838.000000,117956638.000000
82812787.000000,118008121.000000
82721900.000000,118026200.000000
82121900.000000,118026200.000000
82031013.000000,118008121.000000
81953962.000000,117956638.000000
81902479.000000,117879587.000000
81884400.000000,117788700.000000
Z" /> 
</g>
<g >
</g>
<g >
</g>
<g style="fill:#000000; fill-opacity:1.0; 
stroke:#000000; stroke-width:1.000000; stroke-opacity:1; 
stroke-linecap:round; stroke-linejoin:round;">
<path style="fill:#000000; fill-opacity:1.0; 
stroke:#000000; stroke-width:1.000000; stroke-opacity:1; 
stroke-linecap:round; stroke-linejoin:round;fill-rule:evenodd;"
d="M 97438601.000000,144162999.000000
97438601.000000,143513001.000000
98998599.000000,143513001.000000
98998599.000000,144162999.000000
Z" /> 
<path style="fill:#000000; fill-opacity:1.0; 
stroke:#000000; stroke-width:1.000000; stroke-opacity:1; 
stroke-linecap:round; stroke-linejoin:round;fill-rule:evenodd;"
d="M 97438601.000000,145112999.000000
97438601.000000,144463001.000000
98998599.000000,144463001.000000
98998599.000000,145112999.000000
Z" /> 
<path style="fill:#000000; fill-opacity:1.0; 
stroke:#000000; stroke-width:1.000000; stroke-opacity:1; 
stroke-linecap:round; stroke-linejoin:round;fill-rule:evenodd;"
d="M 97438601.000000,146062999.000000
97438601.000000,145413001.000000
98998599.000000,145413001.000000
98998599.000000,146062999.000000
Z" /> 
<path style="fill:#000000; fill-opacity:1.0; 
stroke:#000000; stroke-width:1.000000; stroke-opacity:1; 
stroke-linecap:round; stroke-linejoin:round;fill-rule:evenodd;"
d="M 100138601.000000,146062999.000000
100138601.000000,145413001.000000
101698599.000000,145413001.000000
101698599.000000,146062999.000000
Z" /> 
<path style="fill:#000000; fill-opacity:1.0; 
stroke:#000000; stroke-width:1.000000; stroke-opacity:1; 
stroke-linecap:round; stroke-linejoin:round;fill-rule:evenodd;"
d="M 100138601.000000,144162999.000000
100138601.000000,143513001.000000
101698599.000000,143513001.000000
101698599.000000,144162999.000000
Z" /> 
</g>
<g >
</g>
<g style="fill:#000000; fill-opacity:1.0; 
stroke:#000000; stroke-width:1.000000; stroke-opacity:1; 
stroke-linecap:round; stroke-linejoin:round;">
<path style="fill:#000000; fill-opacity:1.0; 
stroke:#000000; stroke-width:1.000000; stroke-opacity:1; 
stroke-linecap:round; stroke-linejoin:round;fill-rule:evenodd;"
d="M 86673700.000000,110123100.000000
86764587.000000,110141179.000000
86841638.000000,110192662.000000
86893121.000000,110269713.000000
86911200.000000,110360600.000000
86911200.000000,110860600.000000
86893121.000000,110951487.000000
86841638.000000,111028538.000000
86764587.000000,111080021.000000
86673700.000000,111098100.000000
86198700.000000,111098100.000000
86107813.000000,111080021.000000
86030762.000000,111028538.000000
85979279.000000,110951487.000000
85961200.000000,110860600.000000
85961200.000000,110360600.000000
85979279.000000,110269713.000000
86030762.000000,110192662.000000
86107813.000000,110141179.000000
86198700.000000,110123100.000000
Z" /> 
<path style="fill:#000000; fill-opacity:1.0; 
stroke:#000000; stroke-width:1.000000; stroke-opacity:1; 
stroke-linecap:round; stroke-linejoin:round;fill-rule:evenodd;"
d="M 86673700.000000,111948100.000000
86764587.000000,111966179.000000
86841638.000000,112017662.000000
86893121.000000,112094713.000000
86911200.000000,112185600.000000
86911200.000000,112685600.000000
86893121.000000,112776487.000000
86841638.000000,112853538.000000
86764587.000000,112905021.000000
86673700.000000,112923100.000000
86198700.000000,112923100.000000
86107813.000000,112905021.000000
86030762.000000,112853538.000000
85979279.000000,112776487.000000
85961200.000000,112685600.000000
85961200.000000,112185600.000000
85979279.000000,112094713.000000
86030762.000000,112017662.000000
86107813.000000,111966179.000000
86198700.000000,111948100.000000
Z" /> 
</g>
<g >
</g>
<g style="fill:#000000; fill-opacity:1.0; 
stroke:#000000; stroke-width:1.000000; stroke-opacity:1; 
stroke-linecap:round; stroke-linejoin:round;">
<path style="fill:#000000; fill-opacity:1.0; 
stroke:#000000; stroke-width:1.000000; stroke-opacity:1; 
stroke-linecap:round; stroke-linejoin:round;fill-rule:evenodd;"
d="M 79506900.000000,112355300.000000
79416013.000000,112337221.000000
79338962.000000,112285738.000000
79287479.000000,112208687.000000
79269400.000000,112117800.000000
79269400.000000,111617800.000000
79287479.000000,111526913.000000
79338962.000000,111449862.000000
79416013.000000,111398379.000000
79506900.000000,111380300.000000
79981900.000000,111380300.000000
80072787.000000,111398379.000000
80149838.000000,111449862.000000
80201321.000000,111526913.000000
80219400.000000,111617800.000000
80219400.000000,112117800.000000
80201321.000000,112208687.000000
80149838.000000,112285738.000000
80072787.000000,112337221.000000
79981900.000000,112355300.000000
Z" /> 
<path style="fill:#000000; fill-opacity:1.0; 
stroke:#000000; stroke-width:1.000000; stroke-opacity:1; 
stroke-linecap:round; stroke-linejoin:round;fill-rule:evenodd;"
d="M 79506900.000000,110530300.000000
79416013.000000,110512221.000000
79338962.000000,110460738.000000
79287479.000000,110383687.000000
79269400.000000,110292800.000000
79269400.000000,109792800.000000
79287479.000000,109701913.000000
79338962.000000,109624862.000000
79416013.000000,109573379.000000
79506900.000000,109555300.000000
79981900.000000,109555300.000000
80072787.000000,109573379.000000
80149838.000000,109624862.000000
80201321.000000,109701913.000000
80219400.000000,109792800.000000
80219400.000000,110292800.000000
80201321.000000,110383687.000000
80149838.000000,110460738.000000
80072787.000000,110512221.000000
79981900.000000,110530300.000000
Z" /> 
</g>
<g >
</g>
<g >
</g>
<g style="fill:#000000; fill-opacity:1.0; 
stroke:#000000; stroke-width:1.000000; stroke-opacity:1; 
stroke-linecap:round; stroke-linejoin:round;">
<path style="fill:#000000; fill-opacity:1.0; 
stroke:#000000; stroke-width:1.000000; stroke-opacity:1; 
stroke-linecap:round; stroke-linejoin:round;fill-rule:evenodd;"
d="M 109934801.000000,100974999.000000
109934801.000000,100325001.000000
111494799.000000,100325001.000000
111494799.000000,100974999.000000
Z" /> 
<path style="fill:#000000; fill-opacity:1.0; 
stroke:#000000; stroke-width:1.000000; stroke-opacity:1; 
stroke-linecap:round; stroke-linejoin:round;fill-rule:evenodd;"
d="M 109934801.000000,101924999.000000
109934801.000000,101275001.000000
111494799.000000,101275001.000000
111494799.000000,101924999.000000
Z" /> 
<path style="fill:#000000; fill-opacity:1.0; 
stroke:#000000; stroke-width:1.000000; stroke-opacity:1; 
stroke-linecap:round; stroke-linejoin:round;fill-rule:evenodd;"
d="M 109934801.000000,102874999.000000
109934801.000000,102225001.000000
111494799.000000,102225001.000000
111494799.000000,102874999.000000
Z" /> 
<path style="fill:#000000; fill-opacity:1.0; 
stroke:#000000; stroke-width:1.000000; stroke-opacity:1; 
stroke-linecap:round; stroke-linejoin:round;fill-rule:evenodd;"
d="M 112634801.000000,102874999.000000
112634801.000000,102225001.000000
114194799.000000,102225001.000000
114194799.000000,102874999.000000
Z" /> 
<path style="fill:#000000; fill-opacity:1.0; 
stroke:#000000; stroke-width:1.000000; stroke-opacity:1; 
stroke-linecap:round; stroke-linejoin:round;fill-rule:evenodd;"
d="M 112634801.000000,101924999.000000
112634801.000000,101275001.000000
114194799.000000,101275001.000000
114194799.000000,101924999.000000
Z" /> 
<path style="fill:#000000; fill-opacity:1.0; 
stroke:#000000; stroke-width:1.000000; stroke-opacity:1; 
stroke-linecap:round; stroke-linejoin:round;fill-rule:evenodd;"
d="M 112634801.000000,100974999.000000
112634801.000000,100325001.000000
114194799.000000,100325001.000000
114194799.000000,100974999.000000
Z" /> 
</g>
<g >
</g>
<g >
</g>
<g >
</g>
<g >
</g>
<g style="fill:#000000; fill-opacity:1.0; 
stroke:#000000; stroke-width:1.000000; stroke-opacity:1; 
stroke-linecap:round; stroke-linejoin:round;">
<path style="fill:#000000; fill-opacity:1.0; 
stroke:#000000; stroke-width:1.000000; stroke-opacity:1; 
stroke-linecap:round; stroke-linejoin:round;fill-rule:evenodd;"
d="M 92992400.000000,102726500.000000
92974321.000000,102817387.000000
92922838.000000,102894438.000000
92845787.000000,102945921.000000
92754900.000000,102964000.000000
92254900.000000,102964000.000000
92164013.000000,102945921.000000
92086962.000000,102894438.000000
92035479.000000,102817387.000000
92017400.000000,102726500.000000
92017400.000000,102251500.000000
92035479.000000,102160613.000000
92086962.000000,102083562.000000
92164013.000000,102032079.000000
92254900.000000,102014000.000000
92754900.000000,102014000.000000
92845787.000000,102032079.000000
92922838.000000,102083562.000000
92974321.000000,102160613.000000
92992400.000000,102251500.000000
Z" /> 
<path style="fill:#000000; fill-opacity:1.0; 
stroke:#000000; stroke-width:1.000000; stroke-opacity:1; 
stroke-linecap:round; stroke-linejoin:round;fill-rule:evenodd;"
d="M 91167400.000000,102726500.000000
91149321.000000,102817387.000000
91097838.000000,102894438.000000
91020787.000000,102945921.000000
90929900.000000,102964000.000000
90429900.000000,102964000.000000
90339013.000000,102945921.000000
90261962.000000,102894438.000000
90210479.000000,102817387.000000
90192400.000000,102726500.000000
90192400.000000,102251500.000000
90210479.000000,102160613.000000
90261962.000000,102083562.000000
90339013.000000,102032079.000000
90429900.000000,102014000.000000
90929900.000000,102014000.000000
91020787.000000,102032079.000000
91097838.000000,102083562.000000
91149321.000000,102160613.000000
91167400.000000,102251500.000000
Z" /> 
</g>
<g >
</g>
<g style="fill:#000000; fill-opacity:1.0; 
stroke:#000000; stroke-width:1.000000; stroke-opacity:1; 
stroke-linecap:round; stroke-linejoin:round;">
<path style="fill:#000000; fill-opacity:1.0; 
stroke:#000000; stroke-width:1.000000; stroke-opacity:1; 
stroke-linecap:round; stroke-linejoin:round;fill-rule:evenodd;"
d="M 86353800.000000,140681400.000000
86346188.000000,140719668.000000
86324511.000000,140752111.000000
86292068.000000,140773788.000000
86253800.000000,140781400.000000
84978800.000000,140781400.000000
84940532.000000,140773788.000000
84908089.000000,140752111.000000
84886412.000000,140719668.000000
84878800.000000,140681400.000000
84878800.000000,140481400.000000
84886412.000000,140443132.000000
84908089.000000,140410689.000000
84940532.000000,140389012.000000
84978800.000000,140381400.000000
86253800.000000,140381400.000000
86292068.000000,140389012.000000
86324511.000000,140410689.000000
86346188.000000,140443132.000000
86353800.000000,140481400.000000
Z" /> 
<path style="fill:#000000; fill-opacity:1.0; 
stroke:#000000; stroke-width:1.000000; stroke-opacity:1; 
stroke-linecap:round; stroke-linejoin:round;fill-rule:evenodd;"
d="M 86353800.000000,140031400.000000
86346188.000000,140069668.000000
86324511.000000,140102111.000000
86292068.000000,140123788.000000
86253800.000000,140131400.000000
84978800.000000,140131400.000000
84940532.000000,140123788.000000
84908089.000000,140102111.000000
84886412.000000,140069668.000000
84878800.000000,140031400.000000
84878800.000000,139831400.000000
84886412.000000,139793132.000000
84908089.000000,139760689.000000
84940532.000000,139739012.000000
84978800.000000,139731400.000000
86253800.000000,139731400.000000
86292068.000000,139739012.000000
86324511.000000,139760689.000000
86346188.000000,139793132.000000
86353800.000000,139831400.000000
Z" /> 
<path style="fill:#000000; fill-opacity:1.0; 
stroke:#000000; stroke-width:1.000000; stroke-opacity:1; 
stroke-linecap:round; stroke-linejoin:round;fill-rule:evenodd;"
d="M 86353800.000000,139381400.000000
86346188.000000,139419668.000000
86324511.000000,139452111.000000
86292068.000000,139473788.000000
86253800.000000,139481400.000000
84978800.000000,139481400.000000
84940532.000000,139473788.000000
84908089.000000,139452111.000000
84886412.000000,139419668.000000
84878800.000000,139381400.000000
84878800.000000,139181400.000000
84886412.000000,139143132.000000
84908089.000000,139110689.000000
84940532.000000,139089012.000000
84978800.000000,139081400.000000
86253800.000000,139081400.000000
86292068.000000,139089012.000000
86324511.000000,139110689.000000
86346188.000000,139143132.000000
86353800.000000,139181400.000000
Z" /> 
<path style="fill:#000000; fill-opacity:1.0; 
stroke:#000000; stroke-width:1.000000; stroke-opacity:1; 
stroke-linecap:round; stroke-linejoin:round;fill-rule:evenodd;"
d="M 86353800.000000,138731400.000000
86346188.000000,138769668.000000
86324511.000000,138802111.000000
86292068.000000,138823788.000000
86253800.000000,138831400.000000
84978800.000000,138831400.000000
84940532.000000,138823788.000000
84908089.000000,138802111.000000
84886412.000000,138769668.000000
84878800.000000,138731400.000000
84878800.000000,138531400.000000
84886412.000000,138493132.000000
84908089.000000,138460689.000000
84940532.000000,138439012.000000
84978800.000000,138431400.000000
86253800.000000,138431400.000000
86292068.000000,138439012.000000
86324511.000000,138460689.000000
86346188.000000,138493132.000000
86353800.000000,138531400.000000
Z" /> 
<path style="fill:#000000; fill-opacity:1.0; 
stroke:#000000; stroke-width:1.000000; stroke-opacity:1; 
stroke-linecap:round; stroke-linejoin:round;fill-rule:evenodd;"
d="M 80628800.000000,138731400.000000
80621188.000000,138769668.000000
80599511.000000,138802111.000000
80567068.000000,138823788.000000
80528800.000000,138831400.000000
79253800.000000,138831400.000000
79215532.000000,138823788.000000
79183089.000000,138802111.000000
79161412.000000,138769668.000000
79153800.000000,138731400.000000
79153800.000000,138531400.000000
79161412.000000,138493132.000000
79183089.000000,138460689.000000
79215532.000000,138439012.000000
79253800.000000,138431400.000000
80528800.000000,138431400.000000
80567068.000000,138439012.000000
80599511.000000,138460689.000000
80621188.000000,138493132.000000
80628800.000000,138531400.000000
Z" /> 
<path style="fill:#000000; fill-opacity:1.0; 
stroke:#000000; stroke-width:1.000000; stroke-opacity:1; 
stroke-linecap:round; stroke-linejoin:round;fill-rule:evenodd;"
d="M 80628800.000000,139381400.000000
80621188.000000,139419668.000000
80599511.000000,139452111.000000
80567068.000000,139473788.000000
80528800.000000,139481400.000000
79253800.000000,139481400.000000
79215532.000000,139473788.000000
79183089.000000,139452111.000000
79161412.000000,139419668.000000
79153800.000000,139381400.000000
79153800.000000,139181400.000000
79161412.000000,139143132.000000
79183089.000000,139110689.000000
79215532.000000,139089012.000000
79253800.000000,139081400.000000
80528800.000000,139081400.000000
80567068.000000,139089012.000000
80599511.000000,139110689.000000
80621188.000000,139143132.000000
80628800.000000,139181400.000000
Z" /> 
<path style="fill:#000000; fill-opacity:1.0; 
stroke:#000000; stroke-width:1.000000; stroke-opacity:1; 
stroke-linecap:round; stroke-linejoin:round;fill-rule:evenodd;"
d="M 80628800.000000,140031400.000000
80621188.000000,140069668.000000
80599511.000000,140102111.000000
80567068.000000,140123788.000000
80528800.000000,140131400.000000
79253800.000000,140131400.000000
79215532.000000,140123788.000000
79183089.000000,140102111.000000
79161412.000000,140069668.000000
79153800.000000,140031400.000000
79153800.000000,139831400.000000
79161412.000000,139793132.000000
79183089.000000,139760689.000000
79215532.000000,139739012.000000
79253800.000000,139731400.000000
80528800.000000,139731400.000000
80567068.000000,139739012.000000
80599511.000000,139760689.000000
80621188.000000,139793132.000000
80628800.000000,139831400.000000
Z" /> 
<path style="fill:#000000; fill-opacity:1.0; 
stroke:#000000; stroke-width:1.000000; stroke-opacity:1; 
stroke-linecap:round; stroke-linejoin:round;fill-rule:evenodd;"
d="M 80628800.000000,140681400.000000
80621188.000000,140719668.000000
80599511.000000,140752111.000000
80567068.000000,140773788.000000
80528800.000000,140781400.000000
79253800.000000,140781400.000000
79215532.000000,140773788.000000
79183089.000000,140752111.000000
79161412.000000,140719668.000000
79153800.000000,140681400.000000
79153800.000000,140481400.000000
79161412.000000,140443132.000000
79183089.000000,140410689.000000
79215532.000000,140389012.000000
79253800.000000,140381400.000000
80528800.000000,140381400.000000
80567068.000000,140389012.000000
80599511.000000,140410689.000000
80621188.000000,140443132.000000
80628800.000000,140481400.000000
Z" /> 
</g>
<g >
</g>
<g >
</g>
<g style="fill:#000000; fill-opacity:1.0; 
stroke:#000000; stroke-width:1.000000; stroke-opacity:1; 
stroke-linecap:round; stroke-linejoin:round;">
<path style="fill:#000000; fill-opacity:1.0; 
stroke:#000000; stroke-width:1.000000; stroke-opacity:1; 
stroke-linecap:round; stroke-linejoin:round;fill-rule:evenodd;"
d="M 74213001.000000,115092601.000000
75712999.000000,115092601.000000
75712999.000000,115742599.000000
74213001.000000,115742599.000000
Z" /> 
<path style="fill:#000000; fill-opacity:1.0; 
stroke:#000000; stroke-width:1.000000; stroke-opacity:1; 
stroke-linecap:round; stroke-linejoin:round;fill-rule:evenodd;"
d="M 74213001.000000,113822601.000000
75712999.000000,113822601.000000
75712999.000000,114472599.000000
74213001.000000,114472599.000000
Z" /> 
<path style="fill:#000000; fill-opacity:1.0; 
stroke:#000000; stroke-width:1.000000; stroke-opacity:1; 
stroke-linecap:round; stroke-linejoin:round;fill-rule:evenodd;"
d="M 74213001.000000,112552601.000000
75712999.000000,112552601.000000
75712999.000000,113202599.000000
74213001.000000,113202599.000000
Z" /> 
<path style="fill:#000000; fill-opacity:1.0; 
stroke:#000000; stroke-width:1.000000; stroke-opacity:1; 
stroke-linecap:round; stroke-linejoin:round;fill-rule:evenodd;"
d="M 74213001.000000,111282601.000000
75712999.000000,111282601.000000
75712999.000000,111932599.000000
74213001.000000,111932599.000000
Z" /> 
<path style="fill:#000000; fill-opacity:1.0; 
stroke:#000000; stroke-width:1.000000; stroke-opacity:1; 
stroke-linecap:round; stroke-linejoin:round;fill-rule:evenodd;"
d="M 68813001.000000,111282601.000000
70312999.000000,111282601.000000
70312999.000000,111932599.000000
68813001.000000,111932599.000000
Z" /> 
<path style="fill:#000000; fill-opacity:1.0; 
stroke:#000000; stroke-width:1.000000; stroke-opacity:1; 
stroke-linecap:round; stroke-linejoin:round;fill-rule:evenodd;"
d="M 68813001.000000,112552601.000000
70312999.000000,112552601.000000
70312999.000000,113202599.000000
68813001.000000,113202599.000000
Z" /> 
<path style="fill:#000000; fill-opacity:1.0; 
stroke:#000000; stroke-width:1.000000; stroke-opacity:1; 
stroke-linecap:round; stroke-linejoin:round;fill-rule:evenodd;"
d="M 68813001.000000,113822601.000000
70312999.000000,113822601.000000
70312999.000000,114472599.000000
68813001.000000,114472599.000000
Z" /> 
<path style="fill:#000000; fill-opacity:1.0; 
stroke:#000000; stroke-width:1.000000; stroke-opacity:1; 
stroke-linecap:round; stroke-linejoin:round;fill-rule:evenodd;"
d="M 68813001.000000,115092601.000000
70312999.000000,115092601.000000
70312999.000000,115742599.000000
68813001.000000,115742599.000000
Z" /> 
</g>
<g >
</g>
<g style="fill:#000000; fill-opacity:1.0; 
stroke:#000000; stroke-width:1.000000; stroke-opacity:1; 
stroke-linecap:round; stroke-linejoin:round;">
<path style="fill:#000000; fill-opacity:1.0; 
stroke:#000000; stroke-width:1.000000; stroke-opacity:1; 
stroke-linecap:round; stroke-linejoin:round;fill-rule:evenodd;"
d="M 101509599.000000,141924599.000000
99659601.000000,141924599.000000
99659601.000000,140724601.000000
101509599.000000,140724601.000000
Z" /> 
<path style="fill:#000000; fill-opacity:1.0; 
stroke:#000000; stroke-width:1.000000; stroke-opacity:1; 
stroke-linecap:round; stroke-linejoin:round;fill-rule:evenodd;"
d="M 101509599.000000,137624599.000000
99659601.000000,137624599.000000
99659601.000000,136424601.000000
101509599.000000,136424601.000000
Z" /> 
</g>
<g >
</g>
<g style="fill:#000000; fill-opacity:1.0; 
stroke:#000000; stroke-width:1.000000; stroke-opacity:1; 
stroke-linecap:round; stroke-linejoin:round;">
<path style="fill:#000000; fill-opacity:1.0; 
stroke:#000000; stroke-width:1.000000; stroke-opacity:1; 
stroke-linecap:round; stroke-linejoin:round;fill-rule:evenodd;"
d="M 90151800.000000,107052100.000000
90169879.000000,106961213.000000
90221362.000000,106884162.000000
90298413.000000,106832679.000000
90389300.000000,106814600.000000
90889300.000000,106814600.000000
90980187.000000,106832679.000000
91057238.000000,106884162.000000
91108721.000000,106961213.000000
91126800.000000,107052100.000000
91126800.000000,107527100.000000
91108721.000000,107617987.000000
91057238.000000,107695038.000000
90980187.000000,107746521.000000
90889300.000000,107764600.000000
90389300.000000,107764600.000000
90298413.000000,107746521.000000
90221362.000000,107695038.000000
90169879.000000,107617987.000000
90151800.000000,107527100.000000
Z" /> 
<path style="fill:#000000; fill-opacity:1.0; 
stroke:#000000; stroke-width:1.000000; stroke-opacity:1; 
stroke-linecap:round; stroke-linejoin:round;fill-rule:evenodd;"
d="M 91976800.000000,107052100.000000
91994879.000000,106961213.000000
92046362.000000,106884162.000000
92123413.000000,106832679.000000
92214300.000000,106814600.000000
92714300.000000,106814600.000000
92805187.000000,106832679.000000
92882238.000000,106884162.000000
92933721.000000,106961213.000000
92951800.000000,107052100.000000
92951800.000000,107527100.000000
92933721.000000,107617987.000000
92882238.000000,107695038.000000
92805187.000000,107746521.000000
92714300.000000,107764600.000000
92214300.000000,107764600.000000
92123413.000000,107746521.000000
92046362.000000,107695038.000000
91994879.000000,107617987.000000
91976800.000000,107527100.000000
Z" /> 
</g>
<g >
</g>
<g style="fill:#000000; fill-opacity:1.0; 
stroke:#000000; stroke-width:1.000000; stroke-opacity:1; 
stroke-linecap:round; stroke-linejoin:round;">
<path style="fill:#000000; fill-opacity:1.0; 
stroke:#000000; stroke-width:1.000000; stroke-opacity:1; 
stroke-linecap:round; stroke-linejoin:round;fill-rule:evenodd;"
d="M 109630001.000000,111134999.000000
109630001.000000,110485001.000000
111189999.000000,110485001.000000
111189999.000000,111134999.000000
Z" /> 
<path style="fill:#000000; fill-opacity:1.0; 
stroke:#000000; stroke-width:1.000000; stroke-opacity:1; 
stroke-linecap:round; stroke-linejoin:round;fill-rule:evenodd;"
d="M 109630001.000000,112084999.000000
109630001.000000,111435001.000000
111189999.000000,111435001.000000
111189999.000000,112084999.000000
Z" /> 
<path style="fill:#000000; fill-opacity:1.0; 
stroke:#000000; stroke-width:1.000000; stroke-opacity:1; 
stroke-linecap:round; stroke-linejoin:round;fill-rule:evenodd;"
d="M 109630001.000000,113034999.000000
109630001.000000,112385001.000000
111189999.000000,112385001.000000
111189999.000000,113034999.000000
Z" /> 
<path style="fill:#000000; fill-opacity:1.0; 
stroke:#000000; stroke-width:1.000000; stroke-opacity:1; 
stroke-linecap:round; stroke-linejoin:round;fill-rule:evenodd;"
d="M 112330001.000000,113034999.000000
112330001.000000,112385001.000000
113889999.000000,112385001.000000
113889999.000000,113034999.000000
Z" /> 
<path style="fill:#000000; fill-opacity:1.0; 
stroke:#000000; stroke-width:1.000000; stroke-opacity:1; 
stroke-linecap:round; stroke-linejoin:round;fill-rule:evenodd;"
d="M 112330001.000000,112084999.000000
112330001.000000,111435001.000000
113889999.000000,111435001.000000
113889999.000000,112084999.000000
Z" /> 
<path style="fill:#000000; fill-opacity:1.0; 
stroke:#000000; stroke-width:1.000000; stroke-opacity:1; 
stroke-linecap:round; stroke-linejoin:round;fill-rule:evenodd;"
d="M 112330001.000000,111134999.000000
112330001.000000,110485001.000000
113889999.000000,110485001.000000
113889999.000000,111134999.000000
Z" /> 
</g>
<g >
</g>
<g >
</g>
<g >
</g>
<g style="fill:#000000; fill-opacity:1.0; 
stroke:#000000; stroke-width:1.000000; stroke-opacity:1; 
stroke-linecap:round; stroke-linejoin:round;">
<path style="fill:#000000; fill-opacity:1.0; 
stroke:#000000; stroke-width:1.000000; stroke-opacity:1; 
stroke-linecap:round; stroke-linejoin:round;fill-rule:evenodd;"
d="M 88324700.000000,113677900.000000
88415587.000000,113695979.000000
88492638.000000,113747462.000000
88544121.000000,113824513.000000
88562200.000000,113915400.000000
88562200.000000,114490400.000000
88544121.000000,114581287.000000
88492638.000000,114658338.000000
88415587.000000,114709821.000000
88324700.000000,114727900.000000
87849700.000000,114727900.000000
87758813.000000,114709821.000000
87681762.000000,114658338.000000
87630279.000000,114581287.000000
87612200.000000,114490400.000000
87612200.000000,113915400.000000
87630279.000000,113824513.000000
87681762.000000,113747462.000000
87758813.000000,113695979.000000
87849700.000000,113677900.000000
Z" /> 
<path style="fill:#000000; fill-opacity:1.0; 
stroke:#000000; stroke-width:1.000000; stroke-opacity:1; 
stroke-linecap:round; stroke-linejoin:round;fill-rule:evenodd;"
d="M 88324700.000000,115427900.000000
88415587.000000,115445979.000000
88492638.000000,115497462.000000
88544121.000000,115574513.000000
88562200.000000,115665400.000000
88562200.000000,116240400.000000
88544121.000000,116331287.000000
88492638.000000,116408338.000000
88415587.000000,116459821.000000
88324700.000000,116477900.000000
87849700.000000,116477900.000000
87758813.000000,116459821.000000
87681762.000000,116408338.000000
87630279.000000,116331287.000000
87612200.000000,116240400.000000
87612200.000000,115665400.000000
87630279.000000,115574513.000000
87681762.000000,115497462.000000
87758813.000000,115445979.000000
87849700.000000,115427900.000000
Z" /> 
</g>
<g >
</g>
<g >
</g>
<g >
</g>
<g >
</g>
<g >
</g>
<g >
</g>
<g style="fill:#000000; fill-opacity:1.0; 
stroke:#000000; stroke-width:1.000000; stroke-opacity:1; 
stroke-linecap:round; stroke-linejoin:round;">
<path style="fill:#000000; fill-opacity:1.0; 
stroke:#000000; stroke-width:1.000000; stroke-opacity:1; 
stroke-linecap:round; stroke-linejoin:round;fill-rule:evenodd;"
d="M 86673700.000000,113665800.000000
86764587.000000,113683879.000000
86841638.000000,113735362.000000
86893121.000000,113812413.000000
86911200.000000,113903300.000000
86911200.000000,114478300.000000
86893121.000000,114569187.000000
86841638.000000,114646238.000000
86764587.000000,114697721.000000
86673700.000000,114715800.000000
86198700.000000,114715800.000000
86107813.000000,114697721.000000
86030762.000000,114646238.000000
85979279.000000,114569187.000000
85961200.000000,114478300.000000
85961200.000000,113903300.000000
85979279.000000,113812413.000000
86030762.000000,113735362.000000
86107813.000000,113683879.000000
86198700.000000,113665800.000000
Z" /> 
<path style="fill:#000000; fill-opacity:1.0; 
stroke:#000000; stroke-width:1.000000; stroke-opacity:1; 
stroke-linecap:round; stroke-linejoin:round;fill-rule:evenodd;"
d="M 86673700.000000,115415800.000000
86764587.000000,115433879.000000
86841638.000000,115485362.000000
86893121.000000,115562413.000000
86911200.000000,115653300.000000
86911200.000000,116228300.000000
86893121.000000,116319187.000000
86841638.000000,116396238.000000
86764587.000000,116447721.000000
86673700.000000,116465800.000000
86198700.000000,116465800.000000
86107813.000000,116447721.000000
86030762.000000,116396238.000000
85979279.000000,116319187.000000
85961200.000000,116228300.000000
85961200.000000,115653300.000000
85979279.000000,115562413.000000
86030762.000000,115485362.000000
86107813.000000,115433879.000000
86198700.000000,115415800.000000
Z" /> 
</g>
<g >
</g>
<g style="fill:#000000; fill-opacity:1.0; 
stroke:#000000; stroke-width:1.000000; stroke-opacity:1; 
stroke-linecap:round; stroke-linejoin:round;">
<path style="fill:#000000; fill-opacity:1.0; 
stroke:#000000; stroke-width:1.000000; stroke-opacity:1; 
stroke-linecap:round; stroke-linejoin:round;fill-rule:evenodd;"
d="M 82162400.000000,105517600.000000
82179527.000000,105431496.000000
82228301.000000,105358501.000000
82301296.000000,105309727.000000
82387400.000000,105292600.000000
82837400.000000,105292600.000000
82923504.000000,105309727.000000
82996499.000000,105358501.000000
83045273.000000,105431496.000000
83062400.000000,105517600.000000
83062400.000000,105967600.000000
83045273.000000,106053704.000000
82996499.000000,106126699.000000
82923504.000000,106175473.000000
82837400.000000,106192600.000000
82387400.000000,106192600.000000
82301296.000000,106175473.000000
82228301.000000,106126699.000000
82179527.000000,106053704.000000
82162400.000000,105967600.000000
Z" /> 
<path style="fill:#000000; fill-opacity:1.0; 
stroke:#000000; stroke-width:1.000000; stroke-opacity:1; 
stroke-linecap:round; stroke-linejoin:round;fill-rule:evenodd;"
d="M 83282400.000000,104397600.000000
83299527.000000,104311496.000000
83348301.000000,104238501.000000
83421296.000000,104189727.000000
83507400.000000,104172600.000000
83957400.000000,104172600.000000
84043504.000000,104189727.000000
84116499.000000,104238501.000000
84165273.000000,104311496.000000
84182400.000000,104397600.000000
84182400.000000,104847600.000000
84165273.000000,104933704.000000
84116499.000000,105006699.000000
84043504.000000,105055473.000000
83957400.000000,105072600.000000
83507400.000000,105072600.000000
83421296.000000,105055473.000000
83348301.000000,105006699.000000
83299527.000000,104933704.000000
83282400.000000,104847600.000000
Z" /> 
<path style="fill:#000000; fill-opacity:1.0; 
stroke:#000000; stroke-width:1.000000; stroke-opacity:1; 
stroke-linecap:round; stroke-linejoin:round;fill-rule:evenodd;"
d="M 83282400.000000,105517600.000000
83299527.000000,105431496.000000
83348301.000000,105358501.000000
83421296.000000,105309727.000000
83507400.000000,105292600.000000
83957400.000000,105292600.000000
84043504.000000,105309727.000000
84116499.000000,105358501.000000
84165273.000000,105431496.000000
84182400.000000,105517600.000000
84182400.000000,105967600.000000
84165273.000000,106053704.000000
84116499.000000,106126699.000000
84043504.000000,106175473.000000
83957400.000000,106192600.000000
83507400.000000,106192600.000000
83421296.000000,106175473.000000
83348301.000000,106126699.000000
83299527.000000,106053704.000000
83282400.000000,105967600.000000
Z" /> 
<path style="fill:#000000; fill-opacity:1.0; 
stroke:#000000; stroke-width:1.000000; stroke-opacity:1; 
stroke-linecap:round; stroke-linejoin:round;fill-rule:evenodd;"
d="M 81042400.000000,105517600.000000
81059527.000000,105431496.000000
81108301.000000,105358501.000000
81181296.000000,105309727.000000
81267400.000000,105292600.000000
81717400.000000,105292600.000000
81803504.000000,105309727.000000
81876499.000000,105358501.000000
81925273.000000,105431496.000000
81942400.000000,105517600.000000
81942400.000000,105967600.000000
81925273.000000,106053704.000000
81876499.000000,106126699.000000
81803504.000000,106175473.000000
81717400.000000,106192600.000000
81267400.000000,106192600.000000
81181296.000000,106175473.000000
81108301.000000,106126699.000000
81059527.000000,106053704.000000
81042400.000000,105967600.000000
Z" /> 
<path style="fill:#000000; fill-opacity:1.0; 
stroke:#000000; stroke-width:1.000000; stroke-opacity:1; 
stroke-linecap:round; stroke-linejoin:round;fill-rule:evenodd;"
d="M 83282400.000000,103277600.000000
83299527.000000,103191496.000000
83348301.000000,103118501.000000
83421296.000000,103069727.000000
83507400.000000,103052600.000000
83957400.000000,103052600.000000
84043504.000000,103069727.000000
84116499.000000,103118501.000000
84165273.000000,103191496.000000
84182400.000000,103277600.000000
84182400.000000,103727600.000000
84165273.000000,103813704.000000
84116499.000000,103886699.000000
84043504.000000,103935473.000000
83957400.000000,103952600.000000
83507400.000000,103952600.000000
83421296.000000,103935473.000000
83348301.000000,103886699.000000
83299527.000000,103813704.000000
83282400.000000,103727600.000000
Z" /> 
<path style="fill:#000000; fill-opacity:1.0; 
stroke:#000000; stroke-width:1.000000; stroke-opacity:1; 
stroke-linecap:round; stroke-linejoin:round;fill-rule:evenodd;"
d="M 82162400.000000,103277600.000000
82179527.000000,103191496.000000
82228301.000000,103118501.000000
82301296.000000,103069727.000000
82387400.000000,103052600.000000
82837400.000000,103052600.000000
82923504.000000,103069727.000000
82996499.000000,103118501.000000
83045273.000000,103191496.000000
83062400.000000,103277600.000000
83062400.000000,103727600.000000
83045273.000000,103813704.000000
82996499.000000,103886699.000000
82923504.000000,103935473.000000
82837400.000000,103952600.000000
82387400.000000,103952600.000000
82301296.000000,103935473.000000
82228301.000000,103886699.000000
82179527.000000,103813704.000000
82162400.000000,103727600.000000
Z" /> 
<path style="fill:#000000; fill-opacity:1.0; 
stroke:#000000; stroke-width:1.000000; stroke-opacity:1; 
stroke-linecap:round; stroke-linejoin:round;fill-rule:evenodd;"
d="M 81042400.000000,103277600.000000
81059527.000000,103191496.000000
81108301.000000,103118501.000000
81181296.000000,103069727.000000
81267400.000000,103052600.000000
81717400.000000,103052600.000000
81803504.000000,103069727.000000
81876499.000000,103118501.000000
81925273.000000,103191496.000000
81942400.000000,103277600.000000
81942400.000000,103727600.000000
81925273.000000,103813704.000000
81876499.000000,103886699.000000
81803504.000000,103935473.000000
81717400.000000,103952600.000000
81267400.000000,103952600.000000
81181296.000000,103935473.000000
81108301.000000,103886699.000000
81059527.000000,103813704.000000
81042400.000000,103727600.000000
Z" /> 
<path style="fill:#000000; fill-opacity:1.0; 
stroke:#000000; stroke-width:1.000000; stroke-opacity:1; 
stroke-linecap:round; stroke-linejoin:round;fill-rule:evenodd;"
d="M 82162400.000000,104397600.000000
82179527.000000,104311496.000000
82228301.000000,104238501.000000
82301296.000000,104189727.000000
82387400.000000,104172600.000000
82837400.000000,104172600.000000
82923504.000000,104189727.000000
82996499.000000,104238501.000000
83045273.000000,104311496.000000
83062400.000000,104397600.000000
83062400.000000,104847600.000000
83045273.000000,104933704.000000
82996499.000000,105006699.000000
82923504.000000,105055473.000000
82837400.000000,105072600.000000
82387400.000000,105072600.000000
82301296.000000,105055473.000000
82228301.000000,105006699.000000
82179527.000000,104933704.000000
82162400.000000,104847600.000000
Z" /> 
<path style="fill:#000000; fill-opacity:1.0; 
stroke:#000000; stroke-width:1.000000; stroke-opacity:1; 
stroke-linecap:round; stroke-linejoin:round;fill-rule:evenodd;"
d="M 81042400.000000,104397600.000000
81059527.000000,104311496.000000
81108301.000000,104238501.000000
81181296.000000,104189727.000000
81267400.000000,104172600.000000
81717400.000000,104172600.000000
81803504.000000,104189727.000000
81876499.000000,104238501.000000
81925273.000000,104311496.000000
81942400.000000,104397600.000000
81942400.000000,104847600.000000
81925273.000000,104933704.000000
81876499.000000,105006699.000000
81803504.000000,105055473.000000
81717400.000000,105072600.000000
81267400.000000,105072600.000000
81181296.000000,105055473.000000
81108301.000000,105006699.000000
81059527.000000,104933704.000000
81042400.000000,104847600.000000
Z" /> 
<path style="fill:#000000; fill-opacity:1.0; 
stroke:#000000; stroke-width:1.000000; stroke-opacity:1; 
stroke-linecap:round; stroke-linejoin:round;fill-rule:evenodd;"
d="M 79762400.000000,103060100.000000
79767158.000000,103036182.000000
79780706.000000,103015906.000000
79800982.000000,103002358.000000
79824900.000000,102997600.000000
80499900.000000,102997600.000000
80523818.000000,103002358.000000
80544094.000000,103015906.000000
80557642.000000,103036182.000000
80562400.000000,103060100.000000
80562400.000000,103185100.000000
80557642.000000,103209018.000000
80544094.000000,103229294.000000
80523818.000000,103242842.000000
80499900.000000,103247600.000000
79824900.000000,103247600.000000
79800982.000000,103242842.000000
79780706.000000,103229294.000000
79767158.000000,103209018.000000
79762400.000000,103185100.000000
Z" /> 
<path style="fill:#000000; fill-opacity:1.0; 
stroke:#000000; stroke-width:1.000000; stroke-opacity:1; 
stroke-linecap:round; stroke-linejoin:round;fill-rule:evenodd;"
d="M 79762400.000000,103560100.000000
79767158.000000,103536182.000000
79780706.000000,103515906.000000
79800982.000000,103502358.000000
79824900.000000,103497600.000000
80499900.000000,103497600.000000
80523818.000000,103502358.000000
80544094.000000,103515906.000000
80557642.000000,103536182.000000
80562400.000000,103560100.000000
80562400.000000,103685100.000000
80557642.000000,103709018.000000
80544094.000000,103729294.000000
80523818.000000,103742842.000000
80499900.000000,103747600.000000
79824900.000000,103747600.000000
79800982.000000,103742842.000000
79780706.000000,103729294.000000
79767158.000000,103709018.000000
79762400.000000,103685100.000000
Z" /> 
<path style="fill:#000000; fill-opacity:1.0; 
stroke:#000000; stroke-width:1.000000; stroke-opacity:1; 
stroke-linecap:round; stroke-linejoin:round;fill-rule:evenodd;"
d="M 79762400.000000,104060100.000000
79767158.000000,104036182.000000
79780706.000000,104015906.000000
79800982.000000,104002358.000000
79824900.000000,103997600.000000
80499900.000000,103997600.000000
80523818.000000,104002358.000000
80544094.000000,104015906.000000
80557642.000000,104036182.000000
80562400.000000,104060100.000000
80562400.000000,104185100.000000
80557642.000000,104209018.000000
80544094.000000,104229294.000000
80523818.000000,104242842.000000
80499900.000000,104247600.000000
79824900.000000,104247600.000000
79800982.000000,104242842.000000
79780706.000000,104229294.000000
79767158.000000,104209018.000000
79762400.000000,104185100.000000
Z" /> 
<path style="fill:#000000; fill-opacity:1.0; 
stroke:#000000; stroke-width:1.000000; stroke-opacity:1; 
stroke-linecap:round; stroke-linejoin:round;fill-rule:evenodd;"
d="M 79762400.000000,104560100.000000
79767158.000000,104536182.000000
79780706.000000,104515906.000000
79800982.000000,104502358.000000
79824900.000000,104497600.000000
80499900.000000,104497600.000000
80523818.000000,104502358.000000
80544094.000000,104515906.000000
80557642.000000,104536182.000000
80562400.000000,104560100.000000
80562400.000000,104685100.000000
80557642.000000,104709018.000000
80544094.000000,104729294.000000
80523818.000000,104742842.000000
80499900.000000,104747600.000000
79824900.000000,104747600.000000
79800982.000000,104742842.000000
79780706.000000,104729294.000000
79767158.000000,104709018.000000
79762400.000000,104685100.000000
Z" /> 
<path style="fill:#000000; fill-opacity:1.0; 
stroke:#000000; stroke-width:1.000000; stroke-opacity:1; 
stroke-linecap:round; stroke-linejoin:round;fill-rule:evenodd;"
d="M 79762400.000000,105060100.000000
79767158.000000,105036182.000000
79780706.000000,105015906.000000
79800982.000000,105002358.000000
79824900.000000,104997600.000000
80499900.000000,104997600.000000
80523818.000000,105002358.000000
80544094.000000,105015906.000000
80557642.000000,105036182.000000
80562400.000000,105060100.000000
80562400.000000,105185100.000000
80557642.000000,105209018.000000
80544094.000000,105229294.000000
80523818.000000,105242842.000000
80499900.000000,105247600.000000
79824900.000000,105247600.000000
79800982.000000,105242842.000000
79780706.000000,105229294.000000
79767158.000000,105209018.000000
79762400.000000,105185100.000000
Z" /> 
<path style="fill:#000000; fill-opacity:1.0; 
stroke:#000000; stroke-width:1.000000; stroke-opacity:1; 
stroke-linecap:round; stroke-linejoin:round;fill-rule:evenodd;"
d="M 79762400.000000,105560100.000000
79767158.000000,105536182.000000
79780706.000000,105515906.000000
79800982.000000,105502358.000000
79824900.000000,105497600.000000
80499900.000000,105497600.000000
80523818.000000,105502358.000000
80544094.000000,105515906.000000
80557642.000000,105536182.000000
80562400.000000,105560100.000000
80562400.000000,105685100.000000
80557642.000000,105709018.000000
80544094.000000,105729294.000000
80523818.000000,105742842.000000
80499900.000000,105747600.000000
79824900.000000,105747600.000000
79800982.000000,105742842.000000
79780706.000000,105729294.000000
79767158.000000,105709018.000000
79762400.000000,105685100.000000
Z" /> 
<path style="fill:#000000; fill-opacity:1.0; 
stroke:#000000; stroke-width:1.000000; stroke-opacity:1; 
stroke-linecap:round; stroke-linejoin:round;fill-rule:evenodd;"
d="M 79762400.000000,106060100.000000
79767158.000000,106036182.000000
79780706.000000,106015906.000000
79800982.000000,106002358.000000
79824900.000000,105997600.000000
80499900.000000,105997600.000000
80523818.000000,106002358.000000
80544094.000000,106015906.000000
80557642.000000,106036182.000000
80562400.000000,106060100.000000
80562400.000000,106185100.000000
80557642.000000,106209018.000000
80544094.000000,106229294.000000
80523818.000000,106242842.000000
80499900.000000,106247600.000000
79824900.000000,106247600.000000
79800982.000000,106242842.000000
79780706.000000,106229294.000000
79767158.000000,106209018.000000
79762400.000000,106185100.000000
Z" /> 
<path style="fill:#000000; fill-opacity:1.0; 
stroke:#000000; stroke-width:1.000000; stroke-opacity:1; 
stroke-linecap:round; stroke-linejoin:round;fill-rule:evenodd;"
d="M 80987400.000000,106735100.000000
80992158.000000,106711182.000000
81005706.000000,106690906.000000
81025982.000000,106677358.000000
81049900.000000,106672600.000000
81174900.000000,106672600.000000
81198818.000000,106677358.000000
81219094.000000,106690906.000000
81232642.000000,106711182.000000
81237400.000000,106735100.000000
81237400.000000,107410100.000000
81232642.000000,107434018.000000
81219094.000000,107454294.000000
81198818.000000,107467842.000000
81174900.000000,107472600.000000
81049900.000000,107472600.000000
81025982.000000,107467842.000000
81005706.000000,107454294.000000
80992158.000000,107434018.000000
80987400.000000,107410100.000000
Z" /> 
<path style="fill:#000000; fill-opacity:1.0; 
stroke:#000000; stroke-width:1.000000; stroke-opacity:1; 
stroke-linecap:round; stroke-linejoin:round;fill-rule:evenodd;"
d="M 81487400.000000,106735100.000000
81492158.000000,106711182.000000
81505706.000000,106690906.000000
81525982.000000,106677358.000000
81549900.000000,106672600.000000
81674900.000000,106672600.000000
81698818.000000,106677358.000000
81719094.000000,106690906.000000
81732642.000000,106711182.000000
81737400.000000,106735100.000000
81737400.000000,107410100.000000
81732642.000000,107434018.000000
81719094.000000,107454294.000000
81698818.000000,107467842.000000
81674900.000000,107472600.000000
81549900.000000,107472600.000000
81525982.000000,107467842.000000
81505706.000000,107454294.000000
81492158.000000,107434018.000000
81487400.000000,107410100.000000
Z" /> 
<path style="fill:#000000; fill-opacity:1.0; 
stroke:#000000; stroke-width:1.000000; stroke-opacity:1; 
stroke-linecap:round; stroke-linejoin:round;fill-rule:evenodd;"
d="M 81987400.000000,106735100.000000
81992158.000000,106711182.000000
82005706.000000,106690906.000000
82025982.000000,106677358.000000
82049900.000000,106672600.000000
82174900.000000,106672600.000000
82198818.000000,106677358.000000
82219094.000000,106690906.000000
82232642.000000,106711182.000000
82237400.000000,106735100.000000
82237400.000000,107410100.000000
82232642.000000,107434018.000000
82219094.000000,107454294.000000
82198818.000000,107467842.000000
82174900.000000,107472600.000000
82049900.000000,107472600.000000
82025982.000000,107467842.000000
82005706.000000,107454294.000000
81992158.000000,107434018.000000
81987400.000000,107410100.000000
Z" /> 
<path style="fill:#000000; fill-opacity:1.0; 
stroke:#000000; stroke-width:1.000000; stroke-opacity:1; 
stroke-linecap:round; stroke-linejoin:round;fill-rule:evenodd;"
d="M 82487400.000000,106735100.000000
82492158.000000,106711182.000000
82505706.000000,106690906.000000
82525982.000000,106677358.000000
82549900.000000,106672600.000000
82674900.000000,106672600.000000
82698818.000000,106677358.000000
82719094.000000,106690906.000000
82732642.000000,106711182.000000
82737400.000000,106735100.000000
82737400.000000,107410100.000000
82732642.000000,107434018.000000
82719094.000000,107454294.000000
82698818.000000,107467842.000000
82674900.000000,107472600.000000
82549900.000000,107472600.000000
82525982.000000,107467842.000000
82505706.000000,107454294.000000
82492158.000000,107434018.000000
82487400.000000,107410100.000000
Z" /> 
<path style="fill:#000000; fill-opacity:1.0; 
stroke:#000000; stroke-width:1.000000; stroke-opacity:1; 
stroke-linecap:round; stroke-linejoin:round;fill-rule:evenodd;"
d="M 82987400.000000,106735100.000000
82992158.000000,106711182.000000
83005706.000000,106690906.000000
83025982.000000,106677358.000000
83049900.000000,106672600.000000
83174900.000000,106672600.000000
83198818.000000,106677358.000000
83219094.000000,106690906.000000
83232642.000000,106711182.000000
83237400.000000,106735100.000000
83237400.000000,107410100.000000
83232642.000000,107434018.000000
83219094.000000,107454294.000000
83198818.000000,107467842.000000
83174900.000000,107472600.000000
83049900.000000,107472600.000000
83025982.000000,107467842.000000
83005706.000000,107454294.000000
82992158.000000,107434018.000000
82987400.000000,107410100.000000
Z" /> 
<path style="fill:#000000; fill-opacity:1.0; 
stroke:#000000; stroke-width:1.000000; stroke-opacity:1; 
stroke-linecap:round; stroke-linejoin:round;fill-rule:evenodd;"
d="M 83487400.000000,106735100.000000
83492158.000000,106711182.000000
83505706.000000,106690906.000000
83525982.000000,106677358.000000
83549900.000000,106672600.000000
83674900.000000,106672600.000000
83698818.000000,106677358.000000
83719094.000000,106690906.000000
83732642.000000,106711182.000000
83737400.000000,106735100.000000
83737400.000000,107410100.000000
83732642.000000,107434018.000000
83719094.000000,107454294.000000
83698818.000000,107467842.000000
83674900.000000,107472600.000000
83549900.000000,107472600.000000
83525982.000000,107467842.000000
83505706.000000,107454294.000000
83492158.000000,107434018.000000
83487400.000000,107410100.000000
Z" /> 
<path style="fill:#000000; fill-opacity:1.0; 
stroke:#000000; stroke-width:1.000000; stroke-opacity:1; 
stroke-linecap:round; stroke-linejoin:round;fill-rule:evenodd;"
d="M 83987400.000000,106735100.000000
83992158.000000,106711182.000000
84005706.000000,106690906.000000
84025982.000000,106677358.000000
84049900.000000,106672600.000000
84174900.000000,106672600.000000
84198818.000000,106677358.000000
84219094.000000,106690906.000000
84232642.000000,106711182.000000
84237400.000000,106735100.000000
84237400.000000,107410100.000000
84232642.000000,107434018.000000
84219094.000000,107454294.000000
84198818.000000,107467842.000000
84174900.000000,107472600.000000
84049900.000000,107472600.000000
84025982.000000,107467842.000000
84005706.000000,107454294.000000
83992158.000000,107434018.000000
83987400.000000,107410100.000000
Z" /> 
<path style="fill:#000000; fill-opacity:1.0; 
stroke:#000000; stroke-width:1.000000; stroke-opacity:1; 
stroke-linecap:round; stroke-linejoin:round;fill-rule:evenodd;"
d="M 84662400.000000,106060100.000000
84667158.000000,106036182.000000
84680706.000000,106015906.000000
84700982.000000,106002358.000000
84724900.000000,105997600.000000
85399900.000000,105997600.000000
85423818.000000,106002358.000000
85444094.000000,106015906.000000
85457642.000000,106036182.000000
85462400.000000,106060100.000000
85462400.000000,106185100.000000
85457642.000000,106209018.000000
85444094.000000,106229294.000000
85423818.000000,106242842.000000
85399900.000000,106247600.000000
84724900.000000,106247600.000000
84700982.000000,106242842.000000
84680706.000000,106229294.000000
84667158.000000,106209018.000000
84662400.000000,106185100.000000
Z" /> 
<path style="fill:#000000; fill-opacity:1.0; 
stroke:#000000; stroke-width:1.000000; stroke-opacity:1; 
stroke-linecap:round; stroke-linejoin:round;fill-rule:evenodd;"
d="M 84662400.000000,105560100.000000
84667158.000000,105536182.000000
84680706.000000,105515906.000000
84700982.000000,105502358.000000
84724900.000000,105497600.000000
85399900.000000,105497600.000000
85423818.000000,105502358.000000
85444094.000000,105515906.000000
85457642.000000,105536182.000000
85462400.000000,105560100.000000
85462400.000000,105685100.000000
85457642.000000,105709018.000000
85444094.000000,105729294.000000
85423818.000000,105742842.000000
85399900.000000,105747600.000000
84724900.000000,105747600.000000
84700982.000000,105742842.000000
84680706.000000,105729294.000000
84667158.000000,105709018.000000
84662400.000000,105685100.000000
Z" /> 
<path style="fill:#000000; fill-opacity:1.0; 
stroke:#000000; stroke-width:1.000000; stroke-opacity:1; 
stroke-linecap:round; stroke-linejoin:round;fill-rule:evenodd;"
d="M 84662400.000000,105060100.000000
84667158.000000,105036182.000000
84680706.000000,105015906.000000
84700982.000000,105002358.000000
84724900.000000,104997600.000000
85399900.000000,104997600.000000
85423818.000000,105002358.000000
85444094.000000,105015906.000000
85457642.000000,105036182.000000
85462400.000000,105060100.000000
85462400.000000,105185100.000000
85457642.000000,105209018.000000
85444094.000000,105229294.000000
85423818.000000,105242842.000000
85399900.000000,105247600.000000
84724900.000000,105247600.000000
84700982.000000,105242842.000000
84680706.000000,105229294.000000
84667158.000000,105209018.000000
84662400.000000,105185100.000000
Z" /> 
<path style="fill:#000000; fill-opacity:1.0; 
stroke:#000000; stroke-width:1.000000; stroke-opacity:1; 
stroke-linecap:round; stroke-linejoin:round;fill-rule:evenodd;"
d="M 84662400.000000,104560100.000000
84667158.000000,104536182.000000
84680706.000000,104515906.000000
84700982.000000,104502358.000000
84724900.000000,104497600.000000
85399900.000000,104497600.000000
85423818.000000,104502358.000000
85444094.000000,104515906.000000
85457642.000000,104536182.000000
85462400.000000,104560100.000000
85462400.000000,104685100.000000
85457642.000000,104709018.000000
85444094.000000,104729294.000000
85423818.000000,104742842.000000
85399900.000000,104747600.000000
84724900.000000,104747600.000000
84700982.000000,104742842.000000
84680706.000000,104729294.000000
84667158.000000,104709018.000000
84662400.000000,104685100.000000
Z" /> 
<path style="fill:#000000; fill-opacity:1.0; 
stroke:#000000; stroke-width:1.000000; stroke-opacity:1; 
stroke-linecap:round; stroke-linejoin:round;fill-rule:evenodd;"
d="M 84662400.000000,104060100.000000
84667158.000000,104036182.000000
84680706.000000,104015906.000000
84700982.000000,104002358.000000
84724900.000000,103997600.000000
85399900.000000,103997600.000000
85423818.000000,104002358.000000
85444094.000000,104015906.000000
85457642.000000,104036182.000000
85462400.000000,104060100.000000
85462400.000000,104185100.000000
85457642.000000,104209018.000000
85444094.000000,104229294.000000
85423818.000000,104242842.000000
85399900.000000,104247600.000000
84724900.000000,104247600.000000
84700982.000000,104242842.000000
84680706.000000,104229294.000000
84667158.000000,104209018.000000
84662400.000000,104185100.000000
Z" /> 
<path style="fill:#000000; fill-opacity:1.0; 
stroke:#000000; stroke-width:1.000000; stroke-opacity:1; 
stroke-linecap:round; stroke-linejoin:round;fill-rule:evenodd;"
d="M 84662400.000000,103560100.000000
84667158.000000,103536182.000000
84680706.000000,103515906.000000
84700982.000000,103502358.000000
84724900.000000,103497600.000000
85399900.000000,103497600.000000
85423818.000000,103502358.000000
85444094.000000,103515906.000000
85457642.000000,103536182.000000
85462400.000000,103560100.000000
85462400.000000,103685100.000000
85457642.000000,103709018.000000
85444094.000000,103729294.000000
85423818.000000,103742842.000000
85399900.000000,103747600.000000
84724900.000000,103747600.000000
84700982.000000,103742842.000000
84680706.000000,103729294.000000
84667158.000000,103709018.000000
84662400.000000,103685100.000000
Z" /> 
<path style="fill:#000000; fill-opacity:1.0; 
stroke:#000000; stroke-width:1.000000; stroke-opacity:1; 
stroke-linecap:round; stroke-linejoin:round;fill-rule:evenodd;"
d="M 84662400.000000,103060100.000000
84667158.000000,103036182.000000
84680706.000000,103015906.000000
84700982.000000,103002358.000000
84724900.000000,102997600.000000
85399900.000000,102997600.000000
85423818.000000,103002358.000000
85444094.000000,103015906.000000
85457642.000000,103036182.000000
85462400.000000,103060100.000000
85462400.000000,103185100.000000
85457642.000000,103209018.000000
85444094.000000,103229294.000000
85423818.000000,103242842.000000
85399900.000000,103247600.000000
84724900.000000,103247600.000000
84700982.000000,103242842.000000
84680706.000000,103229294.000000
84667158.000000,103209018.000000
84662400.000000,103185100.000000
Z" /> 
<path style="fill:#000000; fill-opacity:1.0; 
stroke:#000000; stroke-width:1.000000; stroke-opacity:1; 
stroke-linecap:round; stroke-linejoin:round;fill-rule:evenodd;"
d="M 83987400.000000,101835100.000000
83992158.000000,101811182.000000
84005706.000000,101790906.000000
84025982.000000,101777358.000000
84049900.000000,101772600.000000
84174900.000000,101772600.000000
84198818.000000,101777358.000000
84219094.000000,101790906.000000
84232642.000000,101811182.000000
84237400.000000,101835100.000000
84237400.000000,102510100.000000
84232642.000000,102534018.000000
84219094.000000,102554294.000000
84198818.000000,102567842.000000
84174900.000000,102572600.000000
84049900.000000,102572600.000000
84025982.000000,102567842.000000
84005706.000000,102554294.000000
83992158.000000,102534018.000000
83987400.000000,102510100.000000
Z" /> 
<path style="fill:#000000; fill-opacity:1.0; 
stroke:#000000; stroke-width:1.000000; stroke-opacity:1; 
stroke-linecap:round; stroke-linejoin:round;fill-rule:evenodd;"
d="M 83487400.000000,101835100.000000
83492158.000000,101811182.000000
83505706.000000,101790906.000000
83525982.000000,101777358.000000
83549900.000000,101772600.000000
83674900.000000,101772600.000000
83698818.000000,101777358.000000
83719094.000000,101790906.000000
83732642.000000,101811182.000000
83737400.000000,101835100.000000
83737400.000000,102510100.000000
83732642.000000,102534018.000000
83719094.000000,102554294.000000
83698818.000000,102567842.000000
83674900.000000,102572600.000000
83549900.000000,102572600.000000
83525982.000000,102567842.000000
83505706.000000,102554294.000000
83492158.000000,102534018.000000
83487400.000000,102510100.000000
Z" /> 
<path style="fill:#000000; fill-opacity:1.0; 
stroke:#000000; stroke-width:1.000000; stroke-opacity:1; 
stroke-linecap:round; stroke-linejoin:round;fill-rule:evenodd;"
d="M 82987400.000000,101835100.000000
82992158.000000,101811182.000000
83005706.000000,101790906.000000
83025982.000000,101777358.000000
83049900.000000,101772600.000000
83174900.000000,101772600.000000
83198818.000000,101777358.000000
83219094.000000,101790906.000000
83232642.000000,101811182.000000
83237400.000000,101835100.000000
83237400.000000,102510100.000000
83232642.000000,102534018.000000
83219094.000000,102554294.000000
83198818.000000,102567842.000000
83174900.000000,102572600.000000
83049900.000000,102572600.000000
83025982.000000,102567842.000000
83005706.000000,102554294.000000
82992158.000000,102534018.000000
82987400.000000,102510100.000000
Z" /> 
<path style="fill:#000000; fill-opacity:1.0; 
stroke:#000000; stroke-width:1.000000; stroke-opacity:1; 
stroke-linecap:round; stroke-linejoin:round;fill-rule:evenodd;"
d="M 82487400.000000,101835100.000000
82492158.000000,101811182.000000
82505706.000000,101790906.000000
82525982.000000,101777358.000000
82549900.000000,101772600.000000
82674900.000000,101772600.000000
82698818.000000,101777358.000000
82719094.000000,101790906.000000
82732642.000000,101811182.000000
82737400.000000,101835100.000000
82737400.000000,102510100.000000
82732642.000000,102534018.000000
82719094.000000,102554294.000000
82698818.000000,102567842.000000
82674900.000000,102572600.000000
82549900.000000,102572600.000000
82525982.000000,102567842.000000
82505706.000000,102554294.000000
82492158.000000,102534018.000000
82487400.000000,102510100.000000
Z" /> 
<path style="fill:#000000; fill-opacity:1.0; 
stroke:#000000; stroke-width:1.000000; stroke-opacity:1; 
stroke-linecap:round; stroke-linejoin:round;fill-rule:evenodd;"
d="M 81987400.000000,101835100.000000
81992158.000000,101811182.000000
82005706.000000,101790906.000000
82025982.000000,101777358.000000
82049900.000000,101772600.000000
82174900.000000,101772600.000000
82198818.000000,101777358.000000
82219094.000000,101790906.000000
82232642.000000,101811182.000000
82237400.000000,101835100.000000
82237400.000000,102510100.000000
82232642.000000,102534018.000000
82219094.000000,102554294.000000
82198818.000000,102567842.000000
82174900.000000,102572600.000000
82049900.000000,102572600.000000
82025982.000000,102567842.000000
82005706.000000,102554294.000000
81992158.000000,102534018.000000
81987400.000000,102510100.000000
Z" /> 
<path style="fill:#000000; fill-opacity:1.0; 
stroke:#000000; stroke-width:1.000000; stroke-opacity:1; 
stroke-linecap:round; stroke-linejoin:round;fill-rule:evenodd;"
d="M 81487400.000000,101835100.000000
81492158.000000,101811182.000000
81505706.000000,101790906.000000
81525982.000000,101777358.000000
81549900.000000,101772600.000000
81674900.000000,101772600.000000
81698818.000000,101777358.000000
81719094.000000,101790906.000000
81732642.000000,101811182.000000
81737400.000000,101835100.000000
81737400.000000,102510100.000000
81732642.000000,102534018.000000
81719094.000000,102554294.000000
81698818.000000,102567842.000000
81674900.000000,102572600.000000
81549900.000000,102572600.000000
81525982.000000,102567842.000000
81505706.000000,102554294.000000
81492158.000000,102534018.000000
81487400.000000,102510100.000000
Z" /> 
<path style="fill:#000000; fill-opacity:1.0; 
stroke:#000000; stroke-width:1.000000; stroke-opacity:1; 
stroke-linecap:round; stroke-linejoin:round;fill-rule:evenodd;"
d="M 80987400.000000,101835100.000000
80992158.000000,101811182.000000
81005706.000000,101790906.000000
81025982.000000,101777358.000000
81049900.000000,101772600.000000
81174900.000000,101772600.000000
81198818.000000,101777358.000000
81219094.000000,101790906.000000
81232642.000000,101811182.000000
81237400.000000,101835100.000000
81237400.000000,102510100.000000
81232642.000000,102534018.000000
81219094.000000,102554294.000000
81198818.000000,102567842.000000
81174900.000000,102572600.000000
81049900.000000,102572600.000000
81025982.000000,102567842.000000
81005706.000000,102554294.000000
80992158.000000,102534018.000000
80987400.000000,102510100.000000
Z" /> 
</g>
<g >
</g>
<g >
</g>
<g >
</g>
<g >
</g>
<g >
</g>
<g style="fill:#000000; fill-opacity:1.0; 
stroke:#000000; stroke-width:1.000000; stroke-opacity:1; 
stroke-linecap:round; stroke-linejoin:round;">
<path style="fill:#000000; fill-opacity:1.0; 
stroke:#000000; stroke-width:1.000000; stroke-opacity:1; 
stroke-linecap:round; stroke-linejoin:round;fill-rule:evenodd;"
d="M 79378000.000000,117788700.000000
79359921.000000,117879587.000000
79308438.000000,117956638.000000
79231387.000000,118008121.000000
79140500.000000,118026200.000000
78640500.000000,118026200.000000
78549613.000000,118008121.000000
78472562.000000,117956638.000000
78421079.000000,117879587.000000
78403000.000000,117788700.000000
78403000.000000,117313700.000000
78421079.000000,117222813.000000
78472562.000000,117145762.000000
78549613.000000,117094279.000000
78640500.000000,117076200.000000
79140500.000000,117076200.000000
79231387.000000,117094279.000000
79308438.000000,117145762.000000
79359921.000000,117222813.000000
79378000.000000,117313700.000000
Z" /> 
<path style="fill:#000000; fill-opacity:1.0; 
stroke:#000000; stroke-width:1.000000; stroke-opacity:1; 
stroke-linecap:round; stroke-linejoin:round;fill-rule:evenodd;"
d="M 77553000.000000,117788700.000000
77534921.000000,117879587.000000
77483438.000000,117956638.000000
77406387.000000,118008121.000000
77315500.000000,118026200.000000
76815500.000000,118026200.000000
76724613.000000,118008121.000000
76647562.000000,117956638.000000
76596079.000000,117879587.000000
76578000.000000,117788700.000000
76578000.000000,117313700.000000
76596079.000000,117222813.000000
76647562.000000,117145762.000000
76724613.000000,117094279.000000
76815500.000000,117076200.000000
77315500.000000,117076200.000000
77406387.000000,117094279.000000
77483438.000000,117145762.000000
77534921.000000,117222813.000000
77553000.000000,117313700.000000
Z" /> 
</g>
<g >
</g>
<g >
</g>
<g style="fill:#000000; fill-opacity:1.0; 
stroke:#000000; stroke-width:1.000000; stroke-opacity:1; 
stroke-linecap:round; stroke-linejoin:round;">
<path style="fill:#000000; fill-opacity:1.0; 
stroke:#000000; stroke-width:1.000000; stroke-opacity:1; 
stroke-linecap:round; stroke-linejoin:round;fill-rule:evenodd;"
d="M 87849700.000000,112931400.000000
87758813.000000,112913321.000000
87681762.000000,112861838.000000
87630279.000000,112784787.000000
87612200.000000,112693900.000000
87612200.000000,112193900.000000
87630279.000000,112103013.000000
87681762.000000,112025962.000000
87758813.000000,111974479.000000
87849700.000000,111956400.000000
88324700.000000,111956400.000000
88415587.000000,111974479.000000
88492638.000000,112025962.000000
88544121.000000,112103013.000000
88562200.000000,112193900.000000
88562200.000000,112693900.000000
88544121.000000,112784787.000000
88492638.000000,112861838.000000
88415587.000000,112913321.000000
88324700.000000,112931400.000000
Z" /> 
<path style="fill:#000000; fill-opacity:1.0; 
stroke:#000000; stroke-width:1.000000; stroke-opacity:1; 
stroke-linecap:round; stroke-linejoin:round;fill-rule:evenodd;"
d="M 87849700.000000,111106400.000000
87758813.000000,111088321.000000
87681762.000000,111036838.000000
87630279.000000,110959787.000000
87612200.000000,110868900.000000
87612200.000000,110368900.000000
87630279.000000,110278013.000000
87681762.000000,110200962.000000
87758813.000000,110149479.000000
87849700.000000,110131400.000000
88324700.000000,110131400.000000
88415587.000000,110149479.000000
88492638.000000,110200962.000000
88544121.000000,110278013.000000
88562200.000000,110368900.000000
88562200.000000,110868900.000000
88544121.000000,110959787.000000
88492638.000000,111036838.000000
88415587.000000,111088321.000000
88324700.000000,111106400.000000
Z" /> 
</g>
<g >
</g>
<g >
</g>
<g style="fill:#000000; fill-opacity:1.0; 
stroke:#000000; stroke-width:1.000000; stroke-opacity:1; 
stroke-linecap:round; stroke-linejoin:round;">
<path style="fill:#000000; fill-opacity:1.0; 
stroke:#000000; stroke-width:1.000000; stroke-opacity:1; 
stroke-linecap:round; stroke-linejoin:round;fill-rule:evenodd;"
d="M 81683700.000000,109557200.000000
81774587.000000,109575279.000000
81851638.000000,109626762.000000
81903121.000000,109703813.000000
81921200.000000,109794700.000000
81921200.000000,110294700.000000
81903121.000000,110385587.000000
81851638.000000,110462638.000000
81774587.000000,110514121.000000
81683700.000000,110532200.000000
81208700.000000,110532200.000000
81117813.000000,110514121.000000
81040762.000000,110462638.000000
80989279.000000,110385587.000000
80971200.000000,110294700.000000
80971200.000000,109794700.000000
80989279.000000,109703813.000000
81040762.000000,109626762.000000
81117813.000000,109575279.000000
81208700.000000,109557200.000000
Z" /> 
<path style="fill:#000000; fill-opacity:1.0; 
stroke:#000000; stroke-width:1.000000; stroke-opacity:1; 
stroke-linecap:round; stroke-linejoin:round;fill-rule:evenodd;"
d="M 81683700.000000,111382200.000000
81774587.000000,111400279.000000
81851638.000000,111451762.000000
81903121.000000,111528813.000000
81921200.000000,111619700.000000
81921200.000000,112119700.000000
81903121.000000,112210587.000000
81851638.000000,112287638.000000
81774587.000000,112339121.000000
81683700.000000,112357200.000000
81208700.000000,112357200.000000
81117813.000000,112339121.000000
81040762.000000,112287638.000000
80989279.000000,112210587.000000
80971200.000000,112119700.000000
80971200.000000,111619700.000000
80989279.000000,111528813.000000
81040762.000000,111451762.000000
81117813.000000,111400279.000000
81208700.000000,111382200.000000
Z" /> 
</g>
<g >
</g>
<g style="fill:#000000; fill-opacity:1.0; 
stroke:#000000; stroke-width:1.000000; stroke-opacity:1; 
stroke-linecap:round; stroke-linejoin:round;">
<path style="fill:#000000; fill-opacity:1.0; 
stroke:#000000; stroke-width:1.000000; stroke-opacity:1; 
stroke-linecap:round; stroke-linejoin:round;fill-rule:evenodd;"
d="M 92826799.000000,105326601.000000
92826799.000000,105726599.000000
92176801.000000,105726599.000000
92176801.000000,105326601.000000
Z" /> 
<path style="fill:#000000; fill-opacity:1.0; 
stroke:#000000; stroke-width:1.000000; stroke-opacity:1; 
stroke-linecap:round; stroke-linejoin:round;fill-rule:evenodd;"
d="M 92826799.000000,104676601.000000
92826799.000000,105076599.000000
92176801.000000,105076599.000000
92176801.000000,104676601.000000
Z" /> 
<path style="fill:#000000; fill-opacity:1.0; 
stroke:#000000; stroke-width:1.000000; stroke-opacity:1; 
stroke-linecap:round; stroke-linejoin:round;fill-rule:evenodd;"
d="M 92826799.000000,104026601.000000
92826799.000000,104426599.000000
92176801.000000,104426599.000000
92176801.000000,104026601.000000
Z" /> 
<path style="fill:#000000; fill-opacity:1.0; 
stroke:#000000; stroke-width:1.000000; stroke-opacity:1; 
stroke-linecap:round; stroke-linejoin:round;fill-rule:evenodd;"
d="M 90926799.000000,104026601.000000
90926799.000000,104426599.000000
90276801.000000,104426599.000000
90276801.000000,104026601.000000
Z" /> 
<path style="fill:#000000; fill-opacity:1.0; 
stroke:#000000; stroke-width:1.000000; stroke-opacity:1; 
stroke-linecap:round; stroke-linejoin:round;fill-rule:evenodd;"
d="M 90926799.000000,104676601.000000
90926799.000000,105076599.000000
90276801.000000,105076599.000000
90276801.000000,104676601.000000
Z" /> 
<path style="fill:#000000; fill-opacity:1.0; 
stroke:#000000; stroke-width:1.000000; stroke-opacity:1; 
stroke-linecap:round; stroke-linejoin:round;fill-rule:evenodd;"
d="M 90926799.000000,105326601.000000
90926799.000000,105726599.000000
90276801.000000,105726599.000000
90276801.000000,105326601.000000
Z" /> 
</g>
<g >
</g>
<g style="fill:#000000; fill-opacity:1.0; 
stroke:#000000; stroke-width:1.000000; stroke-opacity:1; 
stroke-linecap:round; stroke-linejoin:round;">
<path style="fill:#000000; fill-opacity:1.0; 
stroke:#000000; stroke-width:1.000000; stroke-opacity:1; 
stroke-linecap:round; stroke-linejoin:round;fill-rule:evenodd;"
d="M 76553700.000000,115281700.000000
76571779.000000,115190813.000000
76623262.000000,115113762.000000
76700313.000000,115062279.000000
76791200.000000,115044200.000000
77391200.000000,115044200.000000
77482087.000000,115062279.000000
77559138.000000,115113762.000000
77610621.000000,115190813.000000
77628700.000000,115281700.000000
77628700.000000,115756700.000000
77610621.000000,115847587.000000
77559138.000000,115924638.000000
77482087.000000,115976121.000000
77391200.000000,115994200.000000
76791200.000000,115994200.000000
76700313.000000,115976121.000000
76623262.000000,115924638.000000
76571779.000000,115847587.000000
76553700.000000,115756700.000000
Z" /> 
<path style="fill:#000000; fill-opacity:1.0; 
stroke:#000000; stroke-width:1.000000; stroke-opacity:1; 
stroke-linecap:round; stroke-linejoin:round;fill-rule:evenodd;"
d="M 78278700.000000,115281700.000000
78296779.000000,115190813.000000
78348262.000000,115113762.000000
78425313.000000,115062279.000000
78516200.000000,115044200.000000
79116200.000000,115044200.000000
79207087.000000,115062279.000000
79284138.000000,115113762.000000
79335621.000000,115190813.000000
79353700.000000,115281700.000000
79353700.000000,115756700.000000
79335621.000000,115847587.000000
79284138.000000,115924638.000000
79207087.000000,115976121.000000
79116200.000000,115994200.000000
78516200.000000,115994200.000000
78425313.000000,115976121.000000
78348262.000000,115924638.000000
78296779.000000,115847587.000000
78278700.000000,115756700.000000
Z" /> 
</g>
<g >
</g>
<g >
</g>
<g >
</g>
<g >
</g>
<g >
</g>
</g> 
</svg>
