  0
SECTION
  2
HEADER
  9
$ANGBASE
  50
0.0
  9
$ANGDIR
  70
1
  9
$MEASUREMENT
  70
0
  0
ENDSEC
  0
SECTION
  2
TABLES
  0
TABLE
  2
LTYPE
  70
4
  0
LTYPE
  5
40F
  2
CONTINUOUS
  70
0
  3
Solid line
  72
65
  73
0
  40
0.0
  0
LTYPE
  5
410
  2
DASHDOT
 70
0
  3
Dash Dot ____ _ ____ _
 72
65
 73
4
 40
2.0
 49
1.25
 49
-0.25
 49
0.25
 49
-0.25
  0
LTYPE
  5
411
  2
DASHED
 70
0
  3
Dashed __ __ __ __ __
 72
65
 73
2
 40
0.75
 49
0.5
 49
-0.25
  0
LTYPE
  5
43B
  2
DOTTED
 70
0
  3
Dotted .  .  .  .
 72
65
 73
2
 40
0.2
 49
0.0
 49
-0.2
  0
ENDTAB
  0
TABLE
  2
STYLE
  70
4
  0
STYLE
  2
KICAD
  70
0
  40
0
  41
1
  42
1
  50
0
  71
0
  3
isocp.shx
  0
STYLE
  2
KICADB
  70
0
  40
0
  41
1
  42
1
  50
0
  71
0
  3
isocp.shx
  0
STYLE
  2
KICADI
  70
0
  40
0
  41
1
  42
1
  50
15
  71
0
  3
isocp.shx
  0
STYLE
  2
KICADBI
  70
0
  40
0
  41
1
  42
1
  50
15
  71
0
  3
isocp.shx
  0
ENDTAB
  0
TABLE
  2
LAYER
  70
1
  0
LAYER
  2
BLACK
  70
0
  62
7
  6
CONTINUOUS
  0
ENDTAB
  0
ENDSEC
  0
SECTION
  2
ENTITIES
0
LINE
8
BLACK
6
CONTINUOUS
10
4.72479
20
-3.79111
11
4.72492
21
-3.79109
0
LINE
8
BLACK
6
CONTINUOUS
10
4.72492
20
-3.79109
11
4.72504
21
-3.79116
0
LINE
8
BLACK
6
CONTINUOUS
10
4.72504
20
-3.79116
11
4.72542
21
-3.79123
0
LINE
8
BLACK
6
CONTINUOUS
10
4.72542
20
-3.79123
11
4.72601
21
-3.79172
0
LINE
8
BLACK
6
CONTINUOUS
10
4.72601
20
-3.79172
11
4.72667
21
-3.7921
0
LINE
8
BLACK
6
CONTINUOUS
10
4.72667
20
-3.7921
11
4.72676
21
-3.79235
0
LINE
8
BLACK
6
CONTINUOUS
10
4.72676
20
-3.79235
11
4.72697
21
-3.79252
0
LINE
8
BLACK
6
CONTINUOUS
10
4.72697
20
-3.79252
11
4.7271
21
-3.79328
0
LINE
8
BLACK
6
CONTINUOUS
10
4.7271
20
-3.79328
11
4.72736
21
-3.794
0
LINE
8
BLACK
6
CONTINUOUS
10
4.72736
20
-3.794
11
4.72736
21
-6.726
0
LINE
8
BLACK
6
CONTINUOUS
10
4.72736
20
-6.726
11
4.72729
21
-6.72638
0
LINE
8
BLACK
6
CONTINUOUS
10
4.72729
20
-6.72638
11
4.72732
21
-6.72651
0
LINE
8
BLACK
6
CONTINUOUS
10
4.72732
20
-6.72651
11
4.72725
21
-6.72663
0
LINE
8
BLACK
6
CONTINUOUS
10
4.72725
20
-6.72663
11
4.72718
21
-6.72701
0
LINE
8
BLACK
6
CONTINUOUS
10
4.72718
20
-6.72701
11
4.72669
21
-6.7276
0
LINE
8
BLACK
6
CONTINUOUS
10
4.72669
20
-6.7276
11
4.72631
21
-6.72826
0
LINE
8
BLACK
6
CONTINUOUS
10
4.72631
20
-6.72826
11
4.72606
21
-6.72835
0
LINE
8
BLACK
6
CONTINUOUS
10
4.72606
20
-6.72835
11
4.72589
21
-6.72856
0
LINE
8
BLACK
6
CONTINUOUS
10
4.72589
20
-6.72856
11
4.72513
21
-6.72869
0
LINE
8
BLACK
6
CONTINUOUS
10
4.72513
20
-6.72869
11
4.72441
21
-6.72895
0
LINE
8
BLACK
6
CONTINUOUS
10
4.72441
20
-6.72895
11
2.30315
21
-6.72895
0
LINE
8
BLACK
6
CONTINUOUS
10
2.30315
20
-6.72895
11
2.30277
21
-6.72889
0
LINE
8
BLACK
6
CONTINUOUS
10
2.30277
20
-6.72889
11
2.30264
21
-6.72891
0
LINE
8
BLACK
6
CONTINUOUS
10
2.30264
20
-6.72891
11
2.30252
21
-6.72884
0
LINE
8
BLACK
6
CONTINUOUS
10
2.30252
20
-6.72884
11
2.30214
21
-6.72877
0
LINE
8
BLACK
6
CONTINUOUS
10
2.30214
20
-6.72877
11
2.30155
21
-6.72828
0
LINE
8
BLACK
6
CONTINUOUS
10
2.30155
20
-6.72828
11
2.30089
21
-6.7279
0
LINE
8
BLACK
6
CONTINUOUS
10
2.30089
20
-6.7279
11
2.3008
21
-6.72765
0
LINE
8
BLACK
6
CONTINUOUS
10
2.3008
20
-6.72765
11
2.30059
21
-6.72748
0
LINE
8
BLACK
6
CONTINUOUS
10
2.30059
20
-6.72748
11
2.30046
21
-6.72672
0
LINE
8
BLACK
6
CONTINUOUS
10
2.30046
20
-6.72672
11
2.3002
21
-6.726
0
LINE
8
BLACK
6
CONTINUOUS
10
2.3002
20
-6.726
11
2.3002
21
-3.794
0
LINE
8
BLACK
6
CONTINUOUS
10
2.3002
20
-3.794
11
2.30026
21
-3.79362
0
LINE
8
BLACK
6
CONTINUOUS
10
2.30026
20
-3.79362
11
2.30024
21
-3.79349
0
LINE
8
BLACK
6
CONTINUOUS
10
2.30024
20
-3.79349
11
2.30031
21
-3.79337
0
LINE
8
BLACK
6
CONTINUOUS
10
2.30031
20
-3.79337
11
2.30037
21
-3.79299
0
LINE
8
BLACK
6
CONTINUOUS
10
2.30037
20
-3.79299
11
2.30087
21
-3.7924
0
LINE
8
BLACK
6
CONTINUOUS
10
2.30087
20
-3.7924
11
2.30125
21
-3.79174
0
LINE
8
BLACK
6
CONTINUOUS
10
2.30125
20
-3.79174
11
2.3015
21
-3.79165
0
LINE
8
BLACK
6
CONTINUOUS
10
2.3015
20
-3.79165
11
2.30167
21
-3.79144
0
LINE
8
BLACK
6
CONTINUOUS
10
2.30167
20
-3.79144
11
2.30243
21
-3.79131
0
LINE
8
BLACK
6
CONTINUOUS
10
2.30243
20
-3.79131
11
2.30315
21
-3.79105
0
LINE
8
BLACK
6
CONTINUOUS
10
2.30315
20
-3.79105
11
4.72441
21
-3.79105
0
LINE
8
BLACK
6
CONTINUOUS
10
4.72441
20
-3.79105
11
4.72479
21
-3.79111
0
LINE
8
BLACK
6
CONTINUOUS
10
2.3061
20
-3.79695
11
2.3061
21
-6.72305
0
LINE
8
BLACK
6
CONTINUOUS
10
2.3061
20
-6.72305
11
4.72146
21
-6.72305
0
LINE
8
BLACK
6
CONTINUOUS
10
4.72146
20
-6.72305
11
4.72146
21
-3.79695
0
LINE
8
BLACK
6
CONTINUOUS
10
4.72146
20
-3.79695
11
2.3061
21
-3.79695
0
LINE
8
BLACK
6
CONTINUOUS
10
4.72479
20
-3.79111
11
4.72492
21
-3.79109
0
LINE
8
BLACK
6
CONTINUOUS
10
4.72492
20
-3.79109
11
4.72504
21
-3.79116
0
LINE
8
BLACK
6
CONTINUOUS
10
4.72504
20
-3.79116
11
4.72542
21
-3.79123
0
LINE
8
BLACK
6
CONTINUOUS
10
4.72542
20
-3.79123
11
4.72601
21
-3.79172
0
LINE
8
BLACK
6
CONTINUOUS
10
4.72601
20
-3.79172
11
4.72667
21
-3.7921
0
LINE
8
BLACK
6
CONTINUOUS
10
4.72667
20
-3.7921
11
4.72676
21
-3.79235
0
LINE
8
BLACK
6
CONTINUOUS
10
4.72676
20
-3.79235
11
4.72697
21
-3.79252
0
LINE
8
BLACK
6
CONTINUOUS
10
4.72697
20
-3.79252
11
4.7271
21
-3.79328
0
LINE
8
BLACK
6
CONTINUOUS
10
4.7271
20
-3.79328
11
4.72736
21
-3.794
0
LINE
8
BLACK
6
CONTINUOUS
10
4.72736
20
-3.794
11
4.72736
21
-6.726
0
LINE
8
BLACK
6
CONTINUOUS
10
4.72736
20
-6.726
11
4.72729
21
-6.72638
0
LINE
8
BLACK
6
CONTINUOUS
10
4.72729
20
-6.72638
11
4.72732
21
-6.72651
0
LINE
8
BLACK
6
CONTINUOUS
10
4.72732
20
-6.72651
11
4.72725
21
-6.72663
0
LINE
8
BLACK
6
CONTINUOUS
10
4.72725
20
-6.72663
11
4.72718
21
-6.72701
0
LINE
8
BLACK
6
CONTINUOUS
10
4.72718
20
-6.72701
11
4.72669
21
-6.7276
0
LINE
8
BLACK
6
CONTINUOUS
10
4.72669
20
-6.7276
11
4.72631
21
-6.72826
0
LINE
8
BLACK
6
CONTINUOUS
10
4.72631
20
-6.72826
11
4.72606
21
-6.72835
0
LINE
8
BLACK
6
CONTINUOUS
10
4.72606
20
-6.72835
11
4.72589
21
-6.72856
0
LINE
8
BLACK
6
CONTINUOUS
10
4.72589
20
-6.72856
11
4.72513
21
-6.72869
0
LINE
8
BLACK
6
CONTINUOUS
10
4.72513
20
-6.72869
11
4.72441
21
-6.72895
0
LINE
8
BLACK
6
CONTINUOUS
10
4.72441
20
-6.72895
11
2.30315
21
-6.72895
0
LINE
8
BLACK
6
CONTINUOUS
10
2.30315
20
-6.72895
11
2.30277
21
-6.72889
0
LINE
8
BLACK
6
CONTINUOUS
10
2.30277
20
-6.72889
11
2.30264
21
-6.72891
0
LINE
8
BLACK
6
CONTINUOUS
10
2.30264
20
-6.72891
11
2.30252
21
-6.72884
0
LINE
8
BLACK
6
CONTINUOUS
10
2.30252
20
-6.72884
11
2.30214
21
-6.72877
0
LINE
8
BLACK
6
CONTINUOUS
10
2.30214
20
-6.72877
11
2.30155
21
-6.72828
0
LINE
8
BLACK
6
CONTINUOUS
10
2.30155
20
-6.72828
11
2.30089
21
-6.7279
0
LINE
8
BLACK
6
CONTINUOUS
10
2.30089
20
-6.7279
11
2.3008
21
-6.72765
0
LINE
8
BLACK
6
CONTINUOUS
10
2.3008
20
-6.72765
11
2.30059
21
-6.72748
0
LINE
8
BLACK
6
CONTINUOUS
10
2.30059
20
-6.72748
11
2.30046
21
-6.72672
0
LINE
8
BLACK
6
CONTINUOUS
10
2.30046
20
-6.72672
11
2.3002
21
-6.726
0
LINE
8
BLACK
6
CONTINUOUS
10
2.3002
20
-6.726
11
2.3002
21
-3.794
0
LINE
8
BLACK
6
CONTINUOUS
10
2.3002
20
-3.794
11
2.30026
21
-3.79362
0
LINE
8
BLACK
6
CONTINUOUS
10
2.30026
20
-3.79362
11
2.30024
21
-3.79349
0
LINE
8
BLACK
6
CONTINUOUS
10
2.30024
20
-3.79349
11
2.30031
21
-3.79337
0
LINE
8
BLACK
6
CONTINUOUS
10
2.30031
20
-3.79337
11
2.30037
21
-3.79299
0
LINE
8
BLACK
6
CONTINUOUS
10
2.30037
20
-3.79299
11
2.30087
21
-3.7924
0
LINE
8
BLACK
6
CONTINUOUS
10
2.30087
20
-3.7924
11
2.30125
21
-3.79174
0
LINE
8
BLACK
6
CONTINUOUS
10
2.30125
20
-3.79174
11
2.3015
21
-3.79165
0
LINE
8
BLACK
6
CONTINUOUS
10
2.3015
20
-3.79165
11
2.30167
21
-3.79144
0
LINE
8
BLACK
6
CONTINUOUS
10
2.30167
20
-3.79144
11
2.30243
21
-3.79131
0
LINE
8
BLACK
6
CONTINUOUS
10
2.30243
20
-3.79131
11
2.30315
21
-3.79105
0
LINE
8
BLACK
6
CONTINUOUS
10
2.30315
20
-3.79105
11
4.72441
21
-3.79105
0
LINE
8
BLACK
6
CONTINUOUS
10
4.72441
20
-3.79105
11
4.72479
21
-3.79111
0
LINE
8
BLACK
6
CONTINUOUS
10
2.3061
20
-3.79695
11
2.3061
21
-6.72305
0
LINE
8
BLACK
6
CONTINUOUS
10
2.3061
20
-6.72305
11
4.72146
21
-6.72305
0
LINE
8
BLACK
6
CONTINUOUS
10
4.72146
20
-6.72305
11
4.72146
21
-3.79695
0
LINE
8
BLACK
6
CONTINUOUS
10
4.72146
20
-3.79695
11
2.3061
21
-3.79695
  0
ENDSEC
  0
EOF
