  0
SECTION
  2
HEADER
  9
$ANGBASE
  50
0.0
  9
$ANGDIR
  70
1
  9
$MEASUREMENT
  70
0
  0
ENDSEC
  0
SECTION
  2
TABLES
  0
TABLE
  2
LTYPE
  70
4
  0
LTYPE
  5
40F
  2
CONTINUOUS
  70
0
  3
Solid line
  72
65
  73
0
  40
0.0
  0
LTYPE
  5
410
  2
DASHDOT
 70
0
  3
Dash Dot ____ _ ____ _
 72
65
 73
4
 40
2.0
 49
1.25
 49
-0.25
 49
0.25
 49
-0.25
  0
LTYPE
  5
411
  2
DASHED
 70
0
  3
Dashed __ __ __ __ __
 72
65
 73
2
 40
0.75
 49
0.5
 49
-0.25
  0
LTYPE
  5
43B
  2
DOTTED
 70
0
  3
Dotted .  .  .  .
 72
65
 73
2
 40
0.2
 49
0.0
 49
-0.2
  0
ENDTAB
  0
TABLE
  2
STYLE
  70
4
  0
STYLE
  2
KICAD
  70
0
  40
0
  41
1
  42
1
  50
0
  71
0
  3
isocp.shx
  0
STYLE
  2
KICADB
  70
0
  40
0
  41
1
  42
1
  50
0
  71
0
  3
isocp.shx
  0
STYLE
  2
KICADI
  70
0
  40
0
  41
1
  42
1
  50
15
  71
0
  3
isocp.shx
  0
STYLE
  2
KICADBI
  70
0
  40
0
  41
1
  42
1
  50
15
  71
0
  3
isocp.shx
  0
ENDTAB
  0
TABLE
  2
LAYER
  70
1
  0
LAYER
  2
BLACK
  70
0
  62
7
  6
CONTINUOUS
  0
ENDTAB
  0
ENDSEC
  0
SECTION
  2
ENTITIES
0
LINE
8
BLACK
6
CONTINUOUS
10
3.44473
20
-6.02651
11
3.38666
21
-6.02651
0
LINE
8
BLACK
6
CONTINUOUS
10
3.38666
20
-6.02651
11
3.38666
21
-6.0088
0
LINE
8
BLACK
6
CONTINUOUS
10
3.38666
20
-6.0088
11
3.44473
21
-6.0088
0
LINE
8
BLACK
6
CONTINUOUS
10
3.44473
20
-6.0088
11
3.44473
21
-6.02651
0
LINE
8
BLACK
6
CONTINUOUS
10
3.21339
20
-6.02651
11
3.15532
21
-6.02651
0
LINE
8
BLACK
6
CONTINUOUS
10
3.15532
20
-6.02651
11
3.15532
21
-6.0088
0
LINE
8
BLACK
6
CONTINUOUS
10
3.15532
20
-6.0088
11
3.21339
21
-6.0088
0
LINE
8
BLACK
6
CONTINUOUS
10
3.21339
20
-6.0088
11
3.21339
21
-6.02651
0
LINE
8
BLACK
6
CONTINUOUS
10
3.44473
20
-6.00092
11
3.38666
21
-6.00092
0
LINE
8
BLACK
6
CONTINUOUS
10
3.38666
20
-6.00092
11
3.38666
21
-5.9832
0
LINE
8
BLACK
6
CONTINUOUS
10
3.38666
20
-5.9832
11
3.44473
21
-5.9832
0
LINE
8
BLACK
6
CONTINUOUS
10
3.44473
20
-5.9832
11
3.44473
21
-6.00092
0
LINE
8
BLACK
6
CONTINUOUS
10
3.21339
20
-6.00092
11
3.15532
21
-6.00092
0
LINE
8
BLACK
6
CONTINUOUS
10
3.15532
20
-6.00092
11
3.15532
21
-5.9832
0
LINE
8
BLACK
6
CONTINUOUS
10
3.15532
20
-5.9832
11
3.21339
21
-5.9832
0
LINE
8
BLACK
6
CONTINUOUS
10
3.21339
20
-5.9832
11
3.21339
21
-6.00092
0
LINE
8
BLACK
6
CONTINUOUS
10
3.21339
20
-5.97533
11
3.15532
21
-5.97533
0
LINE
8
BLACK
6
CONTINUOUS
10
3.15532
20
-5.97533
11
3.15532
21
-5.95761
0
LINE
8
BLACK
6
CONTINUOUS
10
3.15532
20
-5.95761
11
3.21339
21
-5.95761
0
LINE
8
BLACK
6
CONTINUOUS
10
3.21339
20
-5.95761
11
3.21339
21
-5.97533
0
LINE
8
BLACK
6
CONTINUOUS
10
3.44473
20
-5.97533
11
3.38666
21
-5.97533
0
LINE
8
BLACK
6
CONTINUOUS
10
3.38666
20
-5.97533
11
3.38666
21
-5.95761
0
LINE
8
BLACK
6
CONTINUOUS
10
3.38666
20
-5.95761
11
3.44473
21
-5.95761
0
LINE
8
BLACK
6
CONTINUOUS
10
3.44473
20
-5.95761
11
3.44473
21
-5.97533
0
LINE
8
BLACK
6
CONTINUOUS
10
3.21339
20
-5.94974
11
3.15532
21
-5.94974
0
LINE
8
BLACK
6
CONTINUOUS
10
3.15532
20
-5.94974
11
3.15532
21
-5.93202
0
LINE
8
BLACK
6
CONTINUOUS
10
3.15532
20
-5.93202
11
3.21339
21
-5.93202
0
LINE
8
BLACK
6
CONTINUOUS
10
3.21339
20
-5.93202
11
3.21339
21
-5.94974
0
LINE
8
BLACK
6
CONTINUOUS
10
3.44473
20
-5.94974
11
3.38666
21
-5.94974
0
LINE
8
BLACK
6
CONTINUOUS
10
3.38666
20
-5.94974
11
3.38666
21
-5.93202
0
LINE
8
BLACK
6
CONTINUOUS
10
3.38666
20
-5.93202
11
3.44473
21
-5.93202
0
LINE
8
BLACK
6
CONTINUOUS
10
3.44473
20
-5.93202
11
3.44473
21
-5.94974
0
LINE
8
BLACK
6
CONTINUOUS
10
3.21339
20
-5.92415
11
3.15532
21
-5.92415
0
LINE
8
BLACK
6
CONTINUOUS
10
3.15532
20
-5.92415
11
3.15532
21
-5.90643
0
LINE
8
BLACK
6
CONTINUOUS
10
3.15532
20
-5.90643
11
3.21339
21
-5.90643
0
LINE
8
BLACK
6
CONTINUOUS
10
3.21339
20
-5.90643
11
3.21339
21
-5.92415
0
LINE
8
BLACK
6
CONTINUOUS
10
3.44473
20
-5.92415
11
3.38666
21
-5.92415
0
LINE
8
BLACK
6
CONTINUOUS
10
3.38666
20
-5.92415
11
3.38666
21
-5.90643
0
LINE
8
BLACK
6
CONTINUOUS
10
3.38666
20
-5.90643
11
3.44473
21
-5.90643
0
LINE
8
BLACK
6
CONTINUOUS
10
3.44473
20
-5.90643
11
3.44473
21
-5.92415
0
LINE
8
BLACK
6
CONTINUOUS
10
3.21339
20
-5.89856
11
3.15532
21
-5.89856
0
LINE
8
BLACK
6
CONTINUOUS
10
3.15532
20
-5.89856
11
3.15532
21
-5.88084
0
LINE
8
BLACK
6
CONTINUOUS
10
3.15532
20
-5.88084
11
3.21339
21
-5.88084
0
LINE
8
BLACK
6
CONTINUOUS
10
3.21339
20
-5.88084
11
3.21339
21
-5.89856
0
LINE
8
BLACK
6
CONTINUOUS
10
3.44473
20
-5.89856
11
3.38666
21
-5.89856
0
LINE
8
BLACK
6
CONTINUOUS
10
3.38666
20
-5.89856
11
3.38666
21
-5.88084
0
LINE
8
BLACK
6
CONTINUOUS
10
3.38666
20
-5.88084
11
3.44473
21
-5.88084
0
LINE
8
BLACK
6
CONTINUOUS
10
3.44473
20
-5.88084
11
3.44473
21
-5.89856
0
LINE
8
BLACK
6
CONTINUOUS
10
3.44473
20
-5.87297
11
3.38666
21
-5.87297
0
LINE
8
BLACK
6
CONTINUOUS
10
3.38666
20
-5.87297
11
3.38666
21
-5.85525
0
LINE
8
BLACK
6
CONTINUOUS
10
3.38666
20
-5.85525
11
3.44473
21
-5.85525
0
LINE
8
BLACK
6
CONTINUOUS
10
3.44473
20
-5.85525
11
3.44473
21
-5.87297
0
LINE
8
BLACK
6
CONTINUOUS
10
3.21339
20
-5.87297
11
3.15532
21
-5.87297
0
LINE
8
BLACK
6
CONTINUOUS
10
3.15532
20
-5.87297
11
3.15532
21
-5.85525
0
LINE
8
BLACK
6
CONTINUOUS
10
3.15532
20
-5.85525
11
3.21339
21
-5.85525
0
LINE
8
BLACK
6
CONTINUOUS
10
3.21339
20
-5.85525
11
3.21339
21
-5.87297
0
LINE
8
BLACK
6
CONTINUOUS
10
3.21339
20
-5.84738
11
3.15532
21
-5.84738
0
LINE
8
BLACK
6
CONTINUOUS
10
3.15532
20
-5.84738
11
3.15532
21
-5.82966
0
LINE
8
BLACK
6
CONTINUOUS
10
3.15532
20
-5.82966
11
3.21339
21
-5.82966
0
LINE
8
BLACK
6
CONTINUOUS
10
3.21339
20
-5.82966
11
3.21339
21
-5.84738
0
LINE
8
BLACK
6
CONTINUOUS
10
3.44473
20
-5.84738
11
3.38666
21
-5.84738
0
LINE
8
BLACK
6
CONTINUOUS
10
3.38666
20
-5.84738
11
3.38666
21
-5.82966
0
LINE
8
BLACK
6
CONTINUOUS
10
3.38666
20
-5.82966
11
3.44473
21
-5.82966
0
LINE
8
BLACK
6
CONTINUOUS
10
3.44473
20
-5.82966
11
3.44473
21
-5.84738
0
LINE
8
BLACK
6
CONTINUOUS
10
3.44473
20
-5.82179
11
3.38666
21
-5.82179
0
LINE
8
BLACK
6
CONTINUOUS
10
3.38666
20
-5.82179
11
3.38666
21
-5.80407
0
LINE
8
BLACK
6
CONTINUOUS
10
3.38666
20
-5.80407
11
3.44473
21
-5.80407
0
LINE
8
BLACK
6
CONTINUOUS
10
3.44473
20
-5.80407
11
3.44473
21
-5.82179
0
LINE
8
BLACK
6
CONTINUOUS
10
3.21339
20
-5.82179
11
3.15532
21
-5.82179
0
LINE
8
BLACK
6
CONTINUOUS
10
3.15532
20
-5.82179
11
3.15532
21
-5.80407
0
LINE
8
BLACK
6
CONTINUOUS
10
3.15532
20
-5.80407
11
3.21339
21
-5.80407
0
LINE
8
BLACK
6
CONTINUOUS
10
3.21339
20
-5.80407
11
3.21339
21
-5.82179
0
LINE
8
BLACK
6
CONTINUOUS
10
3.44473
20
-5.7962
11
3.38666
21
-5.7962
0
LINE
8
BLACK
6
CONTINUOUS
10
3.38666
20
-5.7962
11
3.38666
21
-5.77848
0
LINE
8
BLACK
6
CONTINUOUS
10
3.38666
20
-5.77848
11
3.44473
21
-5.77848
0
LINE
8
BLACK
6
CONTINUOUS
10
3.44473
20
-5.77848
11
3.44473
21
-5.7962
0
LINE
8
BLACK
6
CONTINUOUS
10
3.21339
20
-5.7962
11
3.15532
21
-5.7962
0
LINE
8
BLACK
6
CONTINUOUS
10
3.15532
20
-5.7962
11
3.15532
21
-5.77848
0
LINE
8
BLACK
6
CONTINUOUS
10
3.15532
20
-5.77848
11
3.21339
21
-5.77848
0
LINE
8
BLACK
6
CONTINUOUS
10
3.21339
20
-5.77848
11
3.21339
21
-5.7962
0
LINE
8
BLACK
6
CONTINUOUS
10
3.44473
20
-5.77061
11
3.38666
21
-5.77061
0
LINE
8
BLACK
6
CONTINUOUS
10
3.38666
20
-5.77061
11
3.38666
21
-5.75289
0
LINE
8
BLACK
6
CONTINUOUS
10
3.38666
20
-5.75289
11
3.44473
21
-5.75289
0
LINE
8
BLACK
6
CONTINUOUS
10
3.44473
20
-5.75289
11
3.44473
21
-5.77061
0
LINE
8
BLACK
6
CONTINUOUS
10
3.21339
20
-5.77061
11
3.15532
21
-5.77061
0
LINE
8
BLACK
6
CONTINUOUS
10
3.15532
20
-5.77061
11
3.15532
21
-5.75289
0
LINE
8
BLACK
6
CONTINUOUS
10
3.15532
20
-5.75289
11
3.21339
21
-5.75289
0
LINE
8
BLACK
6
CONTINUOUS
10
3.21339
20
-5.75289
11
3.21339
21
-5.77061
0
LINE
8
BLACK
6
CONTINUOUS
10
4.00388
20
-5.75051
11
3.94246
21
-5.75051
0
LINE
8
BLACK
6
CONTINUOUS
10
3.94246
20
-5.75051
11
3.94246
21
-5.72492
0
LINE
8
BLACK
6
CONTINUOUS
10
3.94246
20
-5.72492
11
4.00388
21
-5.72492
0
LINE
8
BLACK
6
CONTINUOUS
10
4.00388
20
-5.72492
11
4.00388
21
-5.75051
0
LINE
8
BLACK
6
CONTINUOUS
10
3.89758
20
-5.75051
11
3.83617
21
-5.75051
0
LINE
8
BLACK
6
CONTINUOUS
10
3.83617
20
-5.75051
11
3.83617
21
-5.72492
0
LINE
8
BLACK
6
CONTINUOUS
10
3.83617
20
-5.72492
11
3.89758
21
-5.72492
0
LINE
8
BLACK
6
CONTINUOUS
10
3.89758
20
-5.72492
11
3.89758
21
-5.75051
0
LINE
8
BLACK
6
CONTINUOUS
10
3.44473
20
-5.74502
11
3.38666
21
-5.74502
0
LINE
8
BLACK
6
CONTINUOUS
10
3.38666
20
-5.74502
11
3.38666
21
-5.7273
0
LINE
8
BLACK
6
CONTINUOUS
10
3.38666
20
-5.7273
11
3.44473
21
-5.7273
0
LINE
8
BLACK
6
CONTINUOUS
10
3.44473
20
-5.7273
11
3.44473
21
-5.74502
0
LINE
8
BLACK
6
CONTINUOUS
10
3.21339
20
-5.74502
11
3.15532
21
-5.74502
0
LINE
8
BLACK
6
CONTINUOUS
10
3.15532
20
-5.74502
11
3.15532
21
-5.7273
0
LINE
8
BLACK
6
CONTINUOUS
10
3.15532
20
-5.7273
11
3.21339
21
-5.7273
0
LINE
8
BLACK
6
CONTINUOUS
10
3.21339
20
-5.7273
11
3.21339
21
-5.74502
0
LINE
8
BLACK
6
CONTINUOUS
10
3.21339
20
-5.71943
11
3.15532
21
-5.71943
0
LINE
8
BLACK
6
CONTINUOUS
10
3.15532
20
-5.71943
11
3.15532
21
-5.70171
0
LINE
8
BLACK
6
CONTINUOUS
10
3.15532
20
-5.70171
11
3.21339
21
-5.70171
0
LINE
8
BLACK
6
CONTINUOUS
10
3.21339
20
-5.70171
11
3.21339
21
-5.71943
0
LINE
8
BLACK
6
CONTINUOUS
10
3.44473
20
-5.71943
11
3.38666
21
-5.71943
0
LINE
8
BLACK
6
CONTINUOUS
10
3.38666
20
-5.71943
11
3.38666
21
-5.70171
0
LINE
8
BLACK
6
CONTINUOUS
10
3.38666
20
-5.70171
11
3.44473
21
-5.70171
0
LINE
8
BLACK
6
CONTINUOUS
10
3.44473
20
-5.70171
11
3.44473
21
-5.71943
0
LINE
8
BLACK
6
CONTINUOUS
10
3.89758
20
-5.71311
11
3.83617
21
-5.71311
0
LINE
8
BLACK
6
CONTINUOUS
10
3.83617
20
-5.71311
11
3.83617
21
-5.68752
0
LINE
8
BLACK
6
CONTINUOUS
10
3.83617
20
-5.68752
11
3.89758
21
-5.68752
0
LINE
8
BLACK
6
CONTINUOUS
10
3.89758
20
-5.68752
11
3.89758
21
-5.71311
0
LINE
8
BLACK
6
CONTINUOUS
10
3.21339
20
-5.69383
11
3.15532
21
-5.69383
0
LINE
8
BLACK
6
CONTINUOUS
10
3.15532
20
-5.69383
11
3.15532
21
-5.67612
0
LINE
8
BLACK
6
CONTINUOUS
10
3.15532
20
-5.67612
11
3.21339
21
-5.67612
0
LINE
8
BLACK
6
CONTINUOUS
10
3.21339
20
-5.67612
11
3.21339
21
-5.69383
0
LINE
8
BLACK
6
CONTINUOUS
10
3.44473
20
-5.69383
11
3.38666
21
-5.69383
0
LINE
8
BLACK
6
CONTINUOUS
10
3.38666
20
-5.69383
11
3.38666
21
-5.67612
0
LINE
8
BLACK
6
CONTINUOUS
10
3.38666
20
-5.67612
11
3.44473
21
-5.67612
0
LINE
8
BLACK
6
CONTINUOUS
10
3.44473
20
-5.67612
11
3.44473
21
-5.69383
0
LINE
8
BLACK
6
CONTINUOUS
10
4.00388
20
-5.67571
11
3.94246
21
-5.67571
0
LINE
8
BLACK
6
CONTINUOUS
10
3.94246
20
-5.67571
11
3.94246
21
-5.65012
0
LINE
8
BLACK
6
CONTINUOUS
10
3.94246
20
-5.65012
11
4.00388
21
-5.65012
0
LINE
8
BLACK
6
CONTINUOUS
10
4.00388
20
-5.65012
11
4.00388
21
-5.67571
0
LINE
8
BLACK
6
CONTINUOUS
10
3.89758
20
-5.67571
11
3.83617
21
-5.67571
0
LINE
8
BLACK
6
CONTINUOUS
10
3.83617
20
-5.67571
11
3.83617
21
-5.65012
0
LINE
8
BLACK
6
CONTINUOUS
10
3.83617
20
-5.65012
11
3.89758
21
-5.65012
0
LINE
8
BLACK
6
CONTINUOUS
10
3.89758
20
-5.65012
11
3.89758
21
-5.67571
0
LINE
8
BLACK
6
CONTINUOUS
10
3.99644
20
-5.58758
11
3.92361
21
-5.58758
0
LINE
8
BLACK
6
CONTINUOUS
10
3.92361
20
-5.58758
11
3.92361
21
-5.54034
0
LINE
8
BLACK
6
CONTINUOUS
10
3.92361
20
-5.54034
11
3.99644
21
-5.54034
0
LINE
8
BLACK
6
CONTINUOUS
10
3.99644
20
-5.54034
11
3.99644
21
-5.58758
0
LINE
8
BLACK
6
CONTINUOUS
10
3.39733
20
-5.52713
11
3.3986
21
-5.52798
0
LINE
8
BLACK
6
CONTINUOUS
10
3.3986
20
-5.52798
11
3.39946
21
-5.52926
0
LINE
8
BLACK
6
CONTINUOUS
10
3.39946
20
-5.52926
11
3.39976
21
-5.53076
0
LINE
8
BLACK
6
CONTINUOUS
10
3.39976
20
-5.53076
11
3.39976
21
-5.53864
0
LINE
8
BLACK
6
CONTINUOUS
10
3.39976
20
-5.53864
11
3.39946
21
-5.54014
0
LINE
8
BLACK
6
CONTINUOUS
10
3.39946
20
-5.54014
11
3.3986
21
-5.54142
0
LINE
8
BLACK
6
CONTINUOUS
10
3.3986
20
-5.54142
11
3.39733
21
-5.54228
0
LINE
8
BLACK
6
CONTINUOUS
10
3.39733
20
-5.54228
11
3.39582
21
-5.54257
0
LINE
8
BLACK
6
CONTINUOUS
10
3.39582
20
-5.54257
11
3.34562
21
-5.54257
0
LINE
8
BLACK
6
CONTINUOUS
10
3.34562
20
-5.54257
11
3.34412
21
-5.54228
0
LINE
8
BLACK
6
CONTINUOUS
10
3.34412
20
-5.54228
11
3.34284
21
-5.54142
0
LINE
8
BLACK
6
CONTINUOUS
10
3.34284
20
-5.54142
11
3.34198
21
-5.54014
0
LINE
8
BLACK
6
CONTINUOUS
10
3.34198
20
-5.54014
11
3.34169
21
-5.53864
0
LINE
8
BLACK
6
CONTINUOUS
10
3.34169
20
-5.53864
11
3.34169
21
-5.53076
0
LINE
8
BLACK
6
CONTINUOUS
10
3.34169
20
-5.53076
11
3.34198
21
-5.52926
0
LINE
8
BLACK
6
CONTINUOUS
10
3.34198
20
-5.52926
11
3.34284
21
-5.52798
0
LINE
8
BLACK
6
CONTINUOUS
10
3.34284
20
-5.52798
11
3.34412
21
-5.52713
0
LINE
8
BLACK
6
CONTINUOUS
10
3.34412
20
-5.52713
11
3.34562
21
-5.52683
0
LINE
8
BLACK
6
CONTINUOUS
10
3.34562
20
-5.52683
11
3.39582
21
-5.52683
0
LINE
8
BLACK
6
CONTINUOUS
10
3.39582
20
-5.52683
11
3.39733
21
-5.52713
0
LINE
8
BLACK
6
CONTINUOUS
10
3.17193
20
-5.52713
11
3.17321
21
-5.52798
0
LINE
8
BLACK
6
CONTINUOUS
10
3.17321
20
-5.52798
11
3.17406
21
-5.52926
0
LINE
8
BLACK
6
CONTINUOUS
10
3.17406
20
-5.52926
11
3.17436
21
-5.53076
0
LINE
8
BLACK
6
CONTINUOUS
10
3.17436
20
-5.53076
11
3.17436
21
-5.53864
0
LINE
8
BLACK
6
CONTINUOUS
10
3.17436
20
-5.53864
11
3.17406
21
-5.54014
0
LINE
8
BLACK
6
CONTINUOUS
10
3.17406
20
-5.54014
11
3.17321
21
-5.54142
0
LINE
8
BLACK
6
CONTINUOUS
10
3.17321
20
-5.54142
11
3.17193
21
-5.54228
0
LINE
8
BLACK
6
CONTINUOUS
10
3.17193
20
-5.54228
11
3.17043
21
-5.54257
0
LINE
8
BLACK
6
CONTINUOUS
10
3.17043
20
-5.54257
11
3.12023
21
-5.54257
0
LINE
8
BLACK
6
CONTINUOUS
10
3.12023
20
-5.54257
11
3.11872
21
-5.54228
0
LINE
8
BLACK
6
CONTINUOUS
10
3.11872
20
-5.54228
11
3.11744
21
-5.54142
0
LINE
8
BLACK
6
CONTINUOUS
10
3.11744
20
-5.54142
11
3.11659
21
-5.54014
0
LINE
8
BLACK
6
CONTINUOUS
10
3.11659
20
-5.54014
11
3.11629
21
-5.53864
0
LINE
8
BLACK
6
CONTINUOUS
10
3.11629
20
-5.53864
11
3.11629
21
-5.53076
0
LINE
8
BLACK
6
CONTINUOUS
10
3.11629
20
-5.53076
11
3.11659
21
-5.52926
0
LINE
8
BLACK
6
CONTINUOUS
10
3.11659
20
-5.52926
11
3.11744
21
-5.52798
0
LINE
8
BLACK
6
CONTINUOUS
10
3.11744
20
-5.52798
11
3.11872
21
-5.52713
0
LINE
8
BLACK
6
CONTINUOUS
10
3.11872
20
-5.52713
11
3.12023
21
-5.52683
0
LINE
8
BLACK
6
CONTINUOUS
10
3.12023
20
-5.52683
11
3.17043
21
-5.52683
0
LINE
8
BLACK
6
CONTINUOUS
10
3.17043
20
-5.52683
11
3.17193
21
-5.52713
0
LINE
8
BLACK
6
CONTINUOUS
10
3.39733
20
-5.50154
11
3.3986
21
-5.50239
0
LINE
8
BLACK
6
CONTINUOUS
10
3.3986
20
-5.50239
11
3.39946
21
-5.50367
0
LINE
8
BLACK
6
CONTINUOUS
10
3.39946
20
-5.50367
11
3.39976
21
-5.50517
0
LINE
8
BLACK
6
CONTINUOUS
10
3.39976
20
-5.50517
11
3.39976
21
-5.51305
0
LINE
8
BLACK
6
CONTINUOUS
10
3.39976
20
-5.51305
11
3.39946
21
-5.51455
0
LINE
8
BLACK
6
CONTINUOUS
10
3.39946
20
-5.51455
11
3.3986
21
-5.51583
0
LINE
8
BLACK
6
CONTINUOUS
10
3.3986
20
-5.51583
11
3.39733
21
-5.51668
0
LINE
8
BLACK
6
CONTINUOUS
10
3.39733
20
-5.51668
11
3.39582
21
-5.51698
0
LINE
8
BLACK
6
CONTINUOUS
10
3.39582
20
-5.51698
11
3.34562
21
-5.51698
0
LINE
8
BLACK
6
CONTINUOUS
10
3.34562
20
-5.51698
11
3.34412
21
-5.51668
0
LINE
8
BLACK
6
CONTINUOUS
10
3.34412
20
-5.51668
11
3.34284
21
-5.51583
0
LINE
8
BLACK
6
CONTINUOUS
10
3.34284
20
-5.51583
11
3.34198
21
-5.51455
0
LINE
8
BLACK
6
CONTINUOUS
10
3.34198
20
-5.51455
11
3.34169
21
-5.51305
0
LINE
8
BLACK
6
CONTINUOUS
10
3.34169
20
-5.51305
11
3.34169
21
-5.50517
0
LINE
8
BLACK
6
CONTINUOUS
10
3.34169
20
-5.50517
11
3.34198
21
-5.50367
0
LINE
8
BLACK
6
CONTINUOUS
10
3.34198
20
-5.50367
11
3.34284
21
-5.50239
0
LINE
8
BLACK
6
CONTINUOUS
10
3.34284
20
-5.50239
11
3.34412
21
-5.50154
0
LINE
8
BLACK
6
CONTINUOUS
10
3.34412
20
-5.50154
11
3.34562
21
-5.50124
0
LINE
8
BLACK
6
CONTINUOUS
10
3.34562
20
-5.50124
11
3.39582
21
-5.50124
0
LINE
8
BLACK
6
CONTINUOUS
10
3.39582
20
-5.50124
11
3.39733
21
-5.50154
0
LINE
8
BLACK
6
CONTINUOUS
10
3.17193
20
-5.50154
11
3.17321
21
-5.50239
0
LINE
8
BLACK
6
CONTINUOUS
10
3.17321
20
-5.50239
11
3.17406
21
-5.50367
0
LINE
8
BLACK
6
CONTINUOUS
10
3.17406
20
-5.50367
11
3.17436
21
-5.50517
0
LINE
8
BLACK
6
CONTINUOUS
10
3.17436
20
-5.50517
11
3.17436
21
-5.51305
0
LINE
8
BLACK
6
CONTINUOUS
10
3.17436
20
-5.51305
11
3.17406
21
-5.51455
0
LINE
8
BLACK
6
CONTINUOUS
10
3.17406
20
-5.51455
11
3.17321
21
-5.51583
0
LINE
8
BLACK
6
CONTINUOUS
10
3.17321
20
-5.51583
11
3.17193
21
-5.51668
0
LINE
8
BLACK
6
CONTINUOUS
10
3.17193
20
-5.51668
11
3.17043
21
-5.51698
0
LINE
8
BLACK
6
CONTINUOUS
10
3.17043
20
-5.51698
11
3.12023
21
-5.51698
0
LINE
8
BLACK
6
CONTINUOUS
10
3.12023
20
-5.51698
11
3.11872
21
-5.51668
0
LINE
8
BLACK
6
CONTINUOUS
10
3.11872
20
-5.51668
11
3.11744
21
-5.51583
0
LINE
8
BLACK
6
CONTINUOUS
10
3.11744
20
-5.51583
11
3.11659
21
-5.51455
0
LINE
8
BLACK
6
CONTINUOUS
10
3.11659
20
-5.51455
11
3.11629
21
-5.51305
0
LINE
8
BLACK
6
CONTINUOUS
10
3.11629
20
-5.51305
11
3.11629
21
-5.50517
0
LINE
8
BLACK
6
CONTINUOUS
10
3.11629
20
-5.50517
11
3.11659
21
-5.50367
0
LINE
8
BLACK
6
CONTINUOUS
10
3.11659
20
-5.50367
11
3.11744
21
-5.50239
0
LINE
8
BLACK
6
CONTINUOUS
10
3.11744
20
-5.50239
11
3.11872
21
-5.50154
0
LINE
8
BLACK
6
CONTINUOUS
10
3.11872
20
-5.50154
11
3.12023
21
-5.50124
0
LINE
8
BLACK
6
CONTINUOUS
10
3.12023
20
-5.50124
11
3.17043
21
-5.50124
0
LINE
8
BLACK
6
CONTINUOUS
10
3.17043
20
-5.50124
11
3.17193
21
-5.50154
0
LINE
8
BLACK
6
CONTINUOUS
10
3.17193
20
-5.47595
11
3.17321
21
-5.4768
0
LINE
8
BLACK
6
CONTINUOUS
10
3.17321
20
-5.4768
11
3.17406
21
-5.47808
0
LINE
8
BLACK
6
CONTINUOUS
10
3.17406
20
-5.47808
11
3.17436
21
-5.47958
0
LINE
8
BLACK
6
CONTINUOUS
10
3.17436
20
-5.47958
11
3.17436
21
-5.48746
0
LINE
8
BLACK
6
CONTINUOUS
10
3.17436
20
-5.48746
11
3.17406
21
-5.48896
0
LINE
8
BLACK
6
CONTINUOUS
10
3.17406
20
-5.48896
11
3.17321
21
-5.49024
0
LINE
8
BLACK
6
CONTINUOUS
10
3.17321
20
-5.49024
11
3.17193
21
-5.49109
0
LINE
8
BLACK
6
CONTINUOUS
10
3.17193
20
-5.49109
11
3.17043
21
-5.49139
0
LINE
8
BLACK
6
CONTINUOUS
10
3.17043
20
-5.49139
11
3.12023
21
-5.49139
0
LINE
8
BLACK
6
CONTINUOUS
10
3.12023
20
-5.49139
11
3.11872
21
-5.49109
0
LINE
8
BLACK
6
CONTINUOUS
10
3.11872
20
-5.49109
11
3.11744
21
-5.49024
0
LINE
8
BLACK
6
CONTINUOUS
10
3.11744
20
-5.49024
11
3.11659
21
-5.48896
0
LINE
8
BLACK
6
CONTINUOUS
10
3.11659
20
-5.48896
11
3.11629
21
-5.48746
0
LINE
8
BLACK
6
CONTINUOUS
10
3.11629
20
-5.48746
11
3.11629
21
-5.47958
0
LINE
8
BLACK
6
CONTINUOUS
10
3.11629
20
-5.47958
11
3.11659
21
-5.47808
0
LINE
8
BLACK
6
CONTINUOUS
10
3.11659
20
-5.47808
11
3.11744
21
-5.4768
0
LINE
8
BLACK
6
CONTINUOUS
10
3.11744
20
-5.4768
11
3.11872
21
-5.47595
0
LINE
8
BLACK
6
CONTINUOUS
10
3.11872
20
-5.47595
11
3.12023
21
-5.47565
0
LINE
8
BLACK
6
CONTINUOUS
10
3.12023
20
-5.47565
11
3.17043
21
-5.47565
0
LINE
8
BLACK
6
CONTINUOUS
10
3.17043
20
-5.47565
11
3.17193
21
-5.47595
0
LINE
8
BLACK
6
CONTINUOUS
10
3.39733
20
-5.47595
11
3.3986
21
-5.4768
0
LINE
8
BLACK
6
CONTINUOUS
10
3.3986
20
-5.4768
11
3.39946
21
-5.47808
0
LINE
8
BLACK
6
CONTINUOUS
10
3.39946
20
-5.47808
11
3.39976
21
-5.47958
0
LINE
8
BLACK
6
CONTINUOUS
10
3.39976
20
-5.47958
11
3.39976
21
-5.48746
0
LINE
8
BLACK
6
CONTINUOUS
10
3.39976
20
-5.48746
11
3.39946
21
-5.48896
0
LINE
8
BLACK
6
CONTINUOUS
10
3.39946
20
-5.48896
11
3.3986
21
-5.49024
0
LINE
8
BLACK
6
CONTINUOUS
10
3.3986
20
-5.49024
11
3.39733
21
-5.49109
0
LINE
8
BLACK
6
CONTINUOUS
10
3.39733
20
-5.49109
11
3.39582
21
-5.49139
0
LINE
8
BLACK
6
CONTINUOUS
10
3.39582
20
-5.49139
11
3.34562
21
-5.49139
0
LINE
8
BLACK
6
CONTINUOUS
10
3.34562
20
-5.49139
11
3.34412
21
-5.49109
0
LINE
8
BLACK
6
CONTINUOUS
10
3.34412
20
-5.49109
11
3.34284
21
-5.49024
0
LINE
8
BLACK
6
CONTINUOUS
10
3.34284
20
-5.49024
11
3.34198
21
-5.48896
0
LINE
8
BLACK
6
CONTINUOUS
10
3.34198
20
-5.48896
11
3.34169
21
-5.48746
0
LINE
8
BLACK
6
CONTINUOUS
10
3.34169
20
-5.48746
11
3.34169
21
-5.47958
0
LINE
8
BLACK
6
CONTINUOUS
10
3.34169
20
-5.47958
11
3.34198
21
-5.47808
0
LINE
8
BLACK
6
CONTINUOUS
10
3.34198
20
-5.47808
11
3.34284
21
-5.4768
0
LINE
8
BLACK
6
CONTINUOUS
10
3.34284
20
-5.4768
11
3.34412
21
-5.47595
0
LINE
8
BLACK
6
CONTINUOUS
10
3.34412
20
-5.47595
11
3.34562
21
-5.47565
0
LINE
8
BLACK
6
CONTINUOUS
10
3.34562
20
-5.47565
11
3.39582
21
-5.47565
0
LINE
8
BLACK
6
CONTINUOUS
10
3.39582
20
-5.47565
11
3.39733
21
-5.47595
0
LINE
8
BLACK
6
CONTINUOUS
10
3.39733
20
-5.45035
11
3.3986
21
-5.45121
0
LINE
8
BLACK
6
CONTINUOUS
10
3.3986
20
-5.45121
11
3.39946
21
-5.45249
0
LINE
8
BLACK
6
CONTINUOUS
10
3.39946
20
-5.45249
11
3.39976
21
-5.45399
0
LINE
8
BLACK
6
CONTINUOUS
10
3.39976
20
-5.45399
11
3.39976
21
-5.46187
0
LINE
8
BLACK
6
CONTINUOUS
10
3.39976
20
-5.46187
11
3.39946
21
-5.46337
0
LINE
8
BLACK
6
CONTINUOUS
10
3.39946
20
-5.46337
11
3.3986
21
-5.46465
0
LINE
8
BLACK
6
CONTINUOUS
10
3.3986
20
-5.46465
11
3.39733
21
-5.4655
0
LINE
8
BLACK
6
CONTINUOUS
10
3.39733
20
-5.4655
11
3.39582
21
-5.4658
0
LINE
8
BLACK
6
CONTINUOUS
10
3.39582
20
-5.4658
11
3.34562
21
-5.4658
0
LINE
8
BLACK
6
CONTINUOUS
10
3.34562
20
-5.4658
11
3.34412
21
-5.4655
0
LINE
8
BLACK
6
CONTINUOUS
10
3.34412
20
-5.4655
11
3.34284
21
-5.46465
0
LINE
8
BLACK
6
CONTINUOUS
10
3.34284
20
-5.46465
11
3.34198
21
-5.46337
0
LINE
8
BLACK
6
CONTINUOUS
10
3.34198
20
-5.46337
11
3.34169
21
-5.46187
0
LINE
8
BLACK
6
CONTINUOUS
10
3.34169
20
-5.46187
11
3.34169
21
-5.45399
0
LINE
8
BLACK
6
CONTINUOUS
10
3.34169
20
-5.45399
11
3.34198
21
-5.45249
0
LINE
8
BLACK
6
CONTINUOUS
10
3.34198
20
-5.45249
11
3.34284
21
-5.45121
0
LINE
8
BLACK
6
CONTINUOUS
10
3.34284
20
-5.45121
11
3.34412
21
-5.45035
0
LINE
8
BLACK
6
CONTINUOUS
10
3.34412
20
-5.45035
11
3.34562
21
-5.45006
0
LINE
8
BLACK
6
CONTINUOUS
10
3.34562
20
-5.45006
11
3.39582
21
-5.45006
0
LINE
8
BLACK
6
CONTINUOUS
10
3.39582
20
-5.45006
11
3.39733
21
-5.45035
0
LINE
8
BLACK
6
CONTINUOUS
10
3.17193
20
-5.45035
11
3.17321
21
-5.45121
0
LINE
8
BLACK
6
CONTINUOUS
10
3.17321
20
-5.45121
11
3.17406
21
-5.45249
0
LINE
8
BLACK
6
CONTINUOUS
10
3.17406
20
-5.45249
11
3.17436
21
-5.45399
0
LINE
8
BLACK
6
CONTINUOUS
10
3.17436
20
-5.45399
11
3.17436
21
-5.46187
0
LINE
8
BLACK
6
CONTINUOUS
10
3.17436
20
-5.46187
11
3.17406
21
-5.46337
0
LINE
8
BLACK
6
CONTINUOUS
10
3.17406
20
-5.46337
11
3.17321
21
-5.46465
0
LINE
8
BLACK
6
CONTINUOUS
10
3.17321
20
-5.46465
11
3.17193
21
-5.4655
0
LINE
8
BLACK
6
CONTINUOUS
10
3.17193
20
-5.4655
11
3.17043
21
-5.4658
0
LINE
8
BLACK
6
CONTINUOUS
10
3.17043
20
-5.4658
11
3.12023
21
-5.4658
0
LINE
8
BLACK
6
CONTINUOUS
10
3.12023
20
-5.4658
11
3.11872
21
-5.4655
0
LINE
8
BLACK
6
CONTINUOUS
10
3.11872
20
-5.4655
11
3.11744
21
-5.46465
0
LINE
8
BLACK
6
CONTINUOUS
10
3.11744
20
-5.46465
11
3.11659
21
-5.46337
0
LINE
8
BLACK
6
CONTINUOUS
10
3.11659
20
-5.46337
11
3.11629
21
-5.46187
0
LINE
8
BLACK
6
CONTINUOUS
10
3.11629
20
-5.46187
11
3.11629
21
-5.45399
0
LINE
8
BLACK
6
CONTINUOUS
10
3.11629
20
-5.45399
11
3.11659
21
-5.45249
0
LINE
8
BLACK
6
CONTINUOUS
10
3.11659
20
-5.45249
11
3.11744
21
-5.45121
0
LINE
8
BLACK
6
CONTINUOUS
10
3.11744
20
-5.45121
11
3.11872
21
-5.45035
0
LINE
8
BLACK
6
CONTINUOUS
10
3.11872
20
-5.45035
11
3.12023
21
-5.45006
0
LINE
8
BLACK
6
CONTINUOUS
10
3.12023
20
-5.45006
11
3.17043
21
-5.45006
0
LINE
8
BLACK
6
CONTINUOUS
10
3.17043
20
-5.45006
11
3.17193
21
-5.45035
0
LINE
8
BLACK
6
CONTINUOUS
10
3.99644
20
-5.41829
11
3.92361
21
-5.41829
0
LINE
8
BLACK
6
CONTINUOUS
10
3.92361
20
-5.41829
11
3.92361
21
-5.37105
0
LINE
8
BLACK
6
CONTINUOUS
10
3.92361
20
-5.37105
11
3.99644
21
-5.37105
0
LINE
8
BLACK
6
CONTINUOUS
10
3.99644
20
-5.37105
11
3.99644
21
-5.41829
0
LINE
8
BLACK
6
CONTINUOUS
10
2.73794
20
-4.9908
11
2.71039
21
-4.9908
0
LINE
8
BLACK
6
CONTINUOUS
10
2.71039
20
-4.9908
11
2.71039
21
-4.95143
0
LINE
8
BLACK
6
CONTINUOUS
10
2.71039
20
-4.95143
11
2.73794
21
-4.95143
0
LINE
8
BLACK
6
CONTINUOUS
10
2.73794
20
-4.95143
11
2.73794
21
-4.9908
0
LINE
8
BLACK
6
CONTINUOUS
10
2.88361
20
-4.9908
11
2.85606
21
-4.9908
0
LINE
8
BLACK
6
CONTINUOUS
10
2.85606
20
-4.9908
11
2.85606
21
-4.95143
0
LINE
8
BLACK
6
CONTINUOUS
10
2.85606
20
-4.95143
11
2.88361
21
-4.95143
0
LINE
8
BLACK
6
CONTINUOUS
10
2.88361
20
-4.95143
11
2.88361
21
-4.9908
0
LINE
8
BLACK
6
CONTINUOUS
10
4.37756
20
-4.9502
11
4.31614
21
-4.9502
0
LINE
8
BLACK
6
CONTINUOUS
10
4.31614
20
-4.9502
11
4.31614
21
-4.92461
0
LINE
8
BLACK
6
CONTINUOUS
10
4.31614
20
-4.92461
11
4.37756
21
-4.92461
0
LINE
8
BLACK
6
CONTINUOUS
10
4.37756
20
-4.92461
11
4.37756
21
-4.9502
0
LINE
8
BLACK
6
CONTINUOUS
10
4.48386
20
-4.9502
11
4.42244
21
-4.9502
0
LINE
8
BLACK
6
CONTINUOUS
10
4.42244
20
-4.9502
11
4.42244
21
-4.92461
0
LINE
8
BLACK
6
CONTINUOUS
10
4.42244
20
-4.92461
11
4.48386
21
-4.92461
0
LINE
8
BLACK
6
CONTINUOUS
10
4.48386
20
-4.92461
11
4.48386
21
-4.9502
0
LINE
8
BLACK
6
CONTINUOUS
10
4.37756
20
-4.9128
11
4.31614
21
-4.9128
0
LINE
8
BLACK
6
CONTINUOUS
10
4.31614
20
-4.9128
11
4.31614
21
-4.8872
0
LINE
8
BLACK
6
CONTINUOUS
10
4.31614
20
-4.8872
11
4.37756
21
-4.8872
0
LINE
8
BLACK
6
CONTINUOUS
10
4.37756
20
-4.8872
11
4.37756
21
-4.9128
0
LINE
8
BLACK
6
CONTINUOUS
10
4.48386
20
-4.9128
11
4.42244
21
-4.9128
0
LINE
8
BLACK
6
CONTINUOUS
10
4.42244
20
-4.9128
11
4.42244
21
-4.8872
0
LINE
8
BLACK
6
CONTINUOUS
10
4.42244
20
-4.8872
11
4.48386
21
-4.8872
0
LINE
8
BLACK
6
CONTINUOUS
10
4.48386
20
-4.8872
11
4.48386
21
-4.9128
0
LINE
8
BLACK
6
CONTINUOUS
10
4.48386
20
-4.87539
11
4.42244
21
-4.87539
0
LINE
8
BLACK
6
CONTINUOUS
10
4.42244
20
-4.87539
11
4.42244
21
-4.8498
0
LINE
8
BLACK
6
CONTINUOUS
10
4.42244
20
-4.8498
11
4.48386
21
-4.8498
0
LINE
8
BLACK
6
CONTINUOUS
10
4.48386
20
-4.8498
11
4.48386
21
-4.87539
0
LINE
8
BLACK
6
CONTINUOUS
10
4.37756
20
-4.87539
11
4.31614
21
-4.87539
0
LINE
8
BLACK
6
CONTINUOUS
10
4.31614
20
-4.87539
11
4.31614
21
-4.8498
0
LINE
8
BLACK
6
CONTINUOUS
10
4.31614
20
-4.8498
11
4.37756
21
-4.8498
0
LINE
8
BLACK
6
CONTINUOUS
10
4.37756
20
-4.8498
11
4.37756
21
-4.87539
0
LINE
8
BLACK
6
CONTINUOUS
10
2.73794
20
-4.75457
11
2.71039
21
-4.75457
0
LINE
8
BLACK
6
CONTINUOUS
10
2.71039
20
-4.75457
11
2.71039
21
-4.7152
0
LINE
8
BLACK
6
CONTINUOUS
10
2.71039
20
-4.7152
11
2.73794
21
-4.7152
0
LINE
8
BLACK
6
CONTINUOUS
10
2.73794
20
-4.7152
11
2.73794
21
-4.75457
0
LINE
8
BLACK
6
CONTINUOUS
10
2.88361
20
-4.75457
11
2.85606
21
-4.75457
0
LINE
8
BLACK
6
CONTINUOUS
10
2.85606
20
-4.75457
11
2.85606
21
-4.7152
0
LINE
8
BLACK
6
CONTINUOUS
10
2.85606
20
-4.7152
11
2.88361
21
-4.7152
0
LINE
8
BLACK
6
CONTINUOUS
10
2.88361
20
-4.7152
11
2.88361
21
-4.75457
0
LINE
8
BLACK
6
CONTINUOUS
10
3.19243
20
-4.61001
11
3.19547
21
-4.61204
0
LINE
8
BLACK
6
CONTINUOUS
10
3.19547
20
-4.61204
11
3.19749
21
-4.61507
0
LINE
8
BLACK
6
CONTINUOUS
10
3.19749
20
-4.61507
11
3.1982
21
-4.61865
0
LINE
8
BLACK
6
CONTINUOUS
10
3.1982
20
-4.61865
11
3.1982
21
-4.63735
0
LINE
8
BLACK
6
CONTINUOUS
10
3.1982
20
-4.63735
11
3.19749
21
-4.64093
0
LINE
8
BLACK
6
CONTINUOUS
10
3.19749
20
-4.64093
11
3.19547
21
-4.64396
0
LINE
8
BLACK
6
CONTINUOUS
10
3.19547
20
-4.64396
11
3.19243
21
-4.64599
0
LINE
8
BLACK
6
CONTINUOUS
10
3.19243
20
-4.64599
11
3.18885
21
-4.6467
0
LINE
8
BLACK
6
CONTINUOUS
10
3.18885
20
-4.6467
11
3.16523
21
-4.6467
0
LINE
8
BLACK
6
CONTINUOUS
10
3.16523
20
-4.6467
11
3.16165
21
-4.64599
0
LINE
8
BLACK
6
CONTINUOUS
10
3.16165
20
-4.64599
11
3.15862
21
-4.64396
0
LINE
8
BLACK
6
CONTINUOUS
10
3.15862
20
-4.64396
11
3.15659
21
-4.64093
0
LINE
8
BLACK
6
CONTINUOUS
10
3.15659
20
-4.64093
11
3.15588
21
-4.63735
0
LINE
8
BLACK
6
CONTINUOUS
10
3.15588
20
-4.63735
11
3.15588
21
-4.61865
0
LINE
8
BLACK
6
CONTINUOUS
10
3.15588
20
-4.61865
11
3.15659
21
-4.61507
0
LINE
8
BLACK
6
CONTINUOUS
10
3.15659
20
-4.61507
11
3.15862
21
-4.61204
0
LINE
8
BLACK
6
CONTINUOUS
10
3.15862
20
-4.61204
11
3.16165
21
-4.61001
0
LINE
8
BLACK
6
CONTINUOUS
10
3.16165
20
-4.61001
11
3.16523
21
-4.6093
0
LINE
8
BLACK
6
CONTINUOUS
10
3.16523
20
-4.6093
11
3.18885
21
-4.6093
0
LINE
8
BLACK
6
CONTINUOUS
10
3.18885
20
-4.6093
11
3.19243
21
-4.61001
0
LINE
8
BLACK
6
CONTINUOUS
10
3.26035
20
-4.61001
11
3.26338
21
-4.61204
0
LINE
8
BLACK
6
CONTINUOUS
10
3.26338
20
-4.61204
11
3.26541
21
-4.61507
0
LINE
8
BLACK
6
CONTINUOUS
10
3.26541
20
-4.61507
11
3.26612
21
-4.61865
0
LINE
8
BLACK
6
CONTINUOUS
10
3.26612
20
-4.61865
11
3.26612
21
-4.63735
0
LINE
8
BLACK
6
CONTINUOUS
10
3.26612
20
-4.63735
11
3.26541
21
-4.64093
0
LINE
8
BLACK
6
CONTINUOUS
10
3.26541
20
-4.64093
11
3.26338
21
-4.64396
0
LINE
8
BLACK
6
CONTINUOUS
10
3.26338
20
-4.64396
11
3.26035
21
-4.64599
0
LINE
8
BLACK
6
CONTINUOUS
10
3.26035
20
-4.64599
11
3.25677
21
-4.6467
0
LINE
8
BLACK
6
CONTINUOUS
10
3.25677
20
-4.6467
11
3.23315
21
-4.6467
0
LINE
8
BLACK
6
CONTINUOUS
10
3.23315
20
-4.6467
11
3.22957
21
-4.64599
0
LINE
8
BLACK
6
CONTINUOUS
10
3.22957
20
-4.64599
11
3.22653
21
-4.64396
0
LINE
8
BLACK
6
CONTINUOUS
10
3.22653
20
-4.64396
11
3.22451
21
-4.64093
0
LINE
8
BLACK
6
CONTINUOUS
10
3.22451
20
-4.64093
11
3.2238
21
-4.63735
0
LINE
8
BLACK
6
CONTINUOUS
10
3.2238
20
-4.63735
11
3.2238
21
-4.61865
0
LINE
8
BLACK
6
CONTINUOUS
10
3.2238
20
-4.61865
11
3.22451
21
-4.61507
0
LINE
8
BLACK
6
CONTINUOUS
10
3.22451
20
-4.61507
11
3.22653
21
-4.61204
0
LINE
8
BLACK
6
CONTINUOUS
10
3.22653
20
-4.61204
11
3.22957
21
-4.61001
0
LINE
8
BLACK
6
CONTINUOUS
10
3.22957
20
-4.61001
11
3.23315
21
-4.6093
0
LINE
8
BLACK
6
CONTINUOUS
10
3.23315
20
-4.6093
11
3.25677
21
-4.6093
0
LINE
8
BLACK
6
CONTINUOUS
10
3.25677
20
-4.6093
11
3.26035
21
-4.61001
0
LINE
8
BLACK
6
CONTINUOUS
10
3.0475
20
-4.61001
11
3.05053
21
-4.61204
0
LINE
8
BLACK
6
CONTINUOUS
10
3.05053
20
-4.61204
11
3.05256
21
-4.61507
0
LINE
8
BLACK
6
CONTINUOUS
10
3.05256
20
-4.61507
11
3.05327
21
-4.61865
0
LINE
8
BLACK
6
CONTINUOUS
10
3.05327
20
-4.61865
11
3.05327
21
-4.63735
0
LINE
8
BLACK
6
CONTINUOUS
10
3.05327
20
-4.63735
11
3.05256
21
-4.64093
0
LINE
8
BLACK
6
CONTINUOUS
10
3.05256
20
-4.64093
11
3.05053
21
-4.64396
0
LINE
8
BLACK
6
CONTINUOUS
10
3.05053
20
-4.64396
11
3.0475
21
-4.64599
0
LINE
8
BLACK
6
CONTINUOUS
10
3.0475
20
-4.64599
11
3.04392
21
-4.6467
0
LINE
8
BLACK
6
CONTINUOUS
10
3.04392
20
-4.6467
11
3.02423
21
-4.6467
0
LINE
8
BLACK
6
CONTINUOUS
10
3.02423
20
-4.6467
11
3.02065
21
-4.64599
0
LINE
8
BLACK
6
CONTINUOUS
10
3.02065
20
-4.64599
11
3.01762
21
-4.64396
0
LINE
8
BLACK
6
CONTINUOUS
10
3.01762
20
-4.64396
11
3.01559
21
-4.64093
0
LINE
8
BLACK
6
CONTINUOUS
10
3.01559
20
-4.64093
11
3.01488
21
-4.63735
0
LINE
8
BLACK
6
CONTINUOUS
10
3.01488
20
-4.63735
11
3.01488
21
-4.61865
0
LINE
8
BLACK
6
CONTINUOUS
10
3.01488
20
-4.61865
11
3.01559
21
-4.61507
0
LINE
8
BLACK
6
CONTINUOUS
10
3.01559
20
-4.61507
11
3.01762
21
-4.61204
0
LINE
8
BLACK
6
CONTINUOUS
10
3.01762
20
-4.61204
11
3.02065
21
-4.61001
0
LINE
8
BLACK
6
CONTINUOUS
10
3.02065
20
-4.61001
11
3.02423
21
-4.6093
0
LINE
8
BLACK
6
CONTINUOUS
10
3.02423
20
-4.6093
11
3.04392
21
-4.6093
0
LINE
8
BLACK
6
CONTINUOUS
10
3.04392
20
-4.6093
11
3.0475
21
-4.61001
0
LINE
8
BLACK
6
CONTINUOUS
10
3.11935
20
-4.61001
11
3.12238
21
-4.61204
0
LINE
8
BLACK
6
CONTINUOUS
10
3.12238
20
-4.61204
11
3.12441
21
-4.61507
0
LINE
8
BLACK
6
CONTINUOUS
10
3.12441
20
-4.61507
11
3.12512
21
-4.61865
0
LINE
8
BLACK
6
CONTINUOUS
10
3.12512
20
-4.61865
11
3.12512
21
-4.63735
0
LINE
8
BLACK
6
CONTINUOUS
10
3.12512
20
-4.63735
11
3.12441
21
-4.64093
0
LINE
8
BLACK
6
CONTINUOUS
10
3.12441
20
-4.64093
11
3.12238
21
-4.64396
0
LINE
8
BLACK
6
CONTINUOUS
10
3.12238
20
-4.64396
11
3.11935
21
-4.64599
0
LINE
8
BLACK
6
CONTINUOUS
10
3.11935
20
-4.64599
11
3.11577
21
-4.6467
0
LINE
8
BLACK
6
CONTINUOUS
10
3.11577
20
-4.6467
11
3.09608
21
-4.6467
0
LINE
8
BLACK
6
CONTINUOUS
10
3.09608
20
-4.6467
11
3.0925
21
-4.64599
0
LINE
8
BLACK
6
CONTINUOUS
10
3.0925
20
-4.64599
11
3.08947
21
-4.64396
0
LINE
8
BLACK
6
CONTINUOUS
10
3.08947
20
-4.64396
11
3.08744
21
-4.64093
0
LINE
8
BLACK
6
CONTINUOUS
10
3.08744
20
-4.64093
11
3.08673
21
-4.63735
0
LINE
8
BLACK
6
CONTINUOUS
10
3.08673
20
-4.63735
11
3.08673
21
-4.61865
0
LINE
8
BLACK
6
CONTINUOUS
10
3.08673
20
-4.61865
11
3.08744
21
-4.61507
0
LINE
8
BLACK
6
CONTINUOUS
10
3.08744
20
-4.61507
11
3.08947
21
-4.61204
0
LINE
8
BLACK
6
CONTINUOUS
10
3.08947
20
-4.61204
11
3.0925
21
-4.61001
0
LINE
8
BLACK
6
CONTINUOUS
10
3.0925
20
-4.61001
11
3.09608
21
-4.6093
0
LINE
8
BLACK
6
CONTINUOUS
10
3.09608
20
-4.6093
11
3.11577
21
-4.6093
0
LINE
8
BLACK
6
CONTINUOUS
10
3.11577
20
-4.6093
11
3.11935
21
-4.61001
0
LINE
8
BLACK
6
CONTINUOUS
10
3.48093
20
-4.54512
11
3.48396
21
-4.54714
0
LINE
8
BLACK
6
CONTINUOUS
10
3.48396
20
-4.54714
11
3.48599
21
-4.55018
0
LINE
8
BLACK
6
CONTINUOUS
10
3.48599
20
-4.55018
11
3.4867
21
-4.55376
0
LINE
8
BLACK
6
CONTINUOUS
10
3.4867
20
-4.55376
11
3.4867
21
-4.57639
0
LINE
8
BLACK
6
CONTINUOUS
10
3.4867
20
-4.57639
11
3.48599
21
-4.57997
0
LINE
8
BLACK
6
CONTINUOUS
10
3.48599
20
-4.57997
11
3.48396
21
-4.58301
0
LINE
8
BLACK
6
CONTINUOUS
10
3.48396
20
-4.58301
11
3.48093
21
-4.58503
0
LINE
8
BLACK
6
CONTINUOUS
10
3.48093
20
-4.58503
11
3.47735
21
-4.58574
0
LINE
8
BLACK
6
CONTINUOUS
10
3.47735
20
-4.58574
11
3.45865
21
-4.58574
0
LINE
8
BLACK
6
CONTINUOUS
10
3.45865
20
-4.58574
11
3.45507
21
-4.58503
0
LINE
8
BLACK
6
CONTINUOUS
10
3.45507
20
-4.58503
11
3.45204
21
-4.58301
0
LINE
8
BLACK
6
CONTINUOUS
10
3.45204
20
-4.58301
11
3.45001
21
-4.57997
0
LINE
8
BLACK
6
CONTINUOUS
10
3.45001
20
-4.57997
11
3.4493
21
-4.57639
0
LINE
8
BLACK
6
CONTINUOUS
10
3.4493
20
-4.57639
11
3.4493
21
-4.55376
0
LINE
8
BLACK
6
CONTINUOUS
10
3.4493
20
-4.55376
11
3.45001
21
-4.55018
0
LINE
8
BLACK
6
CONTINUOUS
10
3.45001
20
-4.55018
11
3.45204
21
-4.54714
0
LINE
8
BLACK
6
CONTINUOUS
10
3.45204
20
-4.54714
11
3.45507
21
-4.54512
0
LINE
8
BLACK
6
CONTINUOUS
10
3.45507
20
-4.54512
11
3.45865
21
-4.54441
0
LINE
8
BLACK
6
CONTINUOUS
10
3.45865
20
-4.54441
11
3.47735
21
-4.54441
0
LINE
8
BLACK
6
CONTINUOUS
10
3.47735
20
-4.54441
11
3.48093
21
-4.54512
0
LINE
8
BLACK
6
CONTINUOUS
10
3.41593
20
-4.54464
11
3.41896
21
-4.54667
0
LINE
8
BLACK
6
CONTINUOUS
10
3.41896
20
-4.54667
11
3.42099
21
-4.5497
0
LINE
8
BLACK
6
CONTINUOUS
10
3.42099
20
-4.5497
11
3.4217
21
-4.55328
0
LINE
8
BLACK
6
CONTINUOUS
10
3.4217
20
-4.55328
11
3.4217
21
-4.57592
0
LINE
8
BLACK
6
CONTINUOUS
10
3.4217
20
-4.57592
11
3.42099
21
-4.5795
0
LINE
8
BLACK
6
CONTINUOUS
10
3.42099
20
-4.5795
11
3.41896
21
-4.58253
0
LINE
8
BLACK
6
CONTINUOUS
10
3.41896
20
-4.58253
11
3.41593
21
-4.58456
0
LINE
8
BLACK
6
CONTINUOUS
10
3.41593
20
-4.58456
11
3.41235
21
-4.58527
0
LINE
8
BLACK
6
CONTINUOUS
10
3.41235
20
-4.58527
11
3.39365
21
-4.58527
0
LINE
8
BLACK
6
CONTINUOUS
10
3.39365
20
-4.58527
11
3.39007
21
-4.58456
0
LINE
8
BLACK
6
CONTINUOUS
10
3.39007
20
-4.58456
11
3.38704
21
-4.58253
0
LINE
8
BLACK
6
CONTINUOUS
10
3.38704
20
-4.58253
11
3.38501
21
-4.5795
0
LINE
8
BLACK
6
CONTINUOUS
10
3.38501
20
-4.5795
11
3.3843
21
-4.57592
0
LINE
8
BLACK
6
CONTINUOUS
10
3.3843
20
-4.57592
11
3.3843
21
-4.55328
0
LINE
8
BLACK
6
CONTINUOUS
10
3.3843
20
-4.55328
11
3.38501
21
-4.5497
0
LINE
8
BLACK
6
CONTINUOUS
10
3.38501
20
-4.5497
11
3.38704
21
-4.54667
0
LINE
8
BLACK
6
CONTINUOUS
10
3.38704
20
-4.54667
11
3.39007
21
-4.54464
0
LINE
8
BLACK
6
CONTINUOUS
10
3.39007
20
-4.54464
11
3.39365
21
-4.54393
0
LINE
8
BLACK
6
CONTINUOUS
10
3.39365
20
-4.54393
11
3.41235
21
-4.54393
0
LINE
8
BLACK
6
CONTINUOUS
10
3.41235
20
-4.54393
11
3.41593
21
-4.54464
0
LINE
8
BLACK
6
CONTINUOUS
10
3.11839
20
-4.53001
11
3.12142
21
-4.53204
0
LINE
8
BLACK
6
CONTINUOUS
10
3.12142
20
-4.53204
11
3.12345
21
-4.53507
0
LINE
8
BLACK
6
CONTINUOUS
10
3.12345
20
-4.53507
11
3.12416
21
-4.53865
0
LINE
8
BLACK
6
CONTINUOUS
10
3.12416
20
-4.53865
11
3.12416
21
-4.55735
0
LINE
8
BLACK
6
CONTINUOUS
10
3.12416
20
-4.55735
11
3.12345
21
-4.56093
0
LINE
8
BLACK
6
CONTINUOUS
10
3.12345
20
-4.56093
11
3.12142
21
-4.56396
0
LINE
8
BLACK
6
CONTINUOUS
10
3.12142
20
-4.56396
11
3.11839
21
-4.56599
0
LINE
8
BLACK
6
CONTINUOUS
10
3.11839
20
-4.56599
11
3.11481
21
-4.5667
0
LINE
8
BLACK
6
CONTINUOUS
10
3.11481
20
-4.5667
11
3.09119
21
-4.5667
0
LINE
8
BLACK
6
CONTINUOUS
10
3.09119
20
-4.5667
11
3.08761
21
-4.56599
0
LINE
8
BLACK
6
CONTINUOUS
10
3.08761
20
-4.56599
11
3.08458
21
-4.56396
0
LINE
8
BLACK
6
CONTINUOUS
10
3.08458
20
-4.56396
11
3.08255
21
-4.56093
0
LINE
8
BLACK
6
CONTINUOUS
10
3.08255
20
-4.56093
11
3.08184
21
-4.55735
0
LINE
8
BLACK
6
CONTINUOUS
10
3.08184
20
-4.55735
11
3.08184
21
-4.53865
0
LINE
8
BLACK
6
CONTINUOUS
10
3.08184
20
-4.53865
11
3.08255
21
-4.53507
0
LINE
8
BLACK
6
CONTINUOUS
10
3.08255
20
-4.53507
11
3.08458
21
-4.53204
0
LINE
8
BLACK
6
CONTINUOUS
10
3.08458
20
-4.53204
11
3.08761
21
-4.53001
0
LINE
8
BLACK
6
CONTINUOUS
10
3.08761
20
-4.53001
11
3.09119
21
-4.5293
0
LINE
8
BLACK
6
CONTINUOUS
10
3.09119
20
-4.5293
11
3.11481
21
-4.5293
0
LINE
8
BLACK
6
CONTINUOUS
10
3.11481
20
-4.5293
11
3.11839
21
-4.53001
0
LINE
8
BLACK
6
CONTINUOUS
10
3.05048
20
-4.53001
11
3.05351
21
-4.53204
0
LINE
8
BLACK
6
CONTINUOUS
10
3.05351
20
-4.53204
11
3.05554
21
-4.53507
0
LINE
8
BLACK
6
CONTINUOUS
10
3.05554
20
-4.53507
11
3.05625
21
-4.53865
0
LINE
8
BLACK
6
CONTINUOUS
10
3.05625
20
-4.53865
11
3.05625
21
-4.55735
0
LINE
8
BLACK
6
CONTINUOUS
10
3.05625
20
-4.55735
11
3.05554
21
-4.56093
0
LINE
8
BLACK
6
CONTINUOUS
10
3.05554
20
-4.56093
11
3.05351
21
-4.56396
0
LINE
8
BLACK
6
CONTINUOUS
10
3.05351
20
-4.56396
11
3.05048
21
-4.56599
0
LINE
8
BLACK
6
CONTINUOUS
10
3.05048
20
-4.56599
11
3.0469
21
-4.5667
0
LINE
8
BLACK
6
CONTINUOUS
10
3.0469
20
-4.5667
11
3.02328
21
-4.5667
0
LINE
8
BLACK
6
CONTINUOUS
10
3.02328
20
-4.5667
11
3.0197
21
-4.56599
0
LINE
8
BLACK
6
CONTINUOUS
10
3.0197
20
-4.56599
11
3.01666
21
-4.56396
0
LINE
8
BLACK
6
CONTINUOUS
10
3.01666
20
-4.56396
11
3.01464
21
-4.56093
0
LINE
8
BLACK
6
CONTINUOUS
10
3.01464
20
-4.56093
11
3.01393
21
-4.55735
0
LINE
8
BLACK
6
CONTINUOUS
10
3.01393
20
-4.55735
11
3.01393
21
-4.53865
0
LINE
8
BLACK
6
CONTINUOUS
10
3.01393
20
-4.53865
11
3.01464
21
-4.53507
0
LINE
8
BLACK
6
CONTINUOUS
10
3.01464
20
-4.53507
11
3.01666
21
-4.53204
0
LINE
8
BLACK
6
CONTINUOUS
10
3.01666
20
-4.53204
11
3.0197
21
-4.53001
0
LINE
8
BLACK
6
CONTINUOUS
10
3.0197
20
-4.53001
11
3.02328
21
-4.5293
0
LINE
8
BLACK
6
CONTINUOUS
10
3.02328
20
-4.5293
11
3.0469
21
-4.5293
0
LINE
8
BLACK
6
CONTINUOUS
10
3.0469
20
-4.5293
11
3.05048
21
-4.53001
0
LINE
8
BLACK
6
CONTINUOUS
10
2.76823
20
-4.5568
11
2.70917
21
-4.5568
0
LINE
8
BLACK
6
CONTINUOUS
10
2.70917
20
-4.5568
11
2.70917
21
-4.5312
0
LINE
8
BLACK
6
CONTINUOUS
10
2.70917
20
-4.5312
11
2.76823
21
-4.5312
0
LINE
8
BLACK
6
CONTINUOUS
10
2.76823
20
-4.5312
11
2.76823
21
-4.5568
0
LINE
8
BLACK
6
CONTINUOUS
10
2.98083
20
-4.5568
11
2.92177
21
-4.5568
0
LINE
8
BLACK
6
CONTINUOUS
10
2.92177
20
-4.5568
11
2.92177
21
-4.5312
0
LINE
8
BLACK
6
CONTINUOUS
10
2.92177
20
-4.5312
11
2.98083
21
-4.5312
0
LINE
8
BLACK
6
CONTINUOUS
10
2.98083
20
-4.5312
11
2.98083
21
-4.5568
0
LINE
8
BLACK
6
CONTINUOUS
10
3.48093
20
-4.47622
11
3.48396
21
-4.47825
0
LINE
8
BLACK
6
CONTINUOUS
10
3.48396
20
-4.47825
11
3.48599
21
-4.48128
0
LINE
8
BLACK
6
CONTINUOUS
10
3.48599
20
-4.48128
11
3.4867
21
-4.48486
0
LINE
8
BLACK
6
CONTINUOUS
10
3.4867
20
-4.48486
11
3.4867
21
-4.5075
0
LINE
8
BLACK
6
CONTINUOUS
10
3.4867
20
-4.5075
11
3.48599
21
-4.51107
0
LINE
8
BLACK
6
CONTINUOUS
10
3.48599
20
-4.51107
11
3.48396
21
-4.51411
0
LINE
8
BLACK
6
CONTINUOUS
10
3.48396
20
-4.51411
11
3.48093
21
-4.51613
0
LINE
8
BLACK
6
CONTINUOUS
10
3.48093
20
-4.51613
11
3.47735
21
-4.51685
0
LINE
8
BLACK
6
CONTINUOUS
10
3.47735
20
-4.51685
11
3.45865
21
-4.51685
0
LINE
8
BLACK
6
CONTINUOUS
10
3.45865
20
-4.51685
11
3.45507
21
-4.51613
0
LINE
8
BLACK
6
CONTINUOUS
10
3.45507
20
-4.51613
11
3.45204
21
-4.51411
0
LINE
8
BLACK
6
CONTINUOUS
10
3.45204
20
-4.51411
11
3.45001
21
-4.51107
0
LINE
8
BLACK
6
CONTINUOUS
10
3.45001
20
-4.51107
11
3.4493
21
-4.5075
0
LINE
8
BLACK
6
CONTINUOUS
10
3.4493
20
-4.5075
11
3.4493
21
-4.48486
0
LINE
8
BLACK
6
CONTINUOUS
10
3.4493
20
-4.48486
11
3.45001
21
-4.48128
0
LINE
8
BLACK
6
CONTINUOUS
10
3.45001
20
-4.48128
11
3.45204
21
-4.47825
0
LINE
8
BLACK
6
CONTINUOUS
10
3.45204
20
-4.47825
11
3.45507
21
-4.47622
0
LINE
8
BLACK
6
CONTINUOUS
10
3.45507
20
-4.47622
11
3.45865
21
-4.47551
0
LINE
8
BLACK
6
CONTINUOUS
10
3.45865
20
-4.47551
11
3.47735
21
-4.47551
0
LINE
8
BLACK
6
CONTINUOUS
10
3.47735
20
-4.47551
11
3.48093
21
-4.47622
0
LINE
8
BLACK
6
CONTINUOUS
10
3.41593
20
-4.47574
11
3.41896
21
-4.47777
0
LINE
8
BLACK
6
CONTINUOUS
10
3.41896
20
-4.47777
11
3.42099
21
-4.4808
0
LINE
8
BLACK
6
CONTINUOUS
10
3.42099
20
-4.4808
11
3.4217
21
-4.48438
0
LINE
8
BLACK
6
CONTINUOUS
10
3.4217
20
-4.48438
11
3.4217
21
-4.50702
0
LINE
8
BLACK
6
CONTINUOUS
10
3.4217
20
-4.50702
11
3.42099
21
-4.5106
0
LINE
8
BLACK
6
CONTINUOUS
10
3.42099
20
-4.5106
11
3.41896
21
-4.51363
0
LINE
8
BLACK
6
CONTINUOUS
10
3.41896
20
-4.51363
11
3.41593
21
-4.51566
0
LINE
8
BLACK
6
CONTINUOUS
10
3.41593
20
-4.51566
11
3.41235
21
-4.51637
0
LINE
8
BLACK
6
CONTINUOUS
10
3.41235
20
-4.51637
11
3.39365
21
-4.51637
0
LINE
8
BLACK
6
CONTINUOUS
10
3.39365
20
-4.51637
11
3.39007
21
-4.51566
0
LINE
8
BLACK
6
CONTINUOUS
10
3.39007
20
-4.51566
11
3.38704
21
-4.51363
0
LINE
8
BLACK
6
CONTINUOUS
10
3.38704
20
-4.51363
11
3.38501
21
-4.5106
0
LINE
8
BLACK
6
CONTINUOUS
10
3.38501
20
-4.5106
11
3.3843
21
-4.50702
0
LINE
8
BLACK
6
CONTINUOUS
10
3.3843
20
-4.50702
11
3.3843
21
-4.48438
0
LINE
8
BLACK
6
CONTINUOUS
10
3.3843
20
-4.48438
11
3.38501
21
-4.4808
0
LINE
8
BLACK
6
CONTINUOUS
10
3.38501
20
-4.4808
11
3.38704
21
-4.47777
0
LINE
8
BLACK
6
CONTINUOUS
10
3.38704
20
-4.47777
11
3.39007
21
-4.47574
0
LINE
8
BLACK
6
CONTINUOUS
10
3.39007
20
-4.47574
11
3.39365
21
-4.47503
0
LINE
8
BLACK
6
CONTINUOUS
10
3.39365
20
-4.47503
11
3.41235
21
-4.47503
0
LINE
8
BLACK
6
CONTINUOUS
10
3.41235
20
-4.47503
11
3.41593
21
-4.47574
0
LINE
8
BLACK
6
CONTINUOUS
10
2.76823
20
-4.5068
11
2.70917
21
-4.5068
0
LINE
8
BLACK
6
CONTINUOUS
10
2.70917
20
-4.5068
11
2.70917
21
-4.4812
0
LINE
8
BLACK
6
CONTINUOUS
10
2.70917
20
-4.4812
11
2.76823
21
-4.4812
0
LINE
8
BLACK
6
CONTINUOUS
10
2.76823
20
-4.4812
11
2.76823
21
-4.5068
0
LINE
8
BLACK
6
CONTINUOUS
10
2.98083
20
-4.5068
11
2.92177
21
-4.5068
0
LINE
8
BLACK
6
CONTINUOUS
10
2.92177
20
-4.5068
11
2.92177
21
-4.4812
0
LINE
8
BLACK
6
CONTINUOUS
10
2.92177
20
-4.4812
11
2.98083
21
-4.4812
0
LINE
8
BLACK
6
CONTINUOUS
10
2.98083
20
-4.4812
11
2.98083
21
-4.5068
0
LINE
8
BLACK
6
CONTINUOUS
10
2.67135
20
-4.45201
11
2.67438
21
-4.45404
0
LINE
8
BLACK
6
CONTINUOUS
10
2.67438
20
-4.45404
11
2.67641
21
-4.45707
0
LINE
8
BLACK
6
CONTINUOUS
10
2.67641
20
-4.45707
11
2.67712
21
-4.46065
0
LINE
8
BLACK
6
CONTINUOUS
10
2.67712
20
-4.46065
11
2.67712
21
-4.47935
0
LINE
8
BLACK
6
CONTINUOUS
10
2.67712
20
-4.47935
11
2.67641
21
-4.48293
0
LINE
8
BLACK
6
CONTINUOUS
10
2.67641
20
-4.48293
11
2.67438
21
-4.48596
0
LINE
8
BLACK
6
CONTINUOUS
10
2.67438
20
-4.48596
11
2.67135
21
-4.48799
0
LINE
8
BLACK
6
CONTINUOUS
10
2.67135
20
-4.48799
11
2.66777
21
-4.4887
0
LINE
8
BLACK
6
CONTINUOUS
10
2.66777
20
-4.4887
11
2.64415
21
-4.4887
0
LINE
8
BLACK
6
CONTINUOUS
10
2.64415
20
-4.4887
11
2.64057
21
-4.48799
0
LINE
8
BLACK
6
CONTINUOUS
10
2.64057
20
-4.48799
11
2.63753
21
-4.48596
0
LINE
8
BLACK
6
CONTINUOUS
10
2.63753
20
-4.48596
11
2.63551
21
-4.48293
0
LINE
8
BLACK
6
CONTINUOUS
10
2.63551
20
-4.48293
11
2.6348
21
-4.47935
0
LINE
8
BLACK
6
CONTINUOUS
10
2.6348
20
-4.47935
11
2.6348
21
-4.46065
0
LINE
8
BLACK
6
CONTINUOUS
10
2.6348
20
-4.46065
11
2.63551
21
-4.45707
0
LINE
8
BLACK
6
CONTINUOUS
10
2.63551
20
-4.45707
11
2.63753
21
-4.45404
0
LINE
8
BLACK
6
CONTINUOUS
10
2.63753
20
-4.45404
11
2.64057
21
-4.45201
0
LINE
8
BLACK
6
CONTINUOUS
10
2.64057
20
-4.45201
11
2.64415
21
-4.4513
0
LINE
8
BLACK
6
CONTINUOUS
10
2.64415
20
-4.4513
11
2.66777
21
-4.4513
0
LINE
8
BLACK
6
CONTINUOUS
10
2.66777
20
-4.4513
11
2.67135
21
-4.45201
0
LINE
8
BLACK
6
CONTINUOUS
10
2.60343
20
-4.45201
11
2.60647
21
-4.45404
0
LINE
8
BLACK
6
CONTINUOUS
10
2.60647
20
-4.45404
11
2.60849
21
-4.45707
0
LINE
8
BLACK
6
CONTINUOUS
10
2.60849
20
-4.45707
11
2.6092
21
-4.46065
0
LINE
8
BLACK
6
CONTINUOUS
10
2.6092
20
-4.46065
11
2.6092
21
-4.47935
0
LINE
8
BLACK
6
CONTINUOUS
10
2.6092
20
-4.47935
11
2.60849
21
-4.48293
0
LINE
8
BLACK
6
CONTINUOUS
10
2.60849
20
-4.48293
11
2.60647
21
-4.48596
0
LINE
8
BLACK
6
CONTINUOUS
10
2.60647
20
-4.48596
11
2.60343
21
-4.48799
0
LINE
8
BLACK
6
CONTINUOUS
10
2.60343
20
-4.48799
11
2.59985
21
-4.4887
0
LINE
8
BLACK
6
CONTINUOUS
10
2.59985
20
-4.4887
11
2.57623
21
-4.4887
0
LINE
8
BLACK
6
CONTINUOUS
10
2.57623
20
-4.4887
11
2.57265
21
-4.48799
0
LINE
8
BLACK
6
CONTINUOUS
10
2.57265
20
-4.48799
11
2.56962
21
-4.48596
0
LINE
8
BLACK
6
CONTINUOUS
10
2.56962
20
-4.48596
11
2.56759
21
-4.48293
0
LINE
8
BLACK
6
CONTINUOUS
10
2.56759
20
-4.48293
11
2.56688
21
-4.47935
0
LINE
8
BLACK
6
CONTINUOUS
10
2.56688
20
-4.47935
11
2.56688
21
-4.46065
0
LINE
8
BLACK
6
CONTINUOUS
10
2.56688
20
-4.46065
11
2.56759
21
-4.45707
0
LINE
8
BLACK
6
CONTINUOUS
10
2.56759
20
-4.45707
11
2.56962
21
-4.45404
0
LINE
8
BLACK
6
CONTINUOUS
10
2.56962
20
-4.45404
11
2.57265
21
-4.45201
0
LINE
8
BLACK
6
CONTINUOUS
10
2.57265
20
-4.45201
11
2.57623
21
-4.4513
0
LINE
8
BLACK
6
CONTINUOUS
10
2.57623
20
-4.4513
11
2.59985
21
-4.4513
0
LINE
8
BLACK
6
CONTINUOUS
10
2.59985
20
-4.4513
11
2.60343
21
-4.45201
0
LINE
8
BLACK
6
CONTINUOUS
10
2.76823
20
-4.4568
11
2.70917
21
-4.4568
0
LINE
8
BLACK
6
CONTINUOUS
10
2.70917
20
-4.4568
11
2.70917
21
-4.4312
0
LINE
8
BLACK
6
CONTINUOUS
10
2.70917
20
-4.4312
11
2.76823
21
-4.4312
0
LINE
8
BLACK
6
CONTINUOUS
10
2.76823
20
-4.4312
11
2.76823
21
-4.4568
0
LINE
8
BLACK
6
CONTINUOUS
10
2.98083
20
-4.4568
11
2.92177
21
-4.4568
0
LINE
8
BLACK
6
CONTINUOUS
10
2.92177
20
-4.4568
11
2.92177
21
-4.4312
0
LINE
8
BLACK
6
CONTINUOUS
10
2.92177
20
-4.4312
11
2.98083
21
-4.4312
0
LINE
8
BLACK
6
CONTINUOUS
10
2.98083
20
-4.4312
11
2.98083
21
-4.4568
0
LINE
8
BLACK
6
CONTINUOUS
10
4.37756
20
-4.4502
11
4.31614
21
-4.4502
0
LINE
8
BLACK
6
CONTINUOUS
10
4.31614
20
-4.4502
11
4.31614
21
-4.42461
0
LINE
8
BLACK
6
CONTINUOUS
10
4.31614
20
-4.42461
11
4.37756
21
-4.42461
0
LINE
8
BLACK
6
CONTINUOUS
10
4.37756
20
-4.42461
11
4.37756
21
-4.4502
0
LINE
8
BLACK
6
CONTINUOUS
10
4.48386
20
-4.4502
11
4.42244
21
-4.4502
0
LINE
8
BLACK
6
CONTINUOUS
10
4.42244
20
-4.4502
11
4.42244
21
-4.42461
0
LINE
8
BLACK
6
CONTINUOUS
10
4.42244
20
-4.42461
11
4.48386
21
-4.42461
0
LINE
8
BLACK
6
CONTINUOUS
10
4.48386
20
-4.42461
11
4.48386
21
-4.4502
0
LINE
8
BLACK
6
CONTINUOUS
10
3.48093
20
-4.40844
11
3.48396
21
-4.41047
0
LINE
8
BLACK
6
CONTINUOUS
10
3.48396
20
-4.41047
11
3.48599
21
-4.4135
0
LINE
8
BLACK
6
CONTINUOUS
10
3.48599
20
-4.4135
11
3.4867
21
-4.41708
0
LINE
8
BLACK
6
CONTINUOUS
10
3.4867
20
-4.41708
11
3.4867
21
-4.43677
0
LINE
8
BLACK
6
CONTINUOUS
10
3.4867
20
-4.43677
11
3.48599
21
-4.44035
0
LINE
8
BLACK
6
CONTINUOUS
10
3.48599
20
-4.44035
11
3.48396
21
-4.44338
0
LINE
8
BLACK
6
CONTINUOUS
10
3.48396
20
-4.44338
11
3.48093
21
-4.44541
0
LINE
8
BLACK
6
CONTINUOUS
10
3.48093
20
-4.44541
11
3.47735
21
-4.44612
0
LINE
8
BLACK
6
CONTINUOUS
10
3.47735
20
-4.44612
11
3.45865
21
-4.44612
0
LINE
8
BLACK
6
CONTINUOUS
10
3.45865
20
-4.44612
11
3.45507
21
-4.44541
0
LINE
8
BLACK
6
CONTINUOUS
10
3.45507
20
-4.44541
11
3.45204
21
-4.44338
0
LINE
8
BLACK
6
CONTINUOUS
10
3.45204
20
-4.44338
11
3.45001
21
-4.44035
0
LINE
8
BLACK
6
CONTINUOUS
10
3.45001
20
-4.44035
11
3.4493
21
-4.43677
0
LINE
8
BLACK
6
CONTINUOUS
10
3.4493
20
-4.43677
11
3.4493
21
-4.41708
0
LINE
8
BLACK
6
CONTINUOUS
10
3.4493
20
-4.41708
11
3.45001
21
-4.4135
0
LINE
8
BLACK
6
CONTINUOUS
10
3.45001
20
-4.4135
11
3.45204
21
-4.41047
0
LINE
8
BLACK
6
CONTINUOUS
10
3.45204
20
-4.41047
11
3.45507
21
-4.40844
0
LINE
8
BLACK
6
CONTINUOUS
10
3.45507
20
-4.40844
11
3.45865
21
-4.40773
0
LINE
8
BLACK
6
CONTINUOUS
10
3.45865
20
-4.40773
11
3.47735
21
-4.40773
0
LINE
8
BLACK
6
CONTINUOUS
10
3.47735
20
-4.40773
11
3.48093
21
-4.40844
0
LINE
8
BLACK
6
CONTINUOUS
10
3.41593
20
-4.40812
11
3.41896
21
-4.41014
0
LINE
8
BLACK
6
CONTINUOUS
10
3.41896
20
-4.41014
11
3.42099
21
-4.41318
0
LINE
8
BLACK
6
CONTINUOUS
10
3.42099
20
-4.41318
11
3.4217
21
-4.41676
0
LINE
8
BLACK
6
CONTINUOUS
10
3.4217
20
-4.41676
11
3.4217
21
-4.43644
0
LINE
8
BLACK
6
CONTINUOUS
10
3.4217
20
-4.43644
11
3.42099
21
-4.44002
0
LINE
8
BLACK
6
CONTINUOUS
10
3.42099
20
-4.44002
11
3.41896
21
-4.44305
0
LINE
8
BLACK
6
CONTINUOUS
10
3.41896
20
-4.44305
11
3.41593
21
-4.44508
0
LINE
8
BLACK
6
CONTINUOUS
10
3.41593
20
-4.44508
11
3.41235
21
-4.44579
0
LINE
8
BLACK
6
CONTINUOUS
10
3.41235
20
-4.44579
11
3.39365
21
-4.44579
0
LINE
8
BLACK
6
CONTINUOUS
10
3.39365
20
-4.44579
11
3.39007
21
-4.44508
0
LINE
8
BLACK
6
CONTINUOUS
10
3.39007
20
-4.44508
11
3.38704
21
-4.44305
0
LINE
8
BLACK
6
CONTINUOUS
10
3.38704
20
-4.44305
11
3.38501
21
-4.44002
0
LINE
8
BLACK
6
CONTINUOUS
10
3.38501
20
-4.44002
11
3.3843
21
-4.43644
0
LINE
8
BLACK
6
CONTINUOUS
10
3.3843
20
-4.43644
11
3.3843
21
-4.41676
0
LINE
8
BLACK
6
CONTINUOUS
10
3.3843
20
-4.41676
11
3.38501
21
-4.41318
0
LINE
8
BLACK
6
CONTINUOUS
10
3.38501
20
-4.41318
11
3.38704
21
-4.41014
0
LINE
8
BLACK
6
CONTINUOUS
10
3.38704
20
-4.41014
11
3.39007
21
-4.40812
0
LINE
8
BLACK
6
CONTINUOUS
10
3.39007
20
-4.40812
11
3.39365
21
-4.40741
0
LINE
8
BLACK
6
CONTINUOUS
10
3.39365
20
-4.40741
11
3.41235
21
-4.40741
0
LINE
8
BLACK
6
CONTINUOUS
10
3.41235
20
-4.40741
11
3.41593
21
-4.40812
0
LINE
8
BLACK
6
CONTINUOUS
10
3.21947
20
-4.38584
11
3.22251
21
-4.38786
0
LINE
8
BLACK
6
CONTINUOUS
10
3.22251
20
-4.38786
11
3.22453
21
-4.3909
0
LINE
8
BLACK
6
CONTINUOUS
10
3.22453
20
-4.3909
11
3.22524
21
-4.39448
0
LINE
8
BLACK
6
CONTINUOUS
10
3.22524
20
-4.39448
11
3.22524
21
-4.41416
0
LINE
8
BLACK
6
CONTINUOUS
10
3.22524
20
-4.41416
11
3.22453
21
-4.41774
0
LINE
8
BLACK
6
CONTINUOUS
10
3.22453
20
-4.41774
11
3.22251
21
-4.42077
0
LINE
8
BLACK
6
CONTINUOUS
10
3.22251
20
-4.42077
11
3.21947
21
-4.4228
0
LINE
8
BLACK
6
CONTINUOUS
10
3.21947
20
-4.4228
11
3.21589
21
-4.42351
0
LINE
8
BLACK
6
CONTINUOUS
10
3.21589
20
-4.42351
11
3.19719
21
-4.42351
0
LINE
8
BLACK
6
CONTINUOUS
10
3.19719
20
-4.42351
11
3.19361
21
-4.4228
0
LINE
8
BLACK
6
CONTINUOUS
10
3.19361
20
-4.4228
11
3.19058
21
-4.42077
0
LINE
8
BLACK
6
CONTINUOUS
10
3.19058
20
-4.42077
11
3.18855
21
-4.41774
0
LINE
8
BLACK
6
CONTINUOUS
10
3.18855
20
-4.41774
11
3.18784
21
-4.41416
0
LINE
8
BLACK
6
CONTINUOUS
10
3.18784
20
-4.41416
11
3.18784
21
-4.39448
0
LINE
8
BLACK
6
CONTINUOUS
10
3.18784
20
-4.39448
11
3.18855
21
-4.3909
0
LINE
8
BLACK
6
CONTINUOUS
10
3.18855
20
-4.3909
11
3.19058
21
-4.38786
0
LINE
8
BLACK
6
CONTINUOUS
10
3.19058
20
-4.38786
11
3.19361
21
-4.38584
0
LINE
8
BLACK
6
CONTINUOUS
10
3.19361
20
-4.38584
11
3.19719
21
-4.38513
0
LINE
8
BLACK
6
CONTINUOUS
10
3.19719
20
-4.38513
11
3.21589
21
-4.38513
0
LINE
8
BLACK
6
CONTINUOUS
10
3.21589
20
-4.38513
11
3.21947
21
-4.38584
0
LINE
8
BLACK
6
CONTINUOUS
10
3.15247
20
-4.38576
11
3.15551
21
-4.38779
0
LINE
8
BLACK
6
CONTINUOUS
10
3.15551
20
-4.38779
11
3.15753
21
-4.39082
0
LINE
8
BLACK
6
CONTINUOUS
10
3.15753
20
-4.39082
11
3.15824
21
-4.3944
0
LINE
8
BLACK
6
CONTINUOUS
10
3.15824
20
-4.3944
11
3.15824
21
-4.41409
0
LINE
8
BLACK
6
CONTINUOUS
10
3.15824
20
-4.41409
11
3.15753
21
-4.41766
0
LINE
8
BLACK
6
CONTINUOUS
10
3.15753
20
-4.41766
11
3.15551
21
-4.4207
0
LINE
8
BLACK
6
CONTINUOUS
10
3.15551
20
-4.4207
11
3.15247
21
-4.42273
0
LINE
8
BLACK
6
CONTINUOUS
10
3.15247
20
-4.42273
11
3.14889
21
-4.42344
0
LINE
8
BLACK
6
CONTINUOUS
10
3.14889
20
-4.42344
11
3.13019
21
-4.42344
0
LINE
8
BLACK
6
CONTINUOUS
10
3.13019
20
-4.42344
11
3.12661
21
-4.42273
0
LINE
8
BLACK
6
CONTINUOUS
10
3.12661
20
-4.42273
11
3.12358
21
-4.4207
0
LINE
8
BLACK
6
CONTINUOUS
10
3.12358
20
-4.4207
11
3.12155
21
-4.41766
0
LINE
8
BLACK
6
CONTINUOUS
10
3.12155
20
-4.41766
11
3.12084
21
-4.41409
0
LINE
8
BLACK
6
CONTINUOUS
10
3.12084
20
-4.41409
11
3.12084
21
-4.3944
0
LINE
8
BLACK
6
CONTINUOUS
10
3.12084
20
-4.3944
11
3.12155
21
-4.39082
0
LINE
8
BLACK
6
CONTINUOUS
10
3.12155
20
-4.39082
11
3.12358
21
-4.38779
0
LINE
8
BLACK
6
CONTINUOUS
10
3.12358
20
-4.38779
11
3.12661
21
-4.38576
0
LINE
8
BLACK
6
CONTINUOUS
10
3.12661
20
-4.38576
11
3.13019
21
-4.38505
0
LINE
8
BLACK
6
CONTINUOUS
10
3.13019
20
-4.38505
11
3.14889
21
-4.38505
0
LINE
8
BLACK
6
CONTINUOUS
10
3.14889
20
-4.38505
11
3.15247
21
-4.38576
0
LINE
8
BLACK
6
CONTINUOUS
10
4.48386
20
-4.4128
11
4.42244
21
-4.4128
0
LINE
8
BLACK
6
CONTINUOUS
10
4.42244
20
-4.4128
11
4.42244
21
-4.3872
0
LINE
8
BLACK
6
CONTINUOUS
10
4.42244
20
-4.3872
11
4.48386
21
-4.3872
0
LINE
8
BLACK
6
CONTINUOUS
10
4.48386
20
-4.3872
11
4.48386
21
-4.4128
0
LINE
8
BLACK
6
CONTINUOUS
10
4.37756
20
-4.4128
11
4.31614
21
-4.4128
0
LINE
8
BLACK
6
CONTINUOUS
10
4.31614
20
-4.4128
11
4.31614
21
-4.3872
0
LINE
8
BLACK
6
CONTINUOUS
10
4.31614
20
-4.3872
11
4.37756
21
-4.3872
0
LINE
8
BLACK
6
CONTINUOUS
10
4.37756
20
-4.3872
11
4.37756
21
-4.4128
0
LINE
8
BLACK
6
CONTINUOUS
10
2.76823
20
-4.4068
11
2.70917
21
-4.4068
0
LINE
8
BLACK
6
CONTINUOUS
10
2.70917
20
-4.4068
11
2.70917
21
-4.3812
0
LINE
8
BLACK
6
CONTINUOUS
10
2.70917
20
-4.3812
11
2.76823
21
-4.3812
0
LINE
8
BLACK
6
CONTINUOUS
10
2.76823
20
-4.3812
11
2.76823
21
-4.4068
0
LINE
8
BLACK
6
CONTINUOUS
10
2.98083
20
-4.4068
11
2.92177
21
-4.4068
0
LINE
8
BLACK
6
CONTINUOUS
10
2.92177
20
-4.4068
11
2.92177
21
-4.3812
0
LINE
8
BLACK
6
CONTINUOUS
10
2.92177
20
-4.3812
11
2.98083
21
-4.3812
0
LINE
8
BLACK
6
CONTINUOUS
10
2.98083
20
-4.3812
11
2.98083
21
-4.4068
0
LINE
8
BLACK
6
CONTINUOUS
10
4.37756
20
-4.37539
11
4.31614
21
-4.37539
0
LINE
8
BLACK
6
CONTINUOUS
10
4.31614
20
-4.37539
11
4.31614
21
-4.3498
0
LINE
8
BLACK
6
CONTINUOUS
10
4.31614
20
-4.3498
11
4.37756
21
-4.3498
0
LINE
8
BLACK
6
CONTINUOUS
10
4.37756
20
-4.3498
11
4.37756
21
-4.37539
0
LINE
8
BLACK
6
CONTINUOUS
10
4.48386
20
-4.37539
11
4.42244
21
-4.37539
0
LINE
8
BLACK
6
CONTINUOUS
10
4.42244
20
-4.37539
11
4.42244
21
-4.3498
0
LINE
8
BLACK
6
CONTINUOUS
10
4.42244
20
-4.3498
11
4.48386
21
-4.3498
0
LINE
8
BLACK
6
CONTINUOUS
10
4.48386
20
-4.3498
11
4.48386
21
-4.37539
0
LINE
8
BLACK
6
CONTINUOUS
10
3.48093
20
-4.33659
11
3.48396
21
-4.33862
0
LINE
8
BLACK
6
CONTINUOUS
10
3.48396
20
-4.33862
11
3.48599
21
-4.34165
0
LINE
8
BLACK
6
CONTINUOUS
10
3.48599
20
-4.34165
11
3.4867
21
-4.34523
0
LINE
8
BLACK
6
CONTINUOUS
10
3.4867
20
-4.34523
11
3.4867
21
-4.36492
0
LINE
8
BLACK
6
CONTINUOUS
10
3.4867
20
-4.36492
11
3.48599
21
-4.3685
0
LINE
8
BLACK
6
CONTINUOUS
10
3.48599
20
-4.3685
11
3.48396
21
-4.37153
0
LINE
8
BLACK
6
CONTINUOUS
10
3.48396
20
-4.37153
11
3.48093
21
-4.37356
0
LINE
8
BLACK
6
CONTINUOUS
10
3.48093
20
-4.37356
11
3.47735
21
-4.37427
0
LINE
8
BLACK
6
CONTINUOUS
10
3.47735
20
-4.37427
11
3.45865
21
-4.37427
0
LINE
8
BLACK
6
CONTINUOUS
10
3.45865
20
-4.37427
11
3.45507
21
-4.37356
0
LINE
8
BLACK
6
CONTINUOUS
10
3.45507
20
-4.37356
11
3.45204
21
-4.37153
0
LINE
8
BLACK
6
CONTINUOUS
10
3.45204
20
-4.37153
11
3.45001
21
-4.3685
0
LINE
8
BLACK
6
CONTINUOUS
10
3.45001
20
-4.3685
11
3.4493
21
-4.36492
0
LINE
8
BLACK
6
CONTINUOUS
10
3.4493
20
-4.36492
11
3.4493
21
-4.34523
0
LINE
8
BLACK
6
CONTINUOUS
10
3.4493
20
-4.34523
11
3.45001
21
-4.34165
0
LINE
8
BLACK
6
CONTINUOUS
10
3.45001
20
-4.34165
11
3.45204
21
-4.33862
0
LINE
8
BLACK
6
CONTINUOUS
10
3.45204
20
-4.33862
11
3.45507
21
-4.33659
0
LINE
8
BLACK
6
CONTINUOUS
10
3.45507
20
-4.33659
11
3.45865
21
-4.33588
0
LINE
8
BLACK
6
CONTINUOUS
10
3.45865
20
-4.33588
11
3.47735
21
-4.33588
0
LINE
8
BLACK
6
CONTINUOUS
10
3.47735
20
-4.33588
11
3.48093
21
-4.33659
0
LINE
8
BLACK
6
CONTINUOUS
10
3.41593
20
-4.33627
11
3.41896
21
-4.33829
0
LINE
8
BLACK
6
CONTINUOUS
10
3.41896
20
-4.33829
11
3.42099
21
-4.34133
0
LINE
8
BLACK
6
CONTINUOUS
10
3.42099
20
-4.34133
11
3.4217
21
-4.34491
0
LINE
8
BLACK
6
CONTINUOUS
10
3.4217
20
-4.34491
11
3.4217
21
-4.36459
0
LINE
8
BLACK
6
CONTINUOUS
10
3.4217
20
-4.36459
11
3.42099
21
-4.36817
0
LINE
8
BLACK
6
CONTINUOUS
10
3.42099
20
-4.36817
11
3.41896
21
-4.3712
0
LINE
8
BLACK
6
CONTINUOUS
10
3.41896
20
-4.3712
11
3.41593
21
-4.37323
0
LINE
8
BLACK
6
CONTINUOUS
10
3.41593
20
-4.37323
11
3.41235
21
-4.37394
0
LINE
8
BLACK
6
CONTINUOUS
10
3.41235
20
-4.37394
11
3.39365
21
-4.37394
0
LINE
8
BLACK
6
CONTINUOUS
10
3.39365
20
-4.37394
11
3.39007
21
-4.37323
0
LINE
8
BLACK
6
CONTINUOUS
10
3.39007
20
-4.37323
11
3.38704
21
-4.3712
0
LINE
8
BLACK
6
CONTINUOUS
10
3.38704
20
-4.3712
11
3.38501
21
-4.36817
0
LINE
8
BLACK
6
CONTINUOUS
10
3.38501
20
-4.36817
11
3.3843
21
-4.36459
0
LINE
8
BLACK
6
CONTINUOUS
10
3.3843
20
-4.36459
11
3.3843
21
-4.34491
0
LINE
8
BLACK
6
CONTINUOUS
10
3.3843
20
-4.34491
11
3.38501
21
-4.34133
0
LINE
8
BLACK
6
CONTINUOUS
10
3.38501
20
-4.34133
11
3.38704
21
-4.33829
0
LINE
8
BLACK
6
CONTINUOUS
10
3.38704
20
-4.33829
11
3.39007
21
-4.33627
0
LINE
8
BLACK
6
CONTINUOUS
10
3.39007
20
-4.33627
11
3.39365
21
-4.33556
0
LINE
8
BLACK
6
CONTINUOUS
10
3.39365
20
-4.33556
11
3.41235
21
-4.33556
0
LINE
8
BLACK
6
CONTINUOUS
10
3.41235
20
-4.33556
11
3.41593
21
-4.33627
0
LINE
8
BLACK
6
CONTINUOUS
10
3.21947
20
-4.31399
11
3.22251
21
-4.31601
0
LINE
8
BLACK
6
CONTINUOUS
10
3.22251
20
-4.31601
11
3.22453
21
-4.31905
0
LINE
8
BLACK
6
CONTINUOUS
10
3.22453
20
-4.31905
11
3.22524
21
-4.32263
0
LINE
8
BLACK
6
CONTINUOUS
10
3.22524
20
-4.32263
11
3.22524
21
-4.34231
0
LINE
8
BLACK
6
CONTINUOUS
10
3.22524
20
-4.34231
11
3.22453
21
-4.34589
0
LINE
8
BLACK
6
CONTINUOUS
10
3.22453
20
-4.34589
11
3.22251
21
-4.34892
0
LINE
8
BLACK
6
CONTINUOUS
10
3.22251
20
-4.34892
11
3.21947
21
-4.35095
0
LINE
8
BLACK
6
CONTINUOUS
10
3.21947
20
-4.35095
11
3.21589
21
-4.35166
0
LINE
8
BLACK
6
CONTINUOUS
10
3.21589
20
-4.35166
11
3.19719
21
-4.35166
0
LINE
8
BLACK
6
CONTINUOUS
10
3.19719
20
-4.35166
11
3.19361
21
-4.35095
0
LINE
8
BLACK
6
CONTINUOUS
10
3.19361
20
-4.35095
11
3.19058
21
-4.34892
0
LINE
8
BLACK
6
CONTINUOUS
10
3.19058
20
-4.34892
11
3.18855
21
-4.34589
0
LINE
8
BLACK
6
CONTINUOUS
10
3.18855
20
-4.34589
11
3.18784
21
-4.34231
0
LINE
8
BLACK
6
CONTINUOUS
10
3.18784
20
-4.34231
11
3.18784
21
-4.32263
0
LINE
8
BLACK
6
CONTINUOUS
10
3.18784
20
-4.32263
11
3.18855
21
-4.31905
0
LINE
8
BLACK
6
CONTINUOUS
10
3.18855
20
-4.31905
11
3.19058
21
-4.31601
0
LINE
8
BLACK
6
CONTINUOUS
10
3.19058
20
-4.31601
11
3.19361
21
-4.31399
0
LINE
8
BLACK
6
CONTINUOUS
10
3.19361
20
-4.31399
11
3.19719
21
-4.31328
0
LINE
8
BLACK
6
CONTINUOUS
10
3.19719
20
-4.31328
11
3.21589
21
-4.31328
0
LINE
8
BLACK
6
CONTINUOUS
10
3.21589
20
-4.31328
11
3.21947
21
-4.31399
0
LINE
8
BLACK
6
CONTINUOUS
10
3.15247
20
-4.31391
11
3.15551
21
-4.31594
0
LINE
8
BLACK
6
CONTINUOUS
10
3.15551
20
-4.31594
11
3.15753
21
-4.31897
0
LINE
8
BLACK
6
CONTINUOUS
10
3.15753
20
-4.31897
11
3.15824
21
-4.32255
0
LINE
8
BLACK
6
CONTINUOUS
10
3.15824
20
-4.32255
11
3.15824
21
-4.34224
0
LINE
8
BLACK
6
CONTINUOUS
10
3.15824
20
-4.34224
11
3.15753
21
-4.34581
0
LINE
8
BLACK
6
CONTINUOUS
10
3.15753
20
-4.34581
11
3.15551
21
-4.34885
0
LINE
8
BLACK
6
CONTINUOUS
10
3.15551
20
-4.34885
11
3.15247
21
-4.35087
0
LINE
8
BLACK
6
CONTINUOUS
10
3.15247
20
-4.35087
11
3.14889
21
-4.35159
0
LINE
8
BLACK
6
CONTINUOUS
10
3.14889
20
-4.35159
11
3.13019
21
-4.35159
0
LINE
8
BLACK
6
CONTINUOUS
10
3.13019
20
-4.35159
11
3.12661
21
-4.35087
0
LINE
8
BLACK
6
CONTINUOUS
10
3.12661
20
-4.35087
11
3.12358
21
-4.34885
0
LINE
8
BLACK
6
CONTINUOUS
10
3.12358
20
-4.34885
11
3.12155
21
-4.34581
0
LINE
8
BLACK
6
CONTINUOUS
10
3.12155
20
-4.34581
11
3.12084
21
-4.34224
0
LINE
8
BLACK
6
CONTINUOUS
10
3.12084
20
-4.34224
11
3.12084
21
-4.32255
0
LINE
8
BLACK
6
CONTINUOUS
10
3.12084
20
-4.32255
11
3.12155
21
-4.31897
0
LINE
8
BLACK
6
CONTINUOUS
10
3.12155
20
-4.31897
11
3.12358
21
-4.31594
0
LINE
8
BLACK
6
CONTINUOUS
10
3.12358
20
-4.31594
11
3.12661
21
-4.31391
0
LINE
8
BLACK
6
CONTINUOUS
10
3.12661
20
-4.31391
11
3.13019
21
-4.3132
0
LINE
8
BLACK
6
CONTINUOUS
10
3.13019
20
-4.3132
11
3.14889
21
-4.3132
0
LINE
8
BLACK
6
CONTINUOUS
10
3.14889
20
-4.3132
11
3.15247
21
-4.31391
0
LINE
8
BLACK
6
CONTINUOUS
10
3.04393
20
-4.30351
11
3.04696
21
-4.30553
0
LINE
8
BLACK
6
CONTINUOUS
10
3.04696
20
-4.30553
11
3.04899
21
-4.30857
0
LINE
8
BLACK
6
CONTINUOUS
10
3.04899
20
-4.30857
11
3.0497
21
-4.31215
0
LINE
8
BLACK
6
CONTINUOUS
10
3.0497
20
-4.31215
11
3.0497
21
-4.33577
0
LINE
8
BLACK
6
CONTINUOUS
10
3.0497
20
-4.33577
11
3.04899
21
-4.33935
0
LINE
8
BLACK
6
CONTINUOUS
10
3.04899
20
-4.33935
11
3.04696
21
-4.34238
0
LINE
8
BLACK
6
CONTINUOUS
10
3.04696
20
-4.34238
11
3.04393
21
-4.34441
0
LINE
8
BLACK
6
CONTINUOUS
10
3.04393
20
-4.34441
11
3.04035
21
-4.34512
0
LINE
8
BLACK
6
CONTINUOUS
10
3.04035
20
-4.34512
11
3.02165
21
-4.34512
0
LINE
8
BLACK
6
CONTINUOUS
10
3.02165
20
-4.34512
11
3.01807
21
-4.34441
0
LINE
8
BLACK
6
CONTINUOUS
10
3.01807
20
-4.34441
11
3.01504
21
-4.34238
0
LINE
8
BLACK
6
CONTINUOUS
10
3.01504
20
-4.34238
11
3.01301
21
-4.33935
0
LINE
8
BLACK
6
CONTINUOUS
10
3.01301
20
-4.33935
11
3.0123
21
-4.33577
0
LINE
8
BLACK
6
CONTINUOUS
10
3.0123
20
-4.33577
11
3.0123
21
-4.31215
0
LINE
8
BLACK
6
CONTINUOUS
10
3.0123
20
-4.31215
11
3.01301
21
-4.30857
0
LINE
8
BLACK
6
CONTINUOUS
10
3.01301
20
-4.30857
11
3.01504
21
-4.30553
0
LINE
8
BLACK
6
CONTINUOUS
10
3.01504
20
-4.30553
11
3.01807
21
-4.30351
0
LINE
8
BLACK
6
CONTINUOUS
10
3.01807
20
-4.30351
11
3.02165
21
-4.3028
0
LINE
8
BLACK
6
CONTINUOUS
10
3.02165
20
-4.3028
11
3.04035
21
-4.3028
0
LINE
8
BLACK
6
CONTINUOUS
10
3.04035
20
-4.3028
11
3.04393
21
-4.30351
0
LINE
8
BLACK
6
CONTINUOUS
10
2.97993
20
-4.30351
11
2.98296
21
-4.30553
0
LINE
8
BLACK
6
CONTINUOUS
10
2.98296
20
-4.30553
11
2.98499
21
-4.30857
0
LINE
8
BLACK
6
CONTINUOUS
10
2.98499
20
-4.30857
11
2.9857
21
-4.31215
0
LINE
8
BLACK
6
CONTINUOUS
10
2.9857
20
-4.31215
11
2.9857
21
-4.33577
0
LINE
8
BLACK
6
CONTINUOUS
10
2.9857
20
-4.33577
11
2.98499
21
-4.33935
0
LINE
8
BLACK
6
CONTINUOUS
10
2.98499
20
-4.33935
11
2.98296
21
-4.34238
0
LINE
8
BLACK
6
CONTINUOUS
10
2.98296
20
-4.34238
11
2.97993
21
-4.34441
0
LINE
8
BLACK
6
CONTINUOUS
10
2.97993
20
-4.34441
11
2.97635
21
-4.34512
0
LINE
8
BLACK
6
CONTINUOUS
10
2.97635
20
-4.34512
11
2.95765
21
-4.34512
0
LINE
8
BLACK
6
CONTINUOUS
10
2.95765
20
-4.34512
11
2.95407
21
-4.34441
0
LINE
8
BLACK
6
CONTINUOUS
10
2.95407
20
-4.34441
11
2.95104
21
-4.34238
0
LINE
8
BLACK
6
CONTINUOUS
10
2.95104
20
-4.34238
11
2.94901
21
-4.33935
0
LINE
8
BLACK
6
CONTINUOUS
10
2.94901
20
-4.33935
11
2.9483
21
-4.33577
0
LINE
8
BLACK
6
CONTINUOUS
10
2.9483
20
-4.33577
11
2.9483
21
-4.31215
0
LINE
8
BLACK
6
CONTINUOUS
10
2.9483
20
-4.31215
11
2.94901
21
-4.30857
0
LINE
8
BLACK
6
CONTINUOUS
10
2.94901
20
-4.30857
11
2.95104
21
-4.30553
0
LINE
8
BLACK
6
CONTINUOUS
10
2.95104
20
-4.30553
11
2.95407
21
-4.30351
0
LINE
8
BLACK
6
CONTINUOUS
10
2.95407
20
-4.30351
11
2.95765
21
-4.3028
0
LINE
8
BLACK
6
CONTINUOUS
10
2.95765
20
-4.3028
11
2.97635
21
-4.3028
0
LINE
8
BLACK
6
CONTINUOUS
10
2.97635
20
-4.3028
11
2.97993
21
-4.30351
0
LINE
8
BLACK
6
CONTINUOUS
10
2.97993
20
-4.23559
11
2.98296
21
-4.23762
0
LINE
8
BLACK
6
CONTINUOUS
10
2.98296
20
-4.23762
11
2.98499
21
-4.24065
0
LINE
8
BLACK
6
CONTINUOUS
10
2.98499
20
-4.24065
11
2.9857
21
-4.24423
0
LINE
8
BLACK
6
CONTINUOUS
10
2.9857
20
-4.24423
11
2.9857
21
-4.26785
0
LINE
8
BLACK
6
CONTINUOUS
10
2.9857
20
-4.26785
11
2.98499
21
-4.27143
0
LINE
8
BLACK
6
CONTINUOUS
10
2.98499
20
-4.27143
11
2.98296
21
-4.27447
0
LINE
8
BLACK
6
CONTINUOUS
10
2.98296
20
-4.27447
11
2.97993
21
-4.27649
0
LINE
8
BLACK
6
CONTINUOUS
10
2.97993
20
-4.27649
11
2.97635
21
-4.2772
0
LINE
8
BLACK
6
CONTINUOUS
10
2.97635
20
-4.2772
11
2.95765
21
-4.2772
0
LINE
8
BLACK
6
CONTINUOUS
10
2.95765
20
-4.2772
11
2.95407
21
-4.27649
0
LINE
8
BLACK
6
CONTINUOUS
10
2.95407
20
-4.27649
11
2.95104
21
-4.27447
0
LINE
8
BLACK
6
CONTINUOUS
10
2.95104
20
-4.27447
11
2.94901
21
-4.27143
0
LINE
8
BLACK
6
CONTINUOUS
10
2.94901
20
-4.27143
11
2.9483
21
-4.26785
0
LINE
8
BLACK
6
CONTINUOUS
10
2.9483
20
-4.26785
11
2.9483
21
-4.24423
0
LINE
8
BLACK
6
CONTINUOUS
10
2.9483
20
-4.24423
11
2.94901
21
-4.24065
0
LINE
8
BLACK
6
CONTINUOUS
10
2.94901
20
-4.24065
11
2.95104
21
-4.23762
0
LINE
8
BLACK
6
CONTINUOUS
10
2.95104
20
-4.23762
11
2.95407
21
-4.23559
0
LINE
8
BLACK
6
CONTINUOUS
10
2.95407
20
-4.23559
11
2.95765
21
-4.23488
0
LINE
8
BLACK
6
CONTINUOUS
10
2.95765
20
-4.23488
11
2.97635
21
-4.23488
0
LINE
8
BLACK
6
CONTINUOUS
10
2.97635
20
-4.23488
11
2.97993
21
-4.23559
0
LINE
8
BLACK
6
CONTINUOUS
10
3.04393
20
-4.23559
11
3.04696
21
-4.23762
0
LINE
8
BLACK
6
CONTINUOUS
10
3.04696
20
-4.23762
11
3.04899
21
-4.24065
0
LINE
8
BLACK
6
CONTINUOUS
10
3.04899
20
-4.24065
11
3.0497
21
-4.24423
0
LINE
8
BLACK
6
CONTINUOUS
10
3.0497
20
-4.24423
11
3.0497
21
-4.26785
0
LINE
8
BLACK
6
CONTINUOUS
10
3.0497
20
-4.26785
11
3.04899
21
-4.27143
0
LINE
8
BLACK
6
CONTINUOUS
10
3.04899
20
-4.27143
11
3.04696
21
-4.27447
0
LINE
8
BLACK
6
CONTINUOUS
10
3.04696
20
-4.27447
11
3.04393
21
-4.27649
0
LINE
8
BLACK
6
CONTINUOUS
10
3.04393
20
-4.27649
11
3.04035
21
-4.2772
0
LINE
8
BLACK
6
CONTINUOUS
10
3.04035
20
-4.2772
11
3.02165
21
-4.2772
0
LINE
8
BLACK
6
CONTINUOUS
10
3.02165
20
-4.2772
11
3.01807
21
-4.27649
0
LINE
8
BLACK
6
CONTINUOUS
10
3.01807
20
-4.27649
11
3.01504
21
-4.27447
0
LINE
8
BLACK
6
CONTINUOUS
10
3.01504
20
-4.27447
11
3.01301
21
-4.27143
0
LINE
8
BLACK
6
CONTINUOUS
10
3.01301
20
-4.27143
11
3.0123
21
-4.26785
0
LINE
8
BLACK
6
CONTINUOUS
10
3.0123
20
-4.26785
11
3.0123
21
-4.24423
0
LINE
8
BLACK
6
CONTINUOUS
10
3.0123
20
-4.24423
11
3.01301
21
-4.24065
0
LINE
8
BLACK
6
CONTINUOUS
10
3.01301
20
-4.24065
11
3.01504
21
-4.23762
0
LINE
8
BLACK
6
CONTINUOUS
10
3.01504
20
-4.23762
11
3.01807
21
-4.23559
0
LINE
8
BLACK
6
CONTINUOUS
10
3.01807
20
-4.23559
11
3.02165
21
-4.23488
0
LINE
8
BLACK
6
CONTINUOUS
10
3.02165
20
-4.23488
11
3.04035
21
-4.23488
0
LINE
8
BLACK
6
CONTINUOUS
10
3.04035
20
-4.23488
11
3.04393
21
-4.23559
0
LINE
8
BLACK
6
CONTINUOUS
10
2.64434
20
-4.24282
11
2.62465
21
-4.24282
0
LINE
8
BLACK
6
CONTINUOUS
10
2.62465
20
-4.24282
11
2.62465
21
-4.15424
0
LINE
8
BLACK
6
CONTINUOUS
10
2.62465
20
-4.15424
11
2.64434
21
-4.15424
0
LINE
8
BLACK
6
CONTINUOUS
10
2.64434
20
-4.15424
11
2.64434
21
-4.24282
0
LINE
8
BLACK
6
CONTINUOUS
10
2.61284
20
-4.24282
11
2.59316
21
-4.24282
0
LINE
8
BLACK
6
CONTINUOUS
10
2.59316
20
-4.24282
11
2.59316
21
-4.15424
0
LINE
8
BLACK
6
CONTINUOUS
10
2.59316
20
-4.15424
11
2.61284
21
-4.15424
0
LINE
8
BLACK
6
CONTINUOUS
10
2.61284
20
-4.15424
11
2.61284
21
-4.24282
0
LINE
8
BLACK
6
CONTINUOUS
10
2.58135
20
-4.24282
11
2.56166
21
-4.24282
0
LINE
8
BLACK
6
CONTINUOUS
10
2.56166
20
-4.24282
11
2.56166
21
-4.15424
0
LINE
8
BLACK
6
CONTINUOUS
10
2.56166
20
-4.15424
11
2.58135
21
-4.15424
0
LINE
8
BLACK
6
CONTINUOUS
10
2.58135
20
-4.15424
11
2.58135
21
-4.24282
0
LINE
8
BLACK
6
CONTINUOUS
10
2.54985
20
-4.24282
11
2.53017
21
-4.24282
0
LINE
8
BLACK
6
CONTINUOUS
10
2.53017
20
-4.24282
11
2.53017
21
-4.15424
0
LINE
8
BLACK
6
CONTINUOUS
10
2.53017
20
-4.15424
11
2.54985
21
-4.15424
0
LINE
8
BLACK
6
CONTINUOUS
10
2.54985
20
-4.15424
11
2.54985
21
-4.24282
0
LINE
8
BLACK
6
CONTINUOUS
10
2.46717
20
-4.24282
11
2.38843
21
-4.24282
0
LINE
8
BLACK
6
CONTINUOUS
10
2.38843
20
-4.24282
11
2.38843
21
-4.14439
0
LINE
8
BLACK
6
CONTINUOUS
10
2.38843
20
-4.14439
11
2.46717
21
-4.14439
0
LINE
8
BLACK
6
CONTINUOUS
10
2.46717
20
-4.14439
11
2.46717
21
-4.24282
0
LINE
8
BLACK
6
CONTINUOUS
10
2.67583
20
-4.24282
11
2.65615
21
-4.24282
0
LINE
8
BLACK
6
CONTINUOUS
10
2.65615
20
-4.24282
11
2.65615
21
-4.15424
0
LINE
8
BLACK
6
CONTINUOUS
10
2.65615
20
-4.15424
11
2.67583
21
-4.15424
0
LINE
8
BLACK
6
CONTINUOUS
10
2.67583
20
-4.15424
11
2.67583
21
-4.24282
0
LINE
8
BLACK
6
CONTINUOUS
10
3.5819
20
-4.20601
11
3.58493
21
-4.20804
0
LINE
8
BLACK
6
CONTINUOUS
10
3.58493
20
-4.20804
11
3.58696
21
-4.21107
0
LINE
8
BLACK
6
CONTINUOUS
10
3.58696
20
-4.21107
11
3.58767
21
-4.21465
0
LINE
8
BLACK
6
CONTINUOUS
10
3.58767
20
-4.21465
11
3.58767
21
-4.23335
0
LINE
8
BLACK
6
CONTINUOUS
10
3.58767
20
-4.23335
11
3.58696
21
-4.23693
0
LINE
8
BLACK
6
CONTINUOUS
10
3.58696
20
-4.23693
11
3.58493
21
-4.23996
0
LINE
8
BLACK
6
CONTINUOUS
10
3.58493
20
-4.23996
11
3.5819
21
-4.24199
0
LINE
8
BLACK
6
CONTINUOUS
10
3.5819
20
-4.24199
11
3.57832
21
-4.2427
0
LINE
8
BLACK
6
CONTINUOUS
10
3.57832
20
-4.2427
11
3.55863
21
-4.2427
0
LINE
8
BLACK
6
CONTINUOUS
10
3.55863
20
-4.2427
11
3.55506
21
-4.24199
0
LINE
8
BLACK
6
CONTINUOUS
10
3.55506
20
-4.24199
11
3.55202
21
-4.23996
0
LINE
8
BLACK
6
CONTINUOUS
10
3.55202
20
-4.23996
11
3.55
21
-4.23693
0
LINE
8
BLACK
6
CONTINUOUS
10
3.55
20
-4.23693
11
3.54928
21
-4.23335
0
LINE
8
BLACK
6
CONTINUOUS
10
3.54928
20
-4.23335
11
3.54928
21
-4.21465
0
LINE
8
BLACK
6
CONTINUOUS
10
3.54928
20
-4.21465
11
3.55
21
-4.21107
0
LINE
8
BLACK
6
CONTINUOUS
10
3.55
20
-4.21107
11
3.55202
21
-4.20804
0
LINE
8
BLACK
6
CONTINUOUS
10
3.55202
20
-4.20804
11
3.55506
21
-4.20601
0
LINE
8
BLACK
6
CONTINUOUS
10
3.55506
20
-4.20601
11
3.55863
21
-4.2053
0
LINE
8
BLACK
6
CONTINUOUS
10
3.55863
20
-4.2053
11
3.57832
21
-4.2053
0
LINE
8
BLACK
6
CONTINUOUS
10
3.57832
20
-4.2053
11
3.5819
21
-4.20601
0
LINE
8
BLACK
6
CONTINUOUS
10
3.65375
20
-4.20601
11
3.65678
21
-4.20804
0
LINE
8
BLACK
6
CONTINUOUS
10
3.65678
20
-4.20804
11
3.65881
21
-4.21107
0
LINE
8
BLACK
6
CONTINUOUS
10
3.65881
20
-4.21107
11
3.65952
21
-4.21465
0
LINE
8
BLACK
6
CONTINUOUS
10
3.65952
20
-4.21465
11
3.65952
21
-4.23335
0
LINE
8
BLACK
6
CONTINUOUS
10
3.65952
20
-4.23335
11
3.65881
21
-4.23693
0
LINE
8
BLACK
6
CONTINUOUS
10
3.65881
20
-4.23693
11
3.65678
21
-4.23996
0
LINE
8
BLACK
6
CONTINUOUS
10
3.65678
20
-4.23996
11
3.65375
21
-4.24199
0
LINE
8
BLACK
6
CONTINUOUS
10
3.65375
20
-4.24199
11
3.65017
21
-4.2427
0
LINE
8
BLACK
6
CONTINUOUS
10
3.65017
20
-4.2427
11
3.63048
21
-4.2427
0
LINE
8
BLACK
6
CONTINUOUS
10
3.63048
20
-4.2427
11
3.62691
21
-4.24199
0
LINE
8
BLACK
6
CONTINUOUS
10
3.62691
20
-4.24199
11
3.62387
21
-4.23996
0
LINE
8
BLACK
6
CONTINUOUS
10
3.62387
20
-4.23996
11
3.62185
21
-4.23693
0
LINE
8
BLACK
6
CONTINUOUS
10
3.62185
20
-4.23693
11
3.62113
21
-4.23335
0
LINE
8
BLACK
6
CONTINUOUS
10
3.62113
20
-4.23335
11
3.62113
21
-4.21465
0
LINE
8
BLACK
6
CONTINUOUS
10
3.62113
20
-4.21465
11
3.62185
21
-4.21107
0
LINE
8
BLACK
6
CONTINUOUS
10
3.62185
20
-4.21107
11
3.62387
21
-4.20804
0
LINE
8
BLACK
6
CONTINUOUS
10
3.62387
20
-4.20804
11
3.62691
21
-4.20601
0
LINE
8
BLACK
6
CONTINUOUS
10
3.62691
20
-4.20601
11
3.63048
21
-4.2053
0
LINE
8
BLACK
6
CONTINUOUS
10
3.63048
20
-4.2053
11
3.65017
21
-4.2053
0
LINE
8
BLACK
6
CONTINUOUS
10
3.65017
20
-4.2053
11
3.65375
21
-4.20601
0
LINE
8
BLACK
6
CONTINUOUS
10
2.81757
20
-4.23888
11
2.73883
21
-4.23888
0
LINE
8
BLACK
6
CONTINUOUS
10
2.73883
20
-4.23888
11
2.73883
21
-4.14833
0
LINE
8
BLACK
6
CONTINUOUS
10
2.73883
20
-4.14833
11
2.81757
21
-4.14833
0
LINE
8
BLACK
6
CONTINUOUS
10
2.81757
20
-4.14833
11
2.81757
21
-4.23888
0
LINE
8
BLACK
6
CONTINUOUS
10
3.31491
20
-4.1999
11
3.31571
21
-4.20043
0
LINE
8
BLACK
6
CONTINUOUS
10
3.31571
20
-4.20043
11
3.31625
21
-4.20123
0
LINE
8
BLACK
6
CONTINUOUS
10
3.31625
20
-4.20123
11
3.31643
21
-4.20217
0
LINE
8
BLACK
6
CONTINUOUS
10
3.31643
20
-4.20217
11
3.31643
21
-4.22874
0
LINE
8
BLACK
6
CONTINUOUS
10
3.31643
20
-4.22874
11
3.31625
21
-4.22969
0
LINE
8
BLACK
6
CONTINUOUS
10
3.31625
20
-4.22969
11
3.31571
21
-4.23048
0
LINE
8
BLACK
6
CONTINUOUS
10
3.31571
20
-4.23048
11
3.31491
21
-4.23102
0
LINE
8
BLACK
6
CONTINUOUS
10
3.31491
20
-4.23102
11
3.31397
21
-4.2312
0
LINE
8
BLACK
6
CONTINUOUS
10
3.31397
20
-4.2312
11
3.30905
21
-4.2312
0
LINE
8
BLACK
6
CONTINUOUS
10
3.30905
20
-4.2312
11
3.30811
21
-4.23102
0
LINE
8
BLACK
6
CONTINUOUS
10
3.30811
20
-4.23102
11
3.30731
21
-4.23048
0
LINE
8
BLACK
6
CONTINUOUS
10
3.30731
20
-4.23048
11
3.30678
21
-4.22969
0
LINE
8
BLACK
6
CONTINUOUS
10
3.30678
20
-4.22969
11
3.30659
21
-4.22874
0
LINE
8
BLACK
6
CONTINUOUS
10
3.30659
20
-4.22874
11
3.30659
21
-4.20217
0
LINE
8
BLACK
6
CONTINUOUS
10
3.30659
20
-4.20217
11
3.30678
21
-4.20123
0
LINE
8
BLACK
6
CONTINUOUS
10
3.30678
20
-4.20123
11
3.30731
21
-4.20043
0
LINE
8
BLACK
6
CONTINUOUS
10
3.30731
20
-4.20043
11
3.30811
21
-4.1999
0
LINE
8
BLACK
6
CONTINUOUS
10
3.30811
20
-4.1999
11
3.30905
21
-4.19971
0
LINE
8
BLACK
6
CONTINUOUS
10
3.30905
20
-4.19971
11
3.31397
21
-4.19971
0
LINE
8
BLACK
6
CONTINUOUS
10
3.31397
20
-4.19971
11
3.31491
21
-4.1999
0
LINE
8
BLACK
6
CONTINUOUS
10
3.23617
20
-4.1999
11
3.23697
21
-4.20043
0
LINE
8
BLACK
6
CONTINUOUS
10
3.23697
20
-4.20043
11
3.23751
21
-4.20123
0
LINE
8
BLACK
6
CONTINUOUS
10
3.23751
20
-4.20123
11
3.23769
21
-4.20217
0
LINE
8
BLACK
6
CONTINUOUS
10
3.23769
20
-4.20217
11
3.23769
21
-4.22874
0
LINE
8
BLACK
6
CONTINUOUS
10
3.23769
20
-4.22874
11
3.23751
21
-4.22969
0
LINE
8
BLACK
6
CONTINUOUS
10
3.23751
20
-4.22969
11
3.23697
21
-4.23048
0
LINE
8
BLACK
6
CONTINUOUS
10
3.23697
20
-4.23048
11
3.23617
21
-4.23102
0
LINE
8
BLACK
6
CONTINUOUS
10
3.23617
20
-4.23102
11
3.23523
21
-4.2312
0
LINE
8
BLACK
6
CONTINUOUS
10
3.23523
20
-4.2312
11
3.23031
21
-4.2312
0
LINE
8
BLACK
6
CONTINUOUS
10
3.23031
20
-4.2312
11
3.22937
21
-4.23102
0
LINE
8
BLACK
6
CONTINUOUS
10
3.22937
20
-4.23102
11
3.22857
21
-4.23048
0
LINE
8
BLACK
6
CONTINUOUS
10
3.22857
20
-4.23048
11
3.22804
21
-4.22969
0
LINE
8
BLACK
6
CONTINUOUS
10
3.22804
20
-4.22969
11
3.22785
21
-4.22874
0
LINE
8
BLACK
6
CONTINUOUS
10
3.22785
20
-4.22874
11
3.22785
21
-4.20217
0
LINE
8
BLACK
6
CONTINUOUS
10
3.22785
20
-4.20217
11
3.22804
21
-4.20123
0
LINE
8
BLACK
6
CONTINUOUS
10
3.22804
20
-4.20123
11
3.22857
21
-4.20043
0
LINE
8
BLACK
6
CONTINUOUS
10
3.22857
20
-4.20043
11
3.22937
21
-4.1999
0
LINE
8
BLACK
6
CONTINUOUS
10
3.22937
20
-4.1999
11
3.23031
21
-4.19971
0
LINE
8
BLACK
6
CONTINUOUS
10
3.23031
20
-4.19971
11
3.23523
21
-4.19971
0
LINE
8
BLACK
6
CONTINUOUS
10
3.23523
20
-4.19971
11
3.23617
21
-4.1999
0
LINE
8
BLACK
6
CONTINUOUS
10
3.25586
20
-4.1999
11
3.25666
21
-4.20043
0
LINE
8
BLACK
6
CONTINUOUS
10
3.25666
20
-4.20043
11
3.25719
21
-4.20123
0
LINE
8
BLACK
6
CONTINUOUS
10
3.25719
20
-4.20123
11
3.25738
21
-4.20217
0
LINE
8
BLACK
6
CONTINUOUS
10
3.25738
20
-4.20217
11
3.25738
21
-4.22874
0
LINE
8
BLACK
6
CONTINUOUS
10
3.25738
20
-4.22874
11
3.25719
21
-4.22969
0
LINE
8
BLACK
6
CONTINUOUS
10
3.25719
20
-4.22969
11
3.25666
21
-4.23048
0
LINE
8
BLACK
6
CONTINUOUS
10
3.25666
20
-4.23048
11
3.25586
21
-4.23102
0
LINE
8
BLACK
6
CONTINUOUS
10
3.25586
20
-4.23102
11
3.25492
21
-4.2312
0
LINE
8
BLACK
6
CONTINUOUS
10
3.25492
20
-4.2312
11
3.25
21
-4.2312
0
LINE
8
BLACK
6
CONTINUOUS
10
3.25
20
-4.2312
11
3.24905
21
-4.23102
0
LINE
8
BLACK
6
CONTINUOUS
10
3.24905
20
-4.23102
11
3.24826
21
-4.23048
0
LINE
8
BLACK
6
CONTINUOUS
10
3.24826
20
-4.23048
11
3.24772
21
-4.22969
0
LINE
8
BLACK
6
CONTINUOUS
10
3.24772
20
-4.22969
11
3.24754
21
-4.22874
0
LINE
8
BLACK
6
CONTINUOUS
10
3.24754
20
-4.22874
11
3.24754
21
-4.20217
0
LINE
8
BLACK
6
CONTINUOUS
10
3.24754
20
-4.20217
11
3.24772
21
-4.20123
0
LINE
8
BLACK
6
CONTINUOUS
10
3.24772
20
-4.20123
11
3.24826
21
-4.20043
0
LINE
8
BLACK
6
CONTINUOUS
10
3.24826
20
-4.20043
11
3.24905
21
-4.1999
0
LINE
8
BLACK
6
CONTINUOUS
10
3.24905
20
-4.1999
11
3.25
21
-4.19971
0
LINE
8
BLACK
6
CONTINUOUS
10
3.25
20
-4.19971
11
3.25492
21
-4.19971
0
LINE
8
BLACK
6
CONTINUOUS
10
3.25492
20
-4.19971
11
3.25586
21
-4.1999
0
LINE
8
BLACK
6
CONTINUOUS
10
3.21649
20
-4.1999
11
3.21729
21
-4.20043
0
LINE
8
BLACK
6
CONTINUOUS
10
3.21729
20
-4.20043
11
3.21782
21
-4.20123
0
LINE
8
BLACK
6
CONTINUOUS
10
3.21782
20
-4.20123
11
3.21801
21
-4.20217
0
LINE
8
BLACK
6
CONTINUOUS
10
3.21801
20
-4.20217
11
3.21801
21
-4.22874
0
LINE
8
BLACK
6
CONTINUOUS
10
3.21801
20
-4.22874
11
3.21782
21
-4.22969
0
LINE
8
BLACK
6
CONTINUOUS
10
3.21782
20
-4.22969
11
3.21729
21
-4.23048
0
LINE
8
BLACK
6
CONTINUOUS
10
3.21729
20
-4.23048
11
3.21649
21
-4.23102
0
LINE
8
BLACK
6
CONTINUOUS
10
3.21649
20
-4.23102
11
3.21555
21
-4.2312
0
LINE
8
BLACK
6
CONTINUOUS
10
3.21555
20
-4.2312
11
3.21063
21
-4.2312
0
LINE
8
BLACK
6
CONTINUOUS
10
3.21063
20
-4.2312
11
3.20968
21
-4.23102
0
LINE
8
BLACK
6
CONTINUOUS
10
3.20968
20
-4.23102
11
3.20889
21
-4.23048
0
LINE
8
BLACK
6
CONTINUOUS
10
3.20889
20
-4.23048
11
3.20835
21
-4.22969
0
LINE
8
BLACK
6
CONTINUOUS
10
3.20835
20
-4.22969
11
3.20817
21
-4.22874
0
LINE
8
BLACK
6
CONTINUOUS
10
3.20817
20
-4.22874
11
3.20817
21
-4.20217
0
LINE
8
BLACK
6
CONTINUOUS
10
3.20817
20
-4.20217
11
3.20835
21
-4.20123
0
LINE
8
BLACK
6
CONTINUOUS
10
3.20835
20
-4.20123
11
3.20889
21
-4.20043
0
LINE
8
BLACK
6
CONTINUOUS
10
3.20889
20
-4.20043
11
3.20968
21
-4.1999
0
LINE
8
BLACK
6
CONTINUOUS
10
3.20968
20
-4.1999
11
3.21063
21
-4.19971
0
LINE
8
BLACK
6
CONTINUOUS
10
3.21063
20
-4.19971
11
3.21555
21
-4.19971
0
LINE
8
BLACK
6
CONTINUOUS
10
3.21555
20
-4.19971
11
3.21649
21
-4.1999
0
LINE
8
BLACK
6
CONTINUOUS
10
3.1968
20
-4.1999
11
3.1976
21
-4.20043
0
LINE
8
BLACK
6
CONTINUOUS
10
3.1976
20
-4.20043
11
3.19814
21
-4.20123
0
LINE
8
BLACK
6
CONTINUOUS
10
3.19814
20
-4.20123
11
3.19832
21
-4.20217
0
LINE
8
BLACK
6
CONTINUOUS
10
3.19832
20
-4.20217
11
3.19832
21
-4.22874
0
LINE
8
BLACK
6
CONTINUOUS
10
3.19832
20
-4.22874
11
3.19814
21
-4.22969
0
LINE
8
BLACK
6
CONTINUOUS
10
3.19814
20
-4.22969
11
3.1976
21
-4.23048
0
LINE
8
BLACK
6
CONTINUOUS
10
3.1976
20
-4.23048
11
3.1968
21
-4.23102
0
LINE
8
BLACK
6
CONTINUOUS
10
3.1968
20
-4.23102
11
3.19586
21
-4.2312
0
LINE
8
BLACK
6
CONTINUOUS
10
3.19586
20
-4.2312
11
3.19094
21
-4.2312
0
LINE
8
BLACK
6
CONTINUOUS
10
3.19094
20
-4.2312
11
3.19
21
-4.23102
0
LINE
8
BLACK
6
CONTINUOUS
10
3.19
20
-4.23102
11
3.1892
21
-4.23048
0
LINE
8
BLACK
6
CONTINUOUS
10
3.1892
20
-4.23048
11
3.18867
21
-4.22969
0
LINE
8
BLACK
6
CONTINUOUS
10
3.18867
20
-4.22969
11
3.18848
21
-4.22874
0
LINE
8
BLACK
6
CONTINUOUS
10
3.18848
20
-4.22874
11
3.18848
21
-4.20217
0
LINE
8
BLACK
6
CONTINUOUS
10
3.18848
20
-4.20217
11
3.18867
21
-4.20123
0
LINE
8
BLACK
6
CONTINUOUS
10
3.18867
20
-4.20123
11
3.1892
21
-4.20043
0
LINE
8
BLACK
6
CONTINUOUS
10
3.1892
20
-4.20043
11
3.19
21
-4.1999
0
LINE
8
BLACK
6
CONTINUOUS
10
3.19
20
-4.1999
11
3.19094
21
-4.19971
0
LINE
8
BLACK
6
CONTINUOUS
10
3.19094
20
-4.19971
11
3.19586
21
-4.19971
0
LINE
8
BLACK
6
CONTINUOUS
10
3.19586
20
-4.19971
11
3.1968
21
-4.1999
0
LINE
8
BLACK
6
CONTINUOUS
10
3.27554
20
-4.1999
11
3.27634
21
-4.20043
0
LINE
8
BLACK
6
CONTINUOUS
10
3.27634
20
-4.20043
11
3.27688
21
-4.20123
0
LINE
8
BLACK
6
CONTINUOUS
10
3.27688
20
-4.20123
11
3.27706
21
-4.20217
0
LINE
8
BLACK
6
CONTINUOUS
10
3.27706
20
-4.20217
11
3.27706
21
-4.22874
0
LINE
8
BLACK
6
CONTINUOUS
10
3.27706
20
-4.22874
11
3.27688
21
-4.22969
0
LINE
8
BLACK
6
CONTINUOUS
10
3.27688
20
-4.22969
11
3.27634
21
-4.23048
0
LINE
8
BLACK
6
CONTINUOUS
10
3.27634
20
-4.23048
11
3.27554
21
-4.23102
0
LINE
8
BLACK
6
CONTINUOUS
10
3.27554
20
-4.23102
11
3.2746
21
-4.2312
0
LINE
8
BLACK
6
CONTINUOUS
10
3.2746
20
-4.2312
11
3.26968
21
-4.2312
0
LINE
8
BLACK
6
CONTINUOUS
10
3.26968
20
-4.2312
11
3.26874
21
-4.23102
0
LINE
8
BLACK
6
CONTINUOUS
10
3.26874
20
-4.23102
11
3.26794
21
-4.23048
0
LINE
8
BLACK
6
CONTINUOUS
10
3.26794
20
-4.23048
11
3.26741
21
-4.22969
0
LINE
8
BLACK
6
CONTINUOUS
10
3.26741
20
-4.22969
11
3.26722
21
-4.22874
0
LINE
8
BLACK
6
CONTINUOUS
10
3.26722
20
-4.22874
11
3.26722
21
-4.20217
0
LINE
8
BLACK
6
CONTINUOUS
10
3.26722
20
-4.20217
11
3.26741
21
-4.20123
0
LINE
8
BLACK
6
CONTINUOUS
10
3.26741
20
-4.20123
11
3.26794
21
-4.20043
0
LINE
8
BLACK
6
CONTINUOUS
10
3.26794
20
-4.20043
11
3.26874
21
-4.1999
0
LINE
8
BLACK
6
CONTINUOUS
10
3.26874
20
-4.1999
11
3.26968
21
-4.19971
0
LINE
8
BLACK
6
CONTINUOUS
10
3.26968
20
-4.19971
11
3.2746
21
-4.19971
0
LINE
8
BLACK
6
CONTINUOUS
10
3.2746
20
-4.19971
11
3.27554
21
-4.1999
0
LINE
8
BLACK
6
CONTINUOUS
10
3.29523
20
-4.1999
11
3.29603
21
-4.20043
0
LINE
8
BLACK
6
CONTINUOUS
10
3.29603
20
-4.20043
11
3.29656
21
-4.20123
0
LINE
8
BLACK
6
CONTINUOUS
10
3.29656
20
-4.20123
11
3.29675
21
-4.20217
0
LINE
8
BLACK
6
CONTINUOUS
10
3.29675
20
-4.20217
11
3.29675
21
-4.22874
0
LINE
8
BLACK
6
CONTINUOUS
10
3.29675
20
-4.22874
11
3.29656
21
-4.22969
0
LINE
8
BLACK
6
CONTINUOUS
10
3.29656
20
-4.22969
11
3.29603
21
-4.23048
0
LINE
8
BLACK
6
CONTINUOUS
10
3.29603
20
-4.23048
11
3.29523
21
-4.23102
0
LINE
8
BLACK
6
CONTINUOUS
10
3.29523
20
-4.23102
11
3.29429
21
-4.2312
0
LINE
8
BLACK
6
CONTINUOUS
10
3.29429
20
-4.2312
11
3.28937
21
-4.2312
0
LINE
8
BLACK
6
CONTINUOUS
10
3.28937
20
-4.2312
11
3.28842
21
-4.23102
0
LINE
8
BLACK
6
CONTINUOUS
10
3.28842
20
-4.23102
11
3.28763
21
-4.23048
0
LINE
8
BLACK
6
CONTINUOUS
10
3.28763
20
-4.23048
11
3.28709
21
-4.22969
0
LINE
8
BLACK
6
CONTINUOUS
10
3.28709
20
-4.22969
11
3.28691
21
-4.22874
0
LINE
8
BLACK
6
CONTINUOUS
10
3.28691
20
-4.22874
11
3.28691
21
-4.20217
0
LINE
8
BLACK
6
CONTINUOUS
10
3.28691
20
-4.20217
11
3.28709
21
-4.20123
0
LINE
8
BLACK
6
CONTINUOUS
10
3.28709
20
-4.20123
11
3.28763
21
-4.20043
0
LINE
8
BLACK
6
CONTINUOUS
10
3.28763
20
-4.20043
11
3.28842
21
-4.1999
0
LINE
8
BLACK
6
CONTINUOUS
10
3.28842
20
-4.1999
11
3.28937
21
-4.19971
0
LINE
8
BLACK
6
CONTINUOUS
10
3.28937
20
-4.19971
11
3.29429
21
-4.19971
0
LINE
8
BLACK
6
CONTINUOUS
10
3.29429
20
-4.19971
11
3.29523
21
-4.1999
0
LINE
8
BLACK
6
CONTINUOUS
10
2.98339
20
-4.21086
11
2.9578
21
-4.21086
0
LINE
8
BLACK
6
CONTINUOUS
10
2.9578
20
-4.21086
11
2.9578
21
-4.14944
0
LINE
8
BLACK
6
CONTINUOUS
10
2.9578
20
-4.14944
11
2.98339
21
-4.14944
0
LINE
8
BLACK
6
CONTINUOUS
10
2.98339
20
-4.14944
11
2.98339
21
-4.21086
0
LINE
8
BLACK
6
CONTINUOUS
10
3.0582
20
-4.21086
11
3.03261
21
-4.21086
0
LINE
8
BLACK
6
CONTINUOUS
10
3.03261
20
-4.21086
11
3.03261
21
-4.14944
0
LINE
8
BLACK
6
CONTINUOUS
10
3.03261
20
-4.14944
11
3.0582
21
-4.14944
0
LINE
8
BLACK
6
CONTINUOUS
10
3.0582
20
-4.14944
11
3.0582
21
-4.21086
0
LINE
8
BLACK
6
CONTINUOUS
10
3.36314
20
-4.17332
11
3.36394
21
-4.17385
0
LINE
8
BLACK
6
CONTINUOUS
10
3.36394
20
-4.17385
11
3.36447
21
-4.17465
0
LINE
8
BLACK
6
CONTINUOUS
10
3.36447
20
-4.17465
11
3.36466
21
-4.17559
0
LINE
8
BLACK
6
CONTINUOUS
10
3.36466
20
-4.17559
11
3.36466
21
-4.18052
0
LINE
8
BLACK
6
CONTINUOUS
10
3.36466
20
-4.18052
11
3.36447
21
-4.18146
0
LINE
8
BLACK
6
CONTINUOUS
10
3.36447
20
-4.18146
11
3.36394
21
-4.18226
0
LINE
8
BLACK
6
CONTINUOUS
10
3.36394
20
-4.18226
11
3.36314
21
-4.18279
0
LINE
8
BLACK
6
CONTINUOUS
10
3.36314
20
-4.18279
11
3.3622
21
-4.18298
0
LINE
8
BLACK
6
CONTINUOUS
10
3.3622
20
-4.18298
11
3.33563
21
-4.18298
0
LINE
8
BLACK
6
CONTINUOUS
10
3.33563
20
-4.18298
11
3.33468
21
-4.18279
0
LINE
8
BLACK
6
CONTINUOUS
10
3.33468
20
-4.18279
11
3.33389
21
-4.18226
0
LINE
8
BLACK
6
CONTINUOUS
10
3.33389
20
-4.18226
11
3.33335
21
-4.18146
0
LINE
8
BLACK
6
CONTINUOUS
10
3.33335
20
-4.18146
11
3.33317
21
-4.18052
0
LINE
8
BLACK
6
CONTINUOUS
10
3.33317
20
-4.18052
11
3.33317
21
-4.17559
0
LINE
8
BLACK
6
CONTINUOUS
10
3.33317
20
-4.17559
11
3.33335
21
-4.17465
0
LINE
8
BLACK
6
CONTINUOUS
10
3.33335
20
-4.17465
11
3.33389
21
-4.17385
0
LINE
8
BLACK
6
CONTINUOUS
10
3.33389
20
-4.17385
11
3.33468
21
-4.17332
0
LINE
8
BLACK
6
CONTINUOUS
10
3.33468
20
-4.17332
11
3.33563
21
-4.17313
0
LINE
8
BLACK
6
CONTINUOUS
10
3.33563
20
-4.17313
11
3.3622
21
-4.17313
0
LINE
8
BLACK
6
CONTINUOUS
10
3.3622
20
-4.17313
11
3.36314
21
-4.17332
0
LINE
8
BLACK
6
CONTINUOUS
10
3.17023
20
-4.17332
11
3.17103
21
-4.17385
0
LINE
8
BLACK
6
CONTINUOUS
10
3.17103
20
-4.17385
11
3.17156
21
-4.17465
0
LINE
8
BLACK
6
CONTINUOUS
10
3.17156
20
-4.17465
11
3.17175
21
-4.17559
0
LINE
8
BLACK
6
CONTINUOUS
10
3.17175
20
-4.17559
11
3.17175
21
-4.18052
0
LINE
8
BLACK
6
CONTINUOUS
10
3.17175
20
-4.18052
11
3.17156
21
-4.18146
0
LINE
8
BLACK
6
CONTINUOUS
10
3.17156
20
-4.18146
11
3.17103
21
-4.18226
0
LINE
8
BLACK
6
CONTINUOUS
10
3.17103
20
-4.18226
11
3.17023
21
-4.18279
0
LINE
8
BLACK
6
CONTINUOUS
10
3.17023
20
-4.18279
11
3.16929
21
-4.18298
0
LINE
8
BLACK
6
CONTINUOUS
10
3.16929
20
-4.18298
11
3.14271
21
-4.18298
0
LINE
8
BLACK
6
CONTINUOUS
10
3.14271
20
-4.18298
11
3.14177
21
-4.18279
0
LINE
8
BLACK
6
CONTINUOUS
10
3.14177
20
-4.18279
11
3.14097
21
-4.18226
0
LINE
8
BLACK
6
CONTINUOUS
10
3.14097
20
-4.18226
11
3.14044
21
-4.18146
0
LINE
8
BLACK
6
CONTINUOUS
10
3.14044
20
-4.18146
11
3.14025
21
-4.18052
0
LINE
8
BLACK
6
CONTINUOUS
10
3.14025
20
-4.18052
11
3.14025
21
-4.17559
0
LINE
8
BLACK
6
CONTINUOUS
10
3.14025
20
-4.17559
11
3.14044
21
-4.17465
0
LINE
8
BLACK
6
CONTINUOUS
10
3.14044
20
-4.17465
11
3.14097
21
-4.17385
0
LINE
8
BLACK
6
CONTINUOUS
10
3.14097
20
-4.17385
11
3.14177
21
-4.17332
0
LINE
8
BLACK
6
CONTINUOUS
10
3.14177
20
-4.17332
11
3.14271
21
-4.17313
0
LINE
8
BLACK
6
CONTINUOUS
10
3.14271
20
-4.17313
11
3.16929
21
-4.17313
0
LINE
8
BLACK
6
CONTINUOUS
10
3.16929
20
-4.17313
11
3.17023
21
-4.17332
0
LINE
8
BLACK
6
CONTINUOUS
10
3.3088
20
-4.14605
11
3.31167
21
-4.14797
0
LINE
8
BLACK
6
CONTINUOUS
10
3.31167
20
-4.14797
11
3.31359
21
-4.15085
0
LINE
8
BLACK
6
CONTINUOUS
10
3.31359
20
-4.15085
11
3.31427
21
-4.15424
0
LINE
8
BLACK
6
CONTINUOUS
10
3.31427
20
-4.15424
11
3.31427
21
-4.17195
0
LINE
8
BLACK
6
CONTINUOUS
10
3.31427
20
-4.17195
11
3.31359
21
-4.17534
0
LINE
8
BLACK
6
CONTINUOUS
10
3.31359
20
-4.17534
11
3.31167
21
-4.17822
0
LINE
8
BLACK
6
CONTINUOUS
10
3.31167
20
-4.17822
11
3.3088
21
-4.18014
0
LINE
8
BLACK
6
CONTINUOUS
10
3.3088
20
-4.18014
11
3.30541
21
-4.18081
0
LINE
8
BLACK
6
CONTINUOUS
10
3.30541
20
-4.18081
11
3.28769
21
-4.18081
0
LINE
8
BLACK
6
CONTINUOUS
10
3.28769
20
-4.18081
11
3.2843
21
-4.18014
0
LINE
8
BLACK
6
CONTINUOUS
10
3.2843
20
-4.18014
11
3.28143
21
-4.17822
0
LINE
8
BLACK
6
CONTINUOUS
10
3.28143
20
-4.17822
11
3.27951
21
-4.17534
0
LINE
8
BLACK
6
CONTINUOUS
10
3.27951
20
-4.17534
11
3.27883
21
-4.17195
0
LINE
8
BLACK
6
CONTINUOUS
10
3.27883
20
-4.17195
11
3.27883
21
-4.15424
0
LINE
8
BLACK
6
CONTINUOUS
10
3.27883
20
-4.15424
11
3.27951
21
-4.15085
0
LINE
8
BLACK
6
CONTINUOUS
10
3.27951
20
-4.15085
11
3.28143
21
-4.14797
0
LINE
8
BLACK
6
CONTINUOUS
10
3.28143
20
-4.14797
11
3.2843
21
-4.14605
0
LINE
8
BLACK
6
CONTINUOUS
10
3.2843
20
-4.14605
11
3.28769
21
-4.14538
0
LINE
8
BLACK
6
CONTINUOUS
10
3.28769
20
-4.14538
11
3.30541
21
-4.14538
0
LINE
8
BLACK
6
CONTINUOUS
10
3.30541
20
-4.14538
11
3.3088
21
-4.14605
0
LINE
8
BLACK
6
CONTINUOUS
10
3.22061
20
-4.14605
11
3.22348
21
-4.14797
0
LINE
8
BLACK
6
CONTINUOUS
10
3.22348
20
-4.14797
11
3.2254
21
-4.15085
0
LINE
8
BLACK
6
CONTINUOUS
10
3.2254
20
-4.15085
11
3.22608
21
-4.15424
0
LINE
8
BLACK
6
CONTINUOUS
10
3.22608
20
-4.15424
11
3.22608
21
-4.17195
0
LINE
8
BLACK
6
CONTINUOUS
10
3.22608
20
-4.17195
11
3.2254
21
-4.17534
0
LINE
8
BLACK
6
CONTINUOUS
10
3.2254
20
-4.17534
11
3.22348
21
-4.17822
0
LINE
8
BLACK
6
CONTINUOUS
10
3.22348
20
-4.17822
11
3.22061
21
-4.18014
0
LINE
8
BLACK
6
CONTINUOUS
10
3.22061
20
-4.18014
11
3.21722
21
-4.18081
0
LINE
8
BLACK
6
CONTINUOUS
10
3.21722
20
-4.18081
11
3.1995
21
-4.18081
0
LINE
8
BLACK
6
CONTINUOUS
10
3.1995
20
-4.18081
11
3.19611
21
-4.18014
0
LINE
8
BLACK
6
CONTINUOUS
10
3.19611
20
-4.18014
11
3.19324
21
-4.17822
0
LINE
8
BLACK
6
CONTINUOUS
10
3.19324
20
-4.17822
11
3.19132
21
-4.17534
0
LINE
8
BLACK
6
CONTINUOUS
10
3.19132
20
-4.17534
11
3.19065
21
-4.17195
0
LINE
8
BLACK
6
CONTINUOUS
10
3.19065
20
-4.17195
11
3.19065
21
-4.15424
0
LINE
8
BLACK
6
CONTINUOUS
10
3.19065
20
-4.15424
11
3.19132
21
-4.15085
0
LINE
8
BLACK
6
CONTINUOUS
10
3.19132
20
-4.15085
11
3.19324
21
-4.14797
0
LINE
8
BLACK
6
CONTINUOUS
10
3.19324
20
-4.14797
11
3.19611
21
-4.14605
0
LINE
8
BLACK
6
CONTINUOUS
10
3.19611
20
-4.14605
11
3.1995
21
-4.14538
0
LINE
8
BLACK
6
CONTINUOUS
10
3.1995
20
-4.14538
11
3.21722
21
-4.14538
0
LINE
8
BLACK
6
CONTINUOUS
10
3.21722
20
-4.14538
11
3.22061
21
-4.14605
0
LINE
8
BLACK
6
CONTINUOUS
10
3.2647
20
-4.14605
11
3.26758
21
-4.14797
0
LINE
8
BLACK
6
CONTINUOUS
10
3.26758
20
-4.14797
11
3.2695
21
-4.15085
0
LINE
8
BLACK
6
CONTINUOUS
10
3.2695
20
-4.15085
11
3.27017
21
-4.15424
0
LINE
8
BLACK
6
CONTINUOUS
10
3.27017
20
-4.15424
11
3.27017
21
-4.17195
0
LINE
8
BLACK
6
CONTINUOUS
10
3.27017
20
-4.17195
11
3.2695
21
-4.17534
0
LINE
8
BLACK
6
CONTINUOUS
10
3.2695
20
-4.17534
11
3.26758
21
-4.17822
0
LINE
8
BLACK
6
CONTINUOUS
10
3.26758
20
-4.17822
11
3.2647
21
-4.18014
0
LINE
8
BLACK
6
CONTINUOUS
10
3.2647
20
-4.18014
11
3.26131
21
-4.18081
0
LINE
8
BLACK
6
CONTINUOUS
10
3.26131
20
-4.18081
11
3.2436
21
-4.18081
0
LINE
8
BLACK
6
CONTINUOUS
10
3.2436
20
-4.18081
11
3.24021
21
-4.18014
0
LINE
8
BLACK
6
CONTINUOUS
10
3.24021
20
-4.18014
11
3.23733
21
-4.17822
0
LINE
8
BLACK
6
CONTINUOUS
10
3.23733
20
-4.17822
11
3.23541
21
-4.17534
0
LINE
8
BLACK
6
CONTINUOUS
10
3.23541
20
-4.17534
11
3.23474
21
-4.17195
0
LINE
8
BLACK
6
CONTINUOUS
10
3.23474
20
-4.17195
11
3.23474
21
-4.15424
0
LINE
8
BLACK
6
CONTINUOUS
10
3.23474
20
-4.15424
11
3.23541
21
-4.15085
0
LINE
8
BLACK
6
CONTINUOUS
10
3.23541
20
-4.15085
11
3.23733
21
-4.14797
0
LINE
8
BLACK
6
CONTINUOUS
10
3.23733
20
-4.14797
11
3.24021
21
-4.14605
0
LINE
8
BLACK
6
CONTINUOUS
10
3.24021
20
-4.14605
11
3.2436
21
-4.14538
0
LINE
8
BLACK
6
CONTINUOUS
10
3.2436
20
-4.14538
11
3.26131
21
-4.14538
0
LINE
8
BLACK
6
CONTINUOUS
10
3.26131
20
-4.14538
11
3.2647
21
-4.14605
0
LINE
8
BLACK
6
CONTINUOUS
10
3.17023
20
-4.15364
11
3.17103
21
-4.15417
0
LINE
8
BLACK
6
CONTINUOUS
10
3.17103
20
-4.15417
11
3.17156
21
-4.15497
0
LINE
8
BLACK
6
CONTINUOUS
10
3.17156
20
-4.15497
11
3.17175
21
-4.15591
0
LINE
8
BLACK
6
CONTINUOUS
10
3.17175
20
-4.15591
11
3.17175
21
-4.16083
0
LINE
8
BLACK
6
CONTINUOUS
10
3.17175
20
-4.16083
11
3.17156
21
-4.16177
0
LINE
8
BLACK
6
CONTINUOUS
10
3.17156
20
-4.16177
11
3.17103
21
-4.16257
0
LINE
8
BLACK
6
CONTINUOUS
10
3.17103
20
-4.16257
11
3.17023
21
-4.1631
0
LINE
8
BLACK
6
CONTINUOUS
10
3.17023
20
-4.1631
11
3.16929
21
-4.16329
0
LINE
8
BLACK
6
CONTINUOUS
10
3.16929
20
-4.16329
11
3.14271
21
-4.16329
0
LINE
8
BLACK
6
CONTINUOUS
10
3.14271
20
-4.16329
11
3.14177
21
-4.1631
0
LINE
8
BLACK
6
CONTINUOUS
10
3.14177
20
-4.1631
11
3.14097
21
-4.16257
0
LINE
8
BLACK
6
CONTINUOUS
10
3.14097
20
-4.16257
11
3.14044
21
-4.16177
0
LINE
8
BLACK
6
CONTINUOUS
10
3.14044
20
-4.16177
11
3.14025
21
-4.16083
0
LINE
8
BLACK
6
CONTINUOUS
10
3.14025
20
-4.16083
11
3.14025
21
-4.15591
0
LINE
8
BLACK
6
CONTINUOUS
10
3.14025
20
-4.15591
11
3.14044
21
-4.15497
0
LINE
8
BLACK
6
CONTINUOUS
10
3.14044
20
-4.15497
11
3.14097
21
-4.15417
0
LINE
8
BLACK
6
CONTINUOUS
10
3.14097
20
-4.15417
11
3.14177
21
-4.15364
0
LINE
8
BLACK
6
CONTINUOUS
10
3.14177
20
-4.15364
11
3.14271
21
-4.15345
0
LINE
8
BLACK
6
CONTINUOUS
10
3.14271
20
-4.15345
11
3.16929
21
-4.15345
0
LINE
8
BLACK
6
CONTINUOUS
10
3.16929
20
-4.15345
11
3.17023
21
-4.15364
0
LINE
8
BLACK
6
CONTINUOUS
10
3.36314
20
-4.15364
11
3.36394
21
-4.15417
0
LINE
8
BLACK
6
CONTINUOUS
10
3.36394
20
-4.15417
11
3.36447
21
-4.15497
0
LINE
8
BLACK
6
CONTINUOUS
10
3.36447
20
-4.15497
11
3.36466
21
-4.15591
0
LINE
8
BLACK
6
CONTINUOUS
10
3.36466
20
-4.15591
11
3.36466
21
-4.16083
0
LINE
8
BLACK
6
CONTINUOUS
10
3.36466
20
-4.16083
11
3.36447
21
-4.16177
0
LINE
8
BLACK
6
CONTINUOUS
10
3.36447
20
-4.16177
11
3.36394
21
-4.16257
0
LINE
8
BLACK
6
CONTINUOUS
10
3.36394
20
-4.16257
11
3.36314
21
-4.1631
0
LINE
8
BLACK
6
CONTINUOUS
10
3.36314
20
-4.1631
11
3.3622
21
-4.16329
0
LINE
8
BLACK
6
CONTINUOUS
10
3.3622
20
-4.16329
11
3.33563
21
-4.16329
0
LINE
8
BLACK
6
CONTINUOUS
10
3.33563
20
-4.16329
11
3.33468
21
-4.1631
0
LINE
8
BLACK
6
CONTINUOUS
10
3.33468
20
-4.1631
11
3.33389
21
-4.16257
0
LINE
8
BLACK
6
CONTINUOUS
10
3.33389
20
-4.16257
11
3.33335
21
-4.16177
0
LINE
8
BLACK
6
CONTINUOUS
10
3.33335
20
-4.16177
11
3.33317
21
-4.16083
0
LINE
8
BLACK
6
CONTINUOUS
10
3.33317
20
-4.16083
11
3.33317
21
-4.15591
0
LINE
8
BLACK
6
CONTINUOUS
10
3.33317
20
-4.15591
11
3.33335
21
-4.15497
0
LINE
8
BLACK
6
CONTINUOUS
10
3.33335
20
-4.15497
11
3.33389
21
-4.15417
0
LINE
8
BLACK
6
CONTINUOUS
10
3.33389
20
-4.15417
11
3.33468
21
-4.15364
0
LINE
8
BLACK
6
CONTINUOUS
10
3.33468
20
-4.15364
11
3.33563
21
-4.15345
0
LINE
8
BLACK
6
CONTINUOUS
10
3.33563
20
-4.15345
11
3.3622
21
-4.15345
0
LINE
8
BLACK
6
CONTINUOUS
10
3.3622
20
-4.15345
11
3.36314
21
-4.15364
0
LINE
8
BLACK
6
CONTINUOUS
10
3.5798
20
-4.16246
11
3.5542
21
-4.16246
0
LINE
8
BLACK
6
CONTINUOUS
10
3.5542
20
-4.16246
11
3.5542
21
-4.14672
0
LINE
8
BLACK
6
CONTINUOUS
10
3.5542
20
-4.14672
11
3.5798
21
-4.14672
0
LINE
8
BLACK
6
CONTINUOUS
10
3.5798
20
-4.14672
11
3.5798
21
-4.16246
0
LINE
8
BLACK
6
CONTINUOUS
10
3.6546
20
-4.16246
11
3.62901
21
-4.16246
0
LINE
8
BLACK
6
CONTINUOUS
10
3.62901
20
-4.16246
11
3.62901
21
-4.14672
0
LINE
8
BLACK
6
CONTINUOUS
10
3.62901
20
-4.14672
11
3.6546
21
-4.14672
0
LINE
8
BLACK
6
CONTINUOUS
10
3.6546
20
-4.14672
11
3.6546
21
-4.16246
0
LINE
8
BLACK
6
CONTINUOUS
10
3.17023
20
-4.13395
11
3.17103
21
-4.13448
0
LINE
8
BLACK
6
CONTINUOUS
10
3.17103
20
-4.13448
11
3.17156
21
-4.13528
0
LINE
8
BLACK
6
CONTINUOUS
10
3.17156
20
-4.13528
11
3.17175
21
-4.13622
0
LINE
8
BLACK
6
CONTINUOUS
10
3.17175
20
-4.13622
11
3.17175
21
-4.14115
0
LINE
8
BLACK
6
CONTINUOUS
10
3.17175
20
-4.14115
11
3.17156
21
-4.14209
0
LINE
8
BLACK
6
CONTINUOUS
10
3.17156
20
-4.14209
11
3.17103
21
-4.14289
0
LINE
8
BLACK
6
CONTINUOUS
10
3.17103
20
-4.14289
11
3.17023
21
-4.14342
0
LINE
8
BLACK
6
CONTINUOUS
10
3.17023
20
-4.14342
11
3.16929
21
-4.14361
0
LINE
8
BLACK
6
CONTINUOUS
10
3.16929
20
-4.14361
11
3.14271
21
-4.14361
0
LINE
8
BLACK
6
CONTINUOUS
10
3.14271
20
-4.14361
11
3.14177
21
-4.14342
0
LINE
8
BLACK
6
CONTINUOUS
10
3.14177
20
-4.14342
11
3.14097
21
-4.14289
0
LINE
8
BLACK
6
CONTINUOUS
10
3.14097
20
-4.14289
11
3.14044
21
-4.14209
0
LINE
8
BLACK
6
CONTINUOUS
10
3.14044
20
-4.14209
11
3.14025
21
-4.14115
0
LINE
8
BLACK
6
CONTINUOUS
10
3.14025
20
-4.14115
11
3.14025
21
-4.13622
0
LINE
8
BLACK
6
CONTINUOUS
10
3.14025
20
-4.13622
11
3.14044
21
-4.13528
0
LINE
8
BLACK
6
CONTINUOUS
10
3.14044
20
-4.13528
11
3.14097
21
-4.13448
0
LINE
8
BLACK
6
CONTINUOUS
10
3.14097
20
-4.13448
11
3.14177
21
-4.13395
0
LINE
8
BLACK
6
CONTINUOUS
10
3.14177
20
-4.13395
11
3.14271
21
-4.13376
0
LINE
8
BLACK
6
CONTINUOUS
10
3.14271
20
-4.13376
11
3.16929
21
-4.13376
0
LINE
8
BLACK
6
CONTINUOUS
10
3.16929
20
-4.13376
11
3.17023
21
-4.13395
0
LINE
8
BLACK
6
CONTINUOUS
10
3.36314
20
-4.13395
11
3.36394
21
-4.13448
0
LINE
8
BLACK
6
CONTINUOUS
10
3.36394
20
-4.13448
11
3.36447
21
-4.13528
0
LINE
8
BLACK
6
CONTINUOUS
10
3.36447
20
-4.13528
11
3.36466
21
-4.13622
0
LINE
8
BLACK
6
CONTINUOUS
10
3.36466
20
-4.13622
11
3.36466
21
-4.14115
0
LINE
8
BLACK
6
CONTINUOUS
10
3.36466
20
-4.14115
11
3.36447
21
-4.14209
0
LINE
8
BLACK
6
CONTINUOUS
10
3.36447
20
-4.14209
11
3.36394
21
-4.14289
0
LINE
8
BLACK
6
CONTINUOUS
10
3.36394
20
-4.14289
11
3.36314
21
-4.14342
0
LINE
8
BLACK
6
CONTINUOUS
10
3.36314
20
-4.14342
11
3.3622
21
-4.14361
0
LINE
8
BLACK
6
CONTINUOUS
10
3.3622
20
-4.14361
11
3.33563
21
-4.14361
0
LINE
8
BLACK
6
CONTINUOUS
10
3.33563
20
-4.14361
11
3.33468
21
-4.14342
0
LINE
8
BLACK
6
CONTINUOUS
10
3.33468
20
-4.14342
11
3.33389
21
-4.14289
0
LINE
8
BLACK
6
CONTINUOUS
10
3.33389
20
-4.14289
11
3.33335
21
-4.14209
0
LINE
8
BLACK
6
CONTINUOUS
10
3.33335
20
-4.14209
11
3.33317
21
-4.14115
0
LINE
8
BLACK
6
CONTINUOUS
10
3.33317
20
-4.14115
11
3.33317
21
-4.13622
0
LINE
8
BLACK
6
CONTINUOUS
10
3.33317
20
-4.13622
11
3.33335
21
-4.13528
0
LINE
8
BLACK
6
CONTINUOUS
10
3.33335
20
-4.13528
11
3.33389
21
-4.13448
0
LINE
8
BLACK
6
CONTINUOUS
10
3.33389
20
-4.13448
11
3.33468
21
-4.13395
0
LINE
8
BLACK
6
CONTINUOUS
10
3.33468
20
-4.13395
11
3.33563
21
-4.13376
0
LINE
8
BLACK
6
CONTINUOUS
10
3.33563
20
-4.13376
11
3.3622
21
-4.13376
0
LINE
8
BLACK
6
CONTINUOUS
10
3.3622
20
-4.13376
11
3.36314
21
-4.13395
0
LINE
8
BLACK
6
CONTINUOUS
10
3.5798
20
-4.13687
11
3.5542
21
-4.13687
0
LINE
8
BLACK
6
CONTINUOUS
10
3.5542
20
-4.13687
11
3.5542
21
-4.12113
0
LINE
8
BLACK
6
CONTINUOUS
10
3.5542
20
-4.12113
11
3.5798
21
-4.12113
0
LINE
8
BLACK
6
CONTINUOUS
10
3.5798
20
-4.12113
11
3.5798
21
-4.13687
0
LINE
8
BLACK
6
CONTINUOUS
10
3.6546
20
-4.13687
11
3.62901
21
-4.13687
0
LINE
8
BLACK
6
CONTINUOUS
10
3.62901
20
-4.13687
11
3.62901
21
-4.12113
0
LINE
8
BLACK
6
CONTINUOUS
10
3.62901
20
-4.12113
11
3.6546
21
-4.12113
0
LINE
8
BLACK
6
CONTINUOUS
10
3.6546
20
-4.12113
11
3.6546
21
-4.13687
0
LINE
8
BLACK
6
CONTINUOUS
10
3.3088
20
-4.10196
11
3.31167
21
-4.10388
0
LINE
8
BLACK
6
CONTINUOUS
10
3.31167
20
-4.10388
11
3.31359
21
-4.10675
0
LINE
8
BLACK
6
CONTINUOUS
10
3.31359
20
-4.10675
11
3.31427
21
-4.11014
0
LINE
8
BLACK
6
CONTINUOUS
10
3.31427
20
-4.11014
11
3.31427
21
-4.12786
0
LINE
8
BLACK
6
CONTINUOUS
10
3.31427
20
-4.12786
11
3.31359
21
-4.13125
0
LINE
8
BLACK
6
CONTINUOUS
10
3.31359
20
-4.13125
11
3.31167
21
-4.13412
0
LINE
8
BLACK
6
CONTINUOUS
10
3.31167
20
-4.13412
11
3.3088
21
-4.13604
0
LINE
8
BLACK
6
CONTINUOUS
10
3.3088
20
-4.13604
11
3.30541
21
-4.13672
0
LINE
8
BLACK
6
CONTINUOUS
10
3.30541
20
-4.13672
11
3.28769
21
-4.13672
0
LINE
8
BLACK
6
CONTINUOUS
10
3.28769
20
-4.13672
11
3.2843
21
-4.13604
0
LINE
8
BLACK
6
CONTINUOUS
10
3.2843
20
-4.13604
11
3.28143
21
-4.13412
0
LINE
8
BLACK
6
CONTINUOUS
10
3.28143
20
-4.13412
11
3.27951
21
-4.13125
0
LINE
8
BLACK
6
CONTINUOUS
10
3.27951
20
-4.13125
11
3.27883
21
-4.12786
0
LINE
8
BLACK
6
CONTINUOUS
10
3.27883
20
-4.12786
11
3.27883
21
-4.11014
0
LINE
8
BLACK
6
CONTINUOUS
10
3.27883
20
-4.11014
11
3.27951
21
-4.10675
0
LINE
8
BLACK
6
CONTINUOUS
10
3.27951
20
-4.10675
11
3.28143
21
-4.10388
0
LINE
8
BLACK
6
CONTINUOUS
10
3.28143
20
-4.10388
11
3.2843
21
-4.10196
0
LINE
8
BLACK
6
CONTINUOUS
10
3.2843
20
-4.10196
11
3.28769
21
-4.10128
0
LINE
8
BLACK
6
CONTINUOUS
10
3.28769
20
-4.10128
11
3.30541
21
-4.10128
0
LINE
8
BLACK
6
CONTINUOUS
10
3.30541
20
-4.10128
11
3.3088
21
-4.10196
0
LINE
8
BLACK
6
CONTINUOUS
10
3.2647
20
-4.10196
11
3.26758
21
-4.10388
0
LINE
8
BLACK
6
CONTINUOUS
10
3.26758
20
-4.10388
11
3.2695
21
-4.10675
0
LINE
8
BLACK
6
CONTINUOUS
10
3.2695
20
-4.10675
11
3.27017
21
-4.11014
0
LINE
8
BLACK
6
CONTINUOUS
10
3.27017
20
-4.11014
11
3.27017
21
-4.12786
0
LINE
8
BLACK
6
CONTINUOUS
10
3.27017
20
-4.12786
11
3.2695
21
-4.13125
0
LINE
8
BLACK
6
CONTINUOUS
10
3.2695
20
-4.13125
11
3.26758
21
-4.13412
0
LINE
8
BLACK
6
CONTINUOUS
10
3.26758
20
-4.13412
11
3.2647
21
-4.13604
0
LINE
8
BLACK
6
CONTINUOUS
10
3.2647
20
-4.13604
11
3.26131
21
-4.13672
0
LINE
8
BLACK
6
CONTINUOUS
10
3.26131
20
-4.13672
11
3.2436
21
-4.13672
0
LINE
8
BLACK
6
CONTINUOUS
10
3.2436
20
-4.13672
11
3.24021
21
-4.13604
0
LINE
8
BLACK
6
CONTINUOUS
10
3.24021
20
-4.13604
11
3.23733
21
-4.13412
0
LINE
8
BLACK
6
CONTINUOUS
10
3.23733
20
-4.13412
11
3.23541
21
-4.13125
0
LINE
8
BLACK
6
CONTINUOUS
10
3.23541
20
-4.13125
11
3.23474
21
-4.12786
0
LINE
8
BLACK
6
CONTINUOUS
10
3.23474
20
-4.12786
11
3.23474
21
-4.11014
0
LINE
8
BLACK
6
CONTINUOUS
10
3.23474
20
-4.11014
11
3.23541
21
-4.10675
0
LINE
8
BLACK
6
CONTINUOUS
10
3.23541
20
-4.10675
11
3.23733
21
-4.10388
0
LINE
8
BLACK
6
CONTINUOUS
10
3.23733
20
-4.10388
11
3.24021
21
-4.10196
0
LINE
8
BLACK
6
CONTINUOUS
10
3.24021
20
-4.10196
11
3.2436
21
-4.10128
0
LINE
8
BLACK
6
CONTINUOUS
10
3.2436
20
-4.10128
11
3.26131
21
-4.10128
0
LINE
8
BLACK
6
CONTINUOUS
10
3.26131
20
-4.10128
11
3.2647
21
-4.10196
0
LINE
8
BLACK
6
CONTINUOUS
10
3.22061
20
-4.10196
11
3.22348
21
-4.10388
0
LINE
8
BLACK
6
CONTINUOUS
10
3.22348
20
-4.10388
11
3.2254
21
-4.10675
0
LINE
8
BLACK
6
CONTINUOUS
10
3.2254
20
-4.10675
11
3.22608
21
-4.11014
0
LINE
8
BLACK
6
CONTINUOUS
10
3.22608
20
-4.11014
11
3.22608
21
-4.12786
0
LINE
8
BLACK
6
CONTINUOUS
10
3.22608
20
-4.12786
11
3.2254
21
-4.13125
0
LINE
8
BLACK
6
CONTINUOUS
10
3.2254
20
-4.13125
11
3.22348
21
-4.13412
0
LINE
8
BLACK
6
CONTINUOUS
10
3.22348
20
-4.13412
11
3.22061
21
-4.13604
0
LINE
8
BLACK
6
CONTINUOUS
10
3.22061
20
-4.13604
11
3.21722
21
-4.13672
0
LINE
8
BLACK
6
CONTINUOUS
10
3.21722
20
-4.13672
11
3.1995
21
-4.13672
0
LINE
8
BLACK
6
CONTINUOUS
10
3.1995
20
-4.13672
11
3.19611
21
-4.13604
0
LINE
8
BLACK
6
CONTINUOUS
10
3.19611
20
-4.13604
11
3.19324
21
-4.13412
0
LINE
8
BLACK
6
CONTINUOUS
10
3.19324
20
-4.13412
11
3.19132
21
-4.13125
0
LINE
8
BLACK
6
CONTINUOUS
10
3.19132
20
-4.13125
11
3.19065
21
-4.12786
0
LINE
8
BLACK
6
CONTINUOUS
10
3.19065
20
-4.12786
11
3.19065
21
-4.11014
0
LINE
8
BLACK
6
CONTINUOUS
10
3.19065
20
-4.11014
11
3.19132
21
-4.10675
0
LINE
8
BLACK
6
CONTINUOUS
10
3.19132
20
-4.10675
11
3.19324
21
-4.10388
0
LINE
8
BLACK
6
CONTINUOUS
10
3.19324
20
-4.10388
11
3.19611
21
-4.10196
0
LINE
8
BLACK
6
CONTINUOUS
10
3.19611
20
-4.10196
11
3.1995
21
-4.10128
0
LINE
8
BLACK
6
CONTINUOUS
10
3.1995
20
-4.10128
11
3.21722
21
-4.10128
0
LINE
8
BLACK
6
CONTINUOUS
10
3.21722
20
-4.10128
11
3.22061
21
-4.10196
0
LINE
8
BLACK
6
CONTINUOUS
10
3.17023
20
-4.11427
11
3.17103
21
-4.1148
0
LINE
8
BLACK
6
CONTINUOUS
10
3.17103
20
-4.1148
11
3.17156
21
-4.1156
0
LINE
8
BLACK
6
CONTINUOUS
10
3.17156
20
-4.1156
11
3.17175
21
-4.11654
0
LINE
8
BLACK
6
CONTINUOUS
10
3.17175
20
-4.11654
11
3.17175
21
-4.12146
0
LINE
8
BLACK
6
CONTINUOUS
10
3.17175
20
-4.12146
11
3.17156
21
-4.1224
0
LINE
8
BLACK
6
CONTINUOUS
10
3.17156
20
-4.1224
11
3.17103
21
-4.1232
0
LINE
8
BLACK
6
CONTINUOUS
10
3.17103
20
-4.1232
11
3.17023
21
-4.12373
0
LINE
8
BLACK
6
CONTINUOUS
10
3.17023
20
-4.12373
11
3.16929
21
-4.12392
0
LINE
8
BLACK
6
CONTINUOUS
10
3.16929
20
-4.12392
11
3.14271
21
-4.12392
0
LINE
8
BLACK
6
CONTINUOUS
10
3.14271
20
-4.12392
11
3.14177
21
-4.12373
0
LINE
8
BLACK
6
CONTINUOUS
10
3.14177
20
-4.12373
11
3.14097
21
-4.1232
0
LINE
8
BLACK
6
CONTINUOUS
10
3.14097
20
-4.1232
11
3.14044
21
-4.1224
0
LINE
8
BLACK
6
CONTINUOUS
10
3.14044
20
-4.1224
11
3.14025
21
-4.12146
0
LINE
8
BLACK
6
CONTINUOUS
10
3.14025
20
-4.12146
11
3.14025
21
-4.11654
0
LINE
8
BLACK
6
CONTINUOUS
10
3.14025
20
-4.11654
11
3.14044
21
-4.1156
0
LINE
8
BLACK
6
CONTINUOUS
10
3.14044
20
-4.1156
11
3.14097
21
-4.1148
0
LINE
8
BLACK
6
CONTINUOUS
10
3.14097
20
-4.1148
11
3.14177
21
-4.11427
0
LINE
8
BLACK
6
CONTINUOUS
10
3.14177
20
-4.11427
11
3.14271
21
-4.11408
0
LINE
8
BLACK
6
CONTINUOUS
10
3.14271
20
-4.11408
11
3.16929
21
-4.11408
0
LINE
8
BLACK
6
CONTINUOUS
10
3.16929
20
-4.11408
11
3.17023
21
-4.11427
0
LINE
8
BLACK
6
CONTINUOUS
10
3.36314
20
-4.11427
11
3.36394
21
-4.1148
0
LINE
8
BLACK
6
CONTINUOUS
10
3.36394
20
-4.1148
11
3.36447
21
-4.1156
0
LINE
8
BLACK
6
CONTINUOUS
10
3.36447
20
-4.1156
11
3.36466
21
-4.11654
0
LINE
8
BLACK
6
CONTINUOUS
10
3.36466
20
-4.11654
11
3.36466
21
-4.12146
0
LINE
8
BLACK
6
CONTINUOUS
10
3.36466
20
-4.12146
11
3.36447
21
-4.1224
0
LINE
8
BLACK
6
CONTINUOUS
10
3.36447
20
-4.1224
11
3.36394
21
-4.1232
0
LINE
8
BLACK
6
CONTINUOUS
10
3.36394
20
-4.1232
11
3.36314
21
-4.12373
0
LINE
8
BLACK
6
CONTINUOUS
10
3.36314
20
-4.12373
11
3.3622
21
-4.12392
0
LINE
8
BLACK
6
CONTINUOUS
10
3.3622
20
-4.12392
11
3.33563
21
-4.12392
0
LINE
8
BLACK
6
CONTINUOUS
10
3.33563
20
-4.12392
11
3.33468
21
-4.12373
0
LINE
8
BLACK
6
CONTINUOUS
10
3.33468
20
-4.12373
11
3.33389
21
-4.1232
0
LINE
8
BLACK
6
CONTINUOUS
10
3.33389
20
-4.1232
11
3.33335
21
-4.1224
0
LINE
8
BLACK
6
CONTINUOUS
10
3.33335
20
-4.1224
11
3.33317
21
-4.12146
0
LINE
8
BLACK
6
CONTINUOUS
10
3.33317
20
-4.12146
11
3.33317
21
-4.11654
0
LINE
8
BLACK
6
CONTINUOUS
10
3.33317
20
-4.11654
11
3.33335
21
-4.1156
0
LINE
8
BLACK
6
CONTINUOUS
10
3.33335
20
-4.1156
11
3.33389
21
-4.1148
0
LINE
8
BLACK
6
CONTINUOUS
10
3.33389
20
-4.1148
11
3.33468
21
-4.11427
0
LINE
8
BLACK
6
CONTINUOUS
10
3.33468
20
-4.11427
11
3.33563
21
-4.11408
0
LINE
8
BLACK
6
CONTINUOUS
10
3.33563
20
-4.11408
11
3.3622
21
-4.11408
0
LINE
8
BLACK
6
CONTINUOUS
10
3.3622
20
-4.11408
11
3.36314
21
-4.11427
0
LINE
8
BLACK
6
CONTINUOUS
10
3.5798
20
-4.11128
11
3.5542
21
-4.11128
0
LINE
8
BLACK
6
CONTINUOUS
10
3.5542
20
-4.11128
11
3.5542
21
-4.09554
0
LINE
8
BLACK
6
CONTINUOUS
10
3.5542
20
-4.09554
11
3.5798
21
-4.09554
0
LINE
8
BLACK
6
CONTINUOUS
10
3.5798
20
-4.09554
11
3.5798
21
-4.11128
0
LINE
8
BLACK
6
CONTINUOUS
10
3.6546
20
-4.11128
11
3.62901
21
-4.11128
0
LINE
8
BLACK
6
CONTINUOUS
10
3.62901
20
-4.11128
11
3.62901
21
-4.09554
0
LINE
8
BLACK
6
CONTINUOUS
10
3.62901
20
-4.09554
11
3.6546
21
-4.09554
0
LINE
8
BLACK
6
CONTINUOUS
10
3.6546
20
-4.09554
11
3.6546
21
-4.11128
0
LINE
8
BLACK
6
CONTINUOUS
10
3.0208
20
-4.10456
11
2.9952
21
-4.10456
0
LINE
8
BLACK
6
CONTINUOUS
10
2.9952
20
-4.10456
11
2.9952
21
-4.04314
0
LINE
8
BLACK
6
CONTINUOUS
10
2.9952
20
-4.04314
11
3.0208
21
-4.04314
0
LINE
8
BLACK
6
CONTINUOUS
10
3.0208
20
-4.04314
11
3.0208
21
-4.10456
0
LINE
8
BLACK
6
CONTINUOUS
10
3.0582
20
-4.10456
11
3.03261
21
-4.10456
0
LINE
8
BLACK
6
CONTINUOUS
10
3.03261
20
-4.10456
11
3.03261
21
-4.04314
0
LINE
8
BLACK
6
CONTINUOUS
10
3.03261
20
-4.04314
11
3.0582
21
-4.04314
0
LINE
8
BLACK
6
CONTINUOUS
10
3.0582
20
-4.04314
11
3.0582
21
-4.10456
0
LINE
8
BLACK
6
CONTINUOUS
10
2.98339
20
-4.10456
11
2.9578
21
-4.10456
0
LINE
8
BLACK
6
CONTINUOUS
10
2.9578
20
-4.10456
11
2.9578
21
-4.04314
0
LINE
8
BLACK
6
CONTINUOUS
10
2.9578
20
-4.04314
11
2.98339
21
-4.04314
0
LINE
8
BLACK
6
CONTINUOUS
10
2.98339
20
-4.04314
11
2.98339
21
-4.10456
0
LINE
8
BLACK
6
CONTINUOUS
10
3.36314
20
-4.09458
11
3.36394
21
-4.09511
0
LINE
8
BLACK
6
CONTINUOUS
10
3.36394
20
-4.09511
11
3.36447
21
-4.09591
0
LINE
8
BLACK
6
CONTINUOUS
10
3.36447
20
-4.09591
11
3.36466
21
-4.09685
0
LINE
8
BLACK
6
CONTINUOUS
10
3.36466
20
-4.09685
11
3.36466
21
-4.10178
0
LINE
8
BLACK
6
CONTINUOUS
10
3.36466
20
-4.10178
11
3.36447
21
-4.10272
0
LINE
8
BLACK
6
CONTINUOUS
10
3.36447
20
-4.10272
11
3.36394
21
-4.10352
0
LINE
8
BLACK
6
CONTINUOUS
10
3.36394
20
-4.10352
11
3.36314
21
-4.10405
0
LINE
8
BLACK
6
CONTINUOUS
10
3.36314
20
-4.10405
11
3.3622
21
-4.10424
0
LINE
8
BLACK
6
CONTINUOUS
10
3.3622
20
-4.10424
11
3.33563
21
-4.10424
0
LINE
8
BLACK
6
CONTINUOUS
10
3.33563
20
-4.10424
11
3.33468
21
-4.10405
0
LINE
8
BLACK
6
CONTINUOUS
10
3.33468
20
-4.10405
11
3.33389
21
-4.10352
0
LINE
8
BLACK
6
CONTINUOUS
10
3.33389
20
-4.10352
11
3.33335
21
-4.10272
0
LINE
8
BLACK
6
CONTINUOUS
10
3.33335
20
-4.10272
11
3.33317
21
-4.10178
0
LINE
8
BLACK
6
CONTINUOUS
10
3.33317
20
-4.10178
11
3.33317
21
-4.09685
0
LINE
8
BLACK
6
CONTINUOUS
10
3.33317
20
-4.09685
11
3.33335
21
-4.09591
0
LINE
8
BLACK
6
CONTINUOUS
10
3.33335
20
-4.09591
11
3.33389
21
-4.09511
0
LINE
8
BLACK
6
CONTINUOUS
10
3.33389
20
-4.09511
11
3.33468
21
-4.09458
0
LINE
8
BLACK
6
CONTINUOUS
10
3.33468
20
-4.09458
11
3.33563
21
-4.09439
0
LINE
8
BLACK
6
CONTINUOUS
10
3.33563
20
-4.09439
11
3.3622
21
-4.09439
0
LINE
8
BLACK
6
CONTINUOUS
10
3.3622
20
-4.09439
11
3.36314
21
-4.09458
0
LINE
8
BLACK
6
CONTINUOUS
10
3.17023
20
-4.09458
11
3.17103
21
-4.09511
0
LINE
8
BLACK
6
CONTINUOUS
10
3.17103
20
-4.09511
11
3.17156
21
-4.09591
0
LINE
8
BLACK
6
CONTINUOUS
10
3.17156
20
-4.09591
11
3.17175
21
-4.09685
0
LINE
8
BLACK
6
CONTINUOUS
10
3.17175
20
-4.09685
11
3.17175
21
-4.10178
0
LINE
8
BLACK
6
CONTINUOUS
10
3.17175
20
-4.10178
11
3.17156
21
-4.10272
0
LINE
8
BLACK
6
CONTINUOUS
10
3.17156
20
-4.10272
11
3.17103
21
-4.10352
0
LINE
8
BLACK
6
CONTINUOUS
10
3.17103
20
-4.10352
11
3.17023
21
-4.10405
0
LINE
8
BLACK
6
CONTINUOUS
10
3.17023
20
-4.10405
11
3.16929
21
-4.10424
0
LINE
8
BLACK
6
CONTINUOUS
10
3.16929
20
-4.10424
11
3.14271
21
-4.10424
0
LINE
8
BLACK
6
CONTINUOUS
10
3.14271
20
-4.10424
11
3.14177
21
-4.10405
0
LINE
8
BLACK
6
CONTINUOUS
10
3.14177
20
-4.10405
11
3.14097
21
-4.10352
0
LINE
8
BLACK
6
CONTINUOUS
10
3.14097
20
-4.10352
11
3.14044
21
-4.10272
0
LINE
8
BLACK
6
CONTINUOUS
10
3.14044
20
-4.10272
11
3.14025
21
-4.10178
0
LINE
8
BLACK
6
CONTINUOUS
10
3.14025
20
-4.10178
11
3.14025
21
-4.09685
0
LINE
8
BLACK
6
CONTINUOUS
10
3.14025
20
-4.09685
11
3.14044
21
-4.09591
0
LINE
8
BLACK
6
CONTINUOUS
10
3.14044
20
-4.09591
11
3.14097
21
-4.09511
0
LINE
8
BLACK
6
CONTINUOUS
10
3.14097
20
-4.09511
11
3.14177
21
-4.09458
0
LINE
8
BLACK
6
CONTINUOUS
10
3.14177
20
-4.09458
11
3.14271
21
-4.09439
0
LINE
8
BLACK
6
CONTINUOUS
10
3.14271
20
-4.09439
11
3.16929
21
-4.09439
0
LINE
8
BLACK
6
CONTINUOUS
10
3.16929
20
-4.09439
11
3.17023
21
-4.09458
0
LINE
8
BLACK
6
CONTINUOUS
10
3.3088
20
-4.05786
11
3.31167
21
-4.05978
0
LINE
8
BLACK
6
CONTINUOUS
10
3.31167
20
-4.05978
11
3.31359
21
-4.06266
0
LINE
8
BLACK
6
CONTINUOUS
10
3.31359
20
-4.06266
11
3.31427
21
-4.06605
0
LINE
8
BLACK
6
CONTINUOUS
10
3.31427
20
-4.06605
11
3.31427
21
-4.08376
0
LINE
8
BLACK
6
CONTINUOUS
10
3.31427
20
-4.08376
11
3.31359
21
-4.08715
0
LINE
8
BLACK
6
CONTINUOUS
10
3.31359
20
-4.08715
11
3.31167
21
-4.09003
0
LINE
8
BLACK
6
CONTINUOUS
10
3.31167
20
-4.09003
11
3.3088
21
-4.09195
0
LINE
8
BLACK
6
CONTINUOUS
10
3.3088
20
-4.09195
11
3.30541
21
-4.09262
0
LINE
8
BLACK
6
CONTINUOUS
10
3.30541
20
-4.09262
11
3.28769
21
-4.09262
0
LINE
8
BLACK
6
CONTINUOUS
10
3.28769
20
-4.09262
11
3.2843
21
-4.09195
0
LINE
8
BLACK
6
CONTINUOUS
10
3.2843
20
-4.09195
11
3.28143
21
-4.09003
0
LINE
8
BLACK
6
CONTINUOUS
10
3.28143
20
-4.09003
11
3.27951
21
-4.08715
0
LINE
8
BLACK
6
CONTINUOUS
10
3.27951
20
-4.08715
11
3.27883
21
-4.08376
0
LINE
8
BLACK
6
CONTINUOUS
10
3.27883
20
-4.08376
11
3.27883
21
-4.06605
0
LINE
8
BLACK
6
CONTINUOUS
10
3.27883
20
-4.06605
11
3.27951
21
-4.06266
0
LINE
8
BLACK
6
CONTINUOUS
10
3.27951
20
-4.06266
11
3.28143
21
-4.05978
0
LINE
8
BLACK
6
CONTINUOUS
10
3.28143
20
-4.05978
11
3.2843
21
-4.05786
0
LINE
8
BLACK
6
CONTINUOUS
10
3.2843
20
-4.05786
11
3.28769
21
-4.05719
0
LINE
8
BLACK
6
CONTINUOUS
10
3.28769
20
-4.05719
11
3.30541
21
-4.05719
0
LINE
8
BLACK
6
CONTINUOUS
10
3.30541
20
-4.05719
11
3.3088
21
-4.05786
0
LINE
8
BLACK
6
CONTINUOUS
10
3.2647
20
-4.05786
11
3.26758
21
-4.05978
0
LINE
8
BLACK
6
CONTINUOUS
10
3.26758
20
-4.05978
11
3.2695
21
-4.06266
0
LINE
8
BLACK
6
CONTINUOUS
10
3.2695
20
-4.06266
11
3.27017
21
-4.06605
0
LINE
8
BLACK
6
CONTINUOUS
10
3.27017
20
-4.06605
11
3.27017
21
-4.08376
0
LINE
8
BLACK
6
CONTINUOUS
10
3.27017
20
-4.08376
11
3.2695
21
-4.08715
0
LINE
8
BLACK
6
CONTINUOUS
10
3.2695
20
-4.08715
11
3.26758
21
-4.09003
0
LINE
8
BLACK
6
CONTINUOUS
10
3.26758
20
-4.09003
11
3.2647
21
-4.09195
0
LINE
8
BLACK
6
CONTINUOUS
10
3.2647
20
-4.09195
11
3.26131
21
-4.09262
0
LINE
8
BLACK
6
CONTINUOUS
10
3.26131
20
-4.09262
11
3.2436
21
-4.09262
0
LINE
8
BLACK
6
CONTINUOUS
10
3.2436
20
-4.09262
11
3.24021
21
-4.09195
0
LINE
8
BLACK
6
CONTINUOUS
10
3.24021
20
-4.09195
11
3.23733
21
-4.09003
0
LINE
8
BLACK
6
CONTINUOUS
10
3.23733
20
-4.09003
11
3.23541
21
-4.08715
0
LINE
8
BLACK
6
CONTINUOUS
10
3.23541
20
-4.08715
11
3.23474
21
-4.08376
0
LINE
8
BLACK
6
CONTINUOUS
10
3.23474
20
-4.08376
11
3.23474
21
-4.06605
0
LINE
8
BLACK
6
CONTINUOUS
10
3.23474
20
-4.06605
11
3.23541
21
-4.06266
0
LINE
8
BLACK
6
CONTINUOUS
10
3.23541
20
-4.06266
11
3.23733
21
-4.05978
0
LINE
8
BLACK
6
CONTINUOUS
10
3.23733
20
-4.05978
11
3.24021
21
-4.05786
0
LINE
8
BLACK
6
CONTINUOUS
10
3.24021
20
-4.05786
11
3.2436
21
-4.05719
0
LINE
8
BLACK
6
CONTINUOUS
10
3.2436
20
-4.05719
11
3.26131
21
-4.05719
0
LINE
8
BLACK
6
CONTINUOUS
10
3.26131
20
-4.05719
11
3.2647
21
-4.05786
0
LINE
8
BLACK
6
CONTINUOUS
10
3.22061
20
-4.05786
11
3.22348
21
-4.05978
0
LINE
8
BLACK
6
CONTINUOUS
10
3.22348
20
-4.05978
11
3.2254
21
-4.06266
0
LINE
8
BLACK
6
CONTINUOUS
10
3.2254
20
-4.06266
11
3.22608
21
-4.06605
0
LINE
8
BLACK
6
CONTINUOUS
10
3.22608
20
-4.06605
11
3.22608
21
-4.08376
0
LINE
8
BLACK
6
CONTINUOUS
10
3.22608
20
-4.08376
11
3.2254
21
-4.08715
0
LINE
8
BLACK
6
CONTINUOUS
10
3.2254
20
-4.08715
11
3.22348
21
-4.09003
0
LINE
8
BLACK
6
CONTINUOUS
10
3.22348
20
-4.09003
11
3.22061
21
-4.09195
0
LINE
8
BLACK
6
CONTINUOUS
10
3.22061
20
-4.09195
11
3.21722
21
-4.09262
0
LINE
8
BLACK
6
CONTINUOUS
10
3.21722
20
-4.09262
11
3.1995
21
-4.09262
0
LINE
8
BLACK
6
CONTINUOUS
10
3.1995
20
-4.09262
11
3.19611
21
-4.09195
0
LINE
8
BLACK
6
CONTINUOUS
10
3.19611
20
-4.09195
11
3.19324
21
-4.09003
0
LINE
8
BLACK
6
CONTINUOUS
10
3.19324
20
-4.09003
11
3.19132
21
-4.08715
0
LINE
8
BLACK
6
CONTINUOUS
10
3.19132
20
-4.08715
11
3.19065
21
-4.08376
0
LINE
8
BLACK
6
CONTINUOUS
10
3.19065
20
-4.08376
11
3.19065
21
-4.06605
0
LINE
8
BLACK
6
CONTINUOUS
10
3.19065
20
-4.06605
11
3.19132
21
-4.06266
0
LINE
8
BLACK
6
CONTINUOUS
10
3.19132
20
-4.06266
11
3.19324
21
-4.05978
0
LINE
8
BLACK
6
CONTINUOUS
10
3.19324
20
-4.05978
11
3.19611
21
-4.05786
0
LINE
8
BLACK
6
CONTINUOUS
10
3.19611
20
-4.05786
11
3.1995
21
-4.05719
0
LINE
8
BLACK
6
CONTINUOUS
10
3.1995
20
-4.05719
11
3.21722
21
-4.05719
0
LINE
8
BLACK
6
CONTINUOUS
10
3.21722
20
-4.05719
11
3.22061
21
-4.05786
0
LINE
8
BLACK
6
CONTINUOUS
10
3.36314
20
-4.0749
11
3.36394
21
-4.07543
0
LINE
8
BLACK
6
CONTINUOUS
10
3.36394
20
-4.07543
11
3.36447
21
-4.07623
0
LINE
8
BLACK
6
CONTINUOUS
10
3.36447
20
-4.07623
11
3.36466
21
-4.07717
0
LINE
8
BLACK
6
CONTINUOUS
10
3.36466
20
-4.07717
11
3.36466
21
-4.08209
0
LINE
8
BLACK
6
CONTINUOUS
10
3.36466
20
-4.08209
11
3.36447
21
-4.08303
0
LINE
8
BLACK
6
CONTINUOUS
10
3.36447
20
-4.08303
11
3.36394
21
-4.08383
0
LINE
8
BLACK
6
CONTINUOUS
10
3.36394
20
-4.08383
11
3.36314
21
-4.08436
0
LINE
8
BLACK
6
CONTINUOUS
10
3.36314
20
-4.08436
11
3.3622
21
-4.08455
0
LINE
8
BLACK
6
CONTINUOUS
10
3.3622
20
-4.08455
11
3.33563
21
-4.08455
0
LINE
8
BLACK
6
CONTINUOUS
10
3.33563
20
-4.08455
11
3.33468
21
-4.08436
0
LINE
8
BLACK
6
CONTINUOUS
10
3.33468
20
-4.08436
11
3.33389
21
-4.08383
0
LINE
8
BLACK
6
CONTINUOUS
10
3.33389
20
-4.08383
11
3.33335
21
-4.08303
0
LINE
8
BLACK
6
CONTINUOUS
10
3.33335
20
-4.08303
11
3.33317
21
-4.08209
0
LINE
8
BLACK
6
CONTINUOUS
10
3.33317
20
-4.08209
11
3.33317
21
-4.07717
0
LINE
8
BLACK
6
CONTINUOUS
10
3.33317
20
-4.07717
11
3.33335
21
-4.07623
0
LINE
8
BLACK
6
CONTINUOUS
10
3.33335
20
-4.07623
11
3.33389
21
-4.07543
0
LINE
8
BLACK
6
CONTINUOUS
10
3.33389
20
-4.07543
11
3.33468
21
-4.0749
0
LINE
8
BLACK
6
CONTINUOUS
10
3.33468
20
-4.0749
11
3.33563
21
-4.07471
0
LINE
8
BLACK
6
CONTINUOUS
10
3.33563
20
-4.07471
11
3.3622
21
-4.07471
0
LINE
8
BLACK
6
CONTINUOUS
10
3.3622
20
-4.07471
11
3.36314
21
-4.0749
0
LINE
8
BLACK
6
CONTINUOUS
10
3.17023
20
-4.0749
11
3.17103
21
-4.07543
0
LINE
8
BLACK
6
CONTINUOUS
10
3.17103
20
-4.07543
11
3.17156
21
-4.07623
0
LINE
8
BLACK
6
CONTINUOUS
10
3.17156
20
-4.07623
11
3.17175
21
-4.07717
0
LINE
8
BLACK
6
CONTINUOUS
10
3.17175
20
-4.07717
11
3.17175
21
-4.08209
0
LINE
8
BLACK
6
CONTINUOUS
10
3.17175
20
-4.08209
11
3.17156
21
-4.08303
0
LINE
8
BLACK
6
CONTINUOUS
10
3.17156
20
-4.08303
11
3.17103
21
-4.08383
0
LINE
8
BLACK
6
CONTINUOUS
10
3.17103
20
-4.08383
11
3.17023
21
-4.08436
0
LINE
8
BLACK
6
CONTINUOUS
10
3.17023
20
-4.08436
11
3.16929
21
-4.08455
0
LINE
8
BLACK
6
CONTINUOUS
10
3.16929
20
-4.08455
11
3.14271
21
-4.08455
0
LINE
8
BLACK
6
CONTINUOUS
10
3.14271
20
-4.08455
11
3.14177
21
-4.08436
0
LINE
8
BLACK
6
CONTINUOUS
10
3.14177
20
-4.08436
11
3.14097
21
-4.08383
0
LINE
8
BLACK
6
CONTINUOUS
10
3.14097
20
-4.08383
11
3.14044
21
-4.08303
0
LINE
8
BLACK
6
CONTINUOUS
10
3.14044
20
-4.08303
11
3.14025
21
-4.08209
0
LINE
8
BLACK
6
CONTINUOUS
10
3.14025
20
-4.08209
11
3.14025
21
-4.07717
0
LINE
8
BLACK
6
CONTINUOUS
10
3.14025
20
-4.07717
11
3.14044
21
-4.07623
0
LINE
8
BLACK
6
CONTINUOUS
10
3.14044
20
-4.07623
11
3.14097
21
-4.07543
0
LINE
8
BLACK
6
CONTINUOUS
10
3.14097
20
-4.07543
11
3.14177
21
-4.0749
0
LINE
8
BLACK
6
CONTINUOUS
10
3.14177
20
-4.0749
11
3.14271
21
-4.07471
0
LINE
8
BLACK
6
CONTINUOUS
10
3.14271
20
-4.07471
11
3.16929
21
-4.07471
0
LINE
8
BLACK
6
CONTINUOUS
10
3.16929
20
-4.07471
11
3.17023
21
-4.0749
0
LINE
8
BLACK
6
CONTINUOUS
10
3.36314
20
-4.05521
11
3.36394
21
-4.05574
0
LINE
8
BLACK
6
CONTINUOUS
10
3.36394
20
-4.05574
11
3.36447
21
-4.05654
0
LINE
8
BLACK
6
CONTINUOUS
10
3.36447
20
-4.05654
11
3.36466
21
-4.05748
0
LINE
8
BLACK
6
CONTINUOUS
10
3.36466
20
-4.05748
11
3.36466
21
-4.06241
0
LINE
8
BLACK
6
CONTINUOUS
10
3.36466
20
-4.06241
11
3.36447
21
-4.06335
0
LINE
8
BLACK
6
CONTINUOUS
10
3.36447
20
-4.06335
11
3.36394
21
-4.06415
0
LINE
8
BLACK
6
CONTINUOUS
10
3.36394
20
-4.06415
11
3.36314
21
-4.06468
0
LINE
8
BLACK
6
CONTINUOUS
10
3.36314
20
-4.06468
11
3.3622
21
-4.06487
0
LINE
8
BLACK
6
CONTINUOUS
10
3.3622
20
-4.06487
11
3.33563
21
-4.06487
0
LINE
8
BLACK
6
CONTINUOUS
10
3.33563
20
-4.06487
11
3.33468
21
-4.06468
0
LINE
8
BLACK
6
CONTINUOUS
10
3.33468
20
-4.06468
11
3.33389
21
-4.06415
0
LINE
8
BLACK
6
CONTINUOUS
10
3.33389
20
-4.06415
11
3.33335
21
-4.06335
0
LINE
8
BLACK
6
CONTINUOUS
10
3.33335
20
-4.06335
11
3.33317
21
-4.06241
0
LINE
8
BLACK
6
CONTINUOUS
10
3.33317
20
-4.06241
11
3.33317
21
-4.05748
0
LINE
8
BLACK
6
CONTINUOUS
10
3.33317
20
-4.05748
11
3.33335
21
-4.05654
0
LINE
8
BLACK
6
CONTINUOUS
10
3.33335
20
-4.05654
11
3.33389
21
-4.05574
0
LINE
8
BLACK
6
CONTINUOUS
10
3.33389
20
-4.05574
11
3.33468
21
-4.05521
0
LINE
8
BLACK
6
CONTINUOUS
10
3.33468
20
-4.05521
11
3.33563
21
-4.05502
0
LINE
8
BLACK
6
CONTINUOUS
10
3.33563
20
-4.05502
11
3.3622
21
-4.05502
0
LINE
8
BLACK
6
CONTINUOUS
10
3.3622
20
-4.05502
11
3.36314
21
-4.05521
0
LINE
8
BLACK
6
CONTINUOUS
10
3.17023
20
-4.05521
11
3.17103
21
-4.05574
0
LINE
8
BLACK
6
CONTINUOUS
10
3.17103
20
-4.05574
11
3.17156
21
-4.05654
0
LINE
8
BLACK
6
CONTINUOUS
10
3.17156
20
-4.05654
11
3.17175
21
-4.05748
0
LINE
8
BLACK
6
CONTINUOUS
10
3.17175
20
-4.05748
11
3.17175
21
-4.06241
0
LINE
8
BLACK
6
CONTINUOUS
10
3.17175
20
-4.06241
11
3.17156
21
-4.06335
0
LINE
8
BLACK
6
CONTINUOUS
10
3.17156
20
-4.06335
11
3.17103
21
-4.06415
0
LINE
8
BLACK
6
CONTINUOUS
10
3.17103
20
-4.06415
11
3.17023
21
-4.06468
0
LINE
8
BLACK
6
CONTINUOUS
10
3.17023
20
-4.06468
11
3.16929
21
-4.06487
0
LINE
8
BLACK
6
CONTINUOUS
10
3.16929
20
-4.06487
11
3.14271
21
-4.06487
0
LINE
8
BLACK
6
CONTINUOUS
10
3.14271
20
-4.06487
11
3.14177
21
-4.06468
0
LINE
8
BLACK
6
CONTINUOUS
10
3.14177
20
-4.06468
11
3.14097
21
-4.06415
0
LINE
8
BLACK
6
CONTINUOUS
10
3.14097
20
-4.06415
11
3.14044
21
-4.06335
0
LINE
8
BLACK
6
CONTINUOUS
10
3.14044
20
-4.06335
11
3.14025
21
-4.06241
0
LINE
8
BLACK
6
CONTINUOUS
10
3.14025
20
-4.06241
11
3.14025
21
-4.05748
0
LINE
8
BLACK
6
CONTINUOUS
10
3.14025
20
-4.05748
11
3.14044
21
-4.05654
0
LINE
8
BLACK
6
CONTINUOUS
10
3.14044
20
-4.05654
11
3.14097
21
-4.05574
0
LINE
8
BLACK
6
CONTINUOUS
10
3.14097
20
-4.05574
11
3.14177
21
-4.05521
0
LINE
8
BLACK
6
CONTINUOUS
10
3.14177
20
-4.05521
11
3.14271
21
-4.05502
0
LINE
8
BLACK
6
CONTINUOUS
10
3.14271
20
-4.05502
11
3.16929
21
-4.05502
0
LINE
8
BLACK
6
CONTINUOUS
10
3.16929
20
-4.05502
11
3.17023
21
-4.05521
0
LINE
8
BLACK
6
CONTINUOUS
10
3.65535
20
-4.01701
11
3.65838
21
-4.01904
0
LINE
8
BLACK
6
CONTINUOUS
10
3.65838
20
-4.01904
11
3.66041
21
-4.02207
0
LINE
8
BLACK
6
CONTINUOUS
10
3.66041
20
-4.02207
11
3.66112
21
-4.02565
0
LINE
8
BLACK
6
CONTINUOUS
10
3.66112
20
-4.02565
11
3.66112
21
-4.04435
0
LINE
8
BLACK
6
CONTINUOUS
10
3.66112
20
-4.04435
11
3.66041
21
-4.04793
0
LINE
8
BLACK
6
CONTINUOUS
10
3.66041
20
-4.04793
11
3.65838
21
-4.05096
0
LINE
8
BLACK
6
CONTINUOUS
10
3.65838
20
-4.05096
11
3.65535
21
-4.05299
0
LINE
8
BLACK
6
CONTINUOUS
10
3.65535
20
-4.05299
11
3.65177
21
-4.0537
0
LINE
8
BLACK
6
CONTINUOUS
10
3.65177
20
-4.0537
11
3.63208
21
-4.0537
0
LINE
8
BLACK
6
CONTINUOUS
10
3.63208
20
-4.0537
11
3.6285
21
-4.05299
0
LINE
8
BLACK
6
CONTINUOUS
10
3.6285
20
-4.05299
11
3.62547
21
-4.05096
0
LINE
8
BLACK
6
CONTINUOUS
10
3.62547
20
-4.05096
11
3.62344
21
-4.04793
0
LINE
8
BLACK
6
CONTINUOUS
10
3.62344
20
-4.04793
11
3.62273
21
-4.04435
0
LINE
8
BLACK
6
CONTINUOUS
10
3.62273
20
-4.04435
11
3.62273
21
-4.02565
0
LINE
8
BLACK
6
CONTINUOUS
10
3.62273
20
-4.02565
11
3.62344
21
-4.02207
0
LINE
8
BLACK
6
CONTINUOUS
10
3.62344
20
-4.02207
11
3.62547
21
-4.01904
0
LINE
8
BLACK
6
CONTINUOUS
10
3.62547
20
-4.01904
11
3.6285
21
-4.01701
0
LINE
8
BLACK
6
CONTINUOUS
10
3.6285
20
-4.01701
11
3.63208
21
-4.0163
0
LINE
8
BLACK
6
CONTINUOUS
10
3.63208
20
-4.0163
11
3.65177
21
-4.0163
0
LINE
8
BLACK
6
CONTINUOUS
10
3.65177
20
-4.0163
11
3.65535
21
-4.01701
0
LINE
8
BLACK
6
CONTINUOUS
10
3.5835
20
-4.01701
11
3.58653
21
-4.01904
0
LINE
8
BLACK
6
CONTINUOUS
10
3.58653
20
-4.01904
11
3.58856
21
-4.02207
0
LINE
8
BLACK
6
CONTINUOUS
10
3.58856
20
-4.02207
11
3.58927
21
-4.02565
0
LINE
8
BLACK
6
CONTINUOUS
10
3.58927
20
-4.02565
11
3.58927
21
-4.04435
0
LINE
8
BLACK
6
CONTINUOUS
10
3.58927
20
-4.04435
11
3.58856
21
-4.04793
0
LINE
8
BLACK
6
CONTINUOUS
10
3.58856
20
-4.04793
11
3.58653
21
-4.05096
0
LINE
8
BLACK
6
CONTINUOUS
10
3.58653
20
-4.05096
11
3.5835
21
-4.05299
0
LINE
8
BLACK
6
CONTINUOUS
10
3.5835
20
-4.05299
11
3.57992
21
-4.0537
0
LINE
8
BLACK
6
CONTINUOUS
10
3.57992
20
-4.0537
11
3.56023
21
-4.0537
0
LINE
8
BLACK
6
CONTINUOUS
10
3.56023
20
-4.0537
11
3.55665
21
-4.05299
0
LINE
8
BLACK
6
CONTINUOUS
10
3.55665
20
-4.05299
11
3.55362
21
-4.05096
0
LINE
8
BLACK
6
CONTINUOUS
10
3.55362
20
-4.05096
11
3.55159
21
-4.04793
0
LINE
8
BLACK
6
CONTINUOUS
10
3.55159
20
-4.04793
11
3.55088
21
-4.04435
0
LINE
8
BLACK
6
CONTINUOUS
10
3.55088
20
-4.04435
11
3.55088
21
-4.02565
0
LINE
8
BLACK
6
CONTINUOUS
10
3.55088
20
-4.02565
11
3.55159
21
-4.02207
0
LINE
8
BLACK
6
CONTINUOUS
10
3.55159
20
-4.02207
11
3.55362
21
-4.01904
0
LINE
8
BLACK
6
CONTINUOUS
10
3.55362
20
-4.01904
11
3.55665
21
-4.01701
0
LINE
8
BLACK
6
CONTINUOUS
10
3.55665
20
-4.01701
11
3.56023
21
-4.0163
0
LINE
8
BLACK
6
CONTINUOUS
10
3.56023
20
-4.0163
11
3.57992
21
-4.0163
0
LINE
8
BLACK
6
CONTINUOUS
10
3.57992
20
-4.0163
11
3.5835
21
-4.01701
0
LINE
8
BLACK
6
CONTINUOUS
10
4.49586
20
-4.0502
11
4.43444
21
-4.0502
0
LINE
8
BLACK
6
CONTINUOUS
10
4.43444
20
-4.0502
11
4.43444
21
-4.02461
0
LINE
8
BLACK
6
CONTINUOUS
10
4.43444
20
-4.02461
11
4.49586
21
-4.02461
0
LINE
8
BLACK
6
CONTINUOUS
10
4.49586
20
-4.02461
11
4.49586
21
-4.0502
0
LINE
8
BLACK
6
CONTINUOUS
10
4.38956
20
-4.0502
11
4.32814
21
-4.0502
0
LINE
8
BLACK
6
CONTINUOUS
10
4.32814
20
-4.0502
11
4.32814
21
-4.02461
0
LINE
8
BLACK
6
CONTINUOUS
10
4.32814
20
-4.02461
11
4.38956
21
-4.02461
0
LINE
8
BLACK
6
CONTINUOUS
10
4.38956
20
-4.02461
11
4.38956
21
-4.0502
0
LINE
8
BLACK
6
CONTINUOUS
10
3.31491
20
-4.00698
11
3.31571
21
-4.00752
0
LINE
8
BLACK
6
CONTINUOUS
10
3.31571
20
-4.00752
11
3.31625
21
-4.00831
0
LINE
8
BLACK
6
CONTINUOUS
10
3.31625
20
-4.00831
11
3.31643
21
-4.00926
0
LINE
8
BLACK
6
CONTINUOUS
10
3.31643
20
-4.00926
11
3.31643
21
-4.03583
0
LINE
8
BLACK
6
CONTINUOUS
10
3.31643
20
-4.03583
11
3.31625
21
-4.03677
0
LINE
8
BLACK
6
CONTINUOUS
10
3.31625
20
-4.03677
11
3.31571
21
-4.03757
0
LINE
8
BLACK
6
CONTINUOUS
10
3.31571
20
-4.03757
11
3.31491
21
-4.0381
0
LINE
8
BLACK
6
CONTINUOUS
10
3.31491
20
-4.0381
11
3.31397
21
-4.03829
0
LINE
8
BLACK
6
CONTINUOUS
10
3.31397
20
-4.03829
11
3.30905
21
-4.03829
0
LINE
8
BLACK
6
CONTINUOUS
10
3.30905
20
-4.03829
11
3.30811
21
-4.0381
0
LINE
8
BLACK
6
CONTINUOUS
10
3.30811
20
-4.0381
11
3.30731
21
-4.03757
0
LINE
8
BLACK
6
CONTINUOUS
10
3.30731
20
-4.03757
11
3.30678
21
-4.03677
0
LINE
8
BLACK
6
CONTINUOUS
10
3.30678
20
-4.03677
11
3.30659
21
-4.03583
0
LINE
8
BLACK
6
CONTINUOUS
10
3.30659
20
-4.03583
11
3.30659
21
-4.00926
0
LINE
8
BLACK
6
CONTINUOUS
10
3.30659
20
-4.00926
11
3.30678
21
-4.00831
0
LINE
8
BLACK
6
CONTINUOUS
10
3.30678
20
-4.00831
11
3.30731
21
-4.00752
0
LINE
8
BLACK
6
CONTINUOUS
10
3.30731
20
-4.00752
11
3.30811
21
-4.00698
0
LINE
8
BLACK
6
CONTINUOUS
10
3.30811
20
-4.00698
11
3.30905
21
-4.0068
0
LINE
8
BLACK
6
CONTINUOUS
10
3.30905
20
-4.0068
11
3.31397
21
-4.0068
0
LINE
8
BLACK
6
CONTINUOUS
10
3.31397
20
-4.0068
11
3.31491
21
-4.00698
0
LINE
8
BLACK
6
CONTINUOUS
10
3.27554
20
-4.00698
11
3.27634
21
-4.00752
0
LINE
8
BLACK
6
CONTINUOUS
10
3.27634
20
-4.00752
11
3.27688
21
-4.00831
0
LINE
8
BLACK
6
CONTINUOUS
10
3.27688
20
-4.00831
11
3.27706
21
-4.00926
0
LINE
8
BLACK
6
CONTINUOUS
10
3.27706
20
-4.00926
11
3.27706
21
-4.03583
0
LINE
8
BLACK
6
CONTINUOUS
10
3.27706
20
-4.03583
11
3.27688
21
-4.03677
0
LINE
8
BLACK
6
CONTINUOUS
10
3.27688
20
-4.03677
11
3.27634
21
-4.03757
0
LINE
8
BLACK
6
CONTINUOUS
10
3.27634
20
-4.03757
11
3.27554
21
-4.0381
0
LINE
8
BLACK
6
CONTINUOUS
10
3.27554
20
-4.0381
11
3.2746
21
-4.03829
0
LINE
8
BLACK
6
CONTINUOUS
10
3.2746
20
-4.03829
11
3.26968
21
-4.03829
0
LINE
8
BLACK
6
CONTINUOUS
10
3.26968
20
-4.03829
11
3.26874
21
-4.0381
0
LINE
8
BLACK
6
CONTINUOUS
10
3.26874
20
-4.0381
11
3.26794
21
-4.03757
0
LINE
8
BLACK
6
CONTINUOUS
10
3.26794
20
-4.03757
11
3.26741
21
-4.03677
0
LINE
8
BLACK
6
CONTINUOUS
10
3.26741
20
-4.03677
11
3.26722
21
-4.03583
0
LINE
8
BLACK
6
CONTINUOUS
10
3.26722
20
-4.03583
11
3.26722
21
-4.00926
0
LINE
8
BLACK
6
CONTINUOUS
10
3.26722
20
-4.00926
11
3.26741
21
-4.00831
0
LINE
8
BLACK
6
CONTINUOUS
10
3.26741
20
-4.00831
11
3.26794
21
-4.00752
0
LINE
8
BLACK
6
CONTINUOUS
10
3.26794
20
-4.00752
11
3.26874
21
-4.00698
0
LINE
8
BLACK
6
CONTINUOUS
10
3.26874
20
-4.00698
11
3.26968
21
-4.0068
0
LINE
8
BLACK
6
CONTINUOUS
10
3.26968
20
-4.0068
11
3.2746
21
-4.0068
0
LINE
8
BLACK
6
CONTINUOUS
10
3.2746
20
-4.0068
11
3.27554
21
-4.00698
0
LINE
8
BLACK
6
CONTINUOUS
10
3.25586
20
-4.00698
11
3.25666
21
-4.00752
0
LINE
8
BLACK
6
CONTINUOUS
10
3.25666
20
-4.00752
11
3.25719
21
-4.00831
0
LINE
8
BLACK
6
CONTINUOUS
10
3.25719
20
-4.00831
11
3.25738
21
-4.00926
0
LINE
8
BLACK
6
CONTINUOUS
10
3.25738
20
-4.00926
11
3.25738
21
-4.03583
0
LINE
8
BLACK
6
CONTINUOUS
10
3.25738
20
-4.03583
11
3.25719
21
-4.03677
0
LINE
8
BLACK
6
CONTINUOUS
10
3.25719
20
-4.03677
11
3.25666
21
-4.03757
0
LINE
8
BLACK
6
CONTINUOUS
10
3.25666
20
-4.03757
11
3.25586
21
-4.0381
0
LINE
8
BLACK
6
CONTINUOUS
10
3.25586
20
-4.0381
11
3.25492
21
-4.03829
0
LINE
8
BLACK
6
CONTINUOUS
10
3.25492
20
-4.03829
11
3.25
21
-4.03829
0
LINE
8
BLACK
6
CONTINUOUS
10
3.25
20
-4.03829
11
3.24905
21
-4.0381
0
LINE
8
BLACK
6
CONTINUOUS
10
3.24905
20
-4.0381
11
3.24826
21
-4.03757
0
LINE
8
BLACK
6
CONTINUOUS
10
3.24826
20
-4.03757
11
3.24772
21
-4.03677
0
LINE
8
BLACK
6
CONTINUOUS
10
3.24772
20
-4.03677
11
3.24754
21
-4.03583
0
LINE
8
BLACK
6
CONTINUOUS
10
3.24754
20
-4.03583
11
3.24754
21
-4.00926
0
LINE
8
BLACK
6
CONTINUOUS
10
3.24754
20
-4.00926
11
3.24772
21
-4.00831
0
LINE
8
BLACK
6
CONTINUOUS
10
3.24772
20
-4.00831
11
3.24826
21
-4.00752
0
LINE
8
BLACK
6
CONTINUOUS
10
3.24826
20
-4.00752
11
3.24905
21
-4.00698
0
LINE
8
BLACK
6
CONTINUOUS
10
3.24905
20
-4.00698
11
3.25
21
-4.0068
0
LINE
8
BLACK
6
CONTINUOUS
10
3.25
20
-4.0068
11
3.25492
21
-4.0068
0
LINE
8
BLACK
6
CONTINUOUS
10
3.25492
20
-4.0068
11
3.25586
21
-4.00698
0
LINE
8
BLACK
6
CONTINUOUS
10
3.23617
20
-4.00698
11
3.23697
21
-4.00752
0
LINE
8
BLACK
6
CONTINUOUS
10
3.23697
20
-4.00752
11
3.23751
21
-4.00831
0
LINE
8
BLACK
6
CONTINUOUS
10
3.23751
20
-4.00831
11
3.23769
21
-4.00926
0
LINE
8
BLACK
6
CONTINUOUS
10
3.23769
20
-4.00926
11
3.23769
21
-4.03583
0
LINE
8
BLACK
6
CONTINUOUS
10
3.23769
20
-4.03583
11
3.23751
21
-4.03677
0
LINE
8
BLACK
6
CONTINUOUS
10
3.23751
20
-4.03677
11
3.23697
21
-4.03757
0
LINE
8
BLACK
6
CONTINUOUS
10
3.23697
20
-4.03757
11
3.23617
21
-4.0381
0
LINE
8
BLACK
6
CONTINUOUS
10
3.23617
20
-4.0381
11
3.23523
21
-4.03829
0
LINE
8
BLACK
6
CONTINUOUS
10
3.23523
20
-4.03829
11
3.23031
21
-4.03829
0
LINE
8
BLACK
6
CONTINUOUS
10
3.23031
20
-4.03829
11
3.22937
21
-4.0381
0
LINE
8
BLACK
6
CONTINUOUS
10
3.22937
20
-4.0381
11
3.22857
21
-4.03757
0
LINE
8
BLACK
6
CONTINUOUS
10
3.22857
20
-4.03757
11
3.22804
21
-4.03677
0
LINE
8
BLACK
6
CONTINUOUS
10
3.22804
20
-4.03677
11
3.22785
21
-4.03583
0
LINE
8
BLACK
6
CONTINUOUS
10
3.22785
20
-4.03583
11
3.22785
21
-4.00926
0
LINE
8
BLACK
6
CONTINUOUS
10
3.22785
20
-4.00926
11
3.22804
21
-4.00831
0
LINE
8
BLACK
6
CONTINUOUS
10
3.22804
20
-4.00831
11
3.22857
21
-4.00752
0
LINE
8
BLACK
6
CONTINUOUS
10
3.22857
20
-4.00752
11
3.22937
21
-4.00698
0
LINE
8
BLACK
6
CONTINUOUS
10
3.22937
20
-4.00698
11
3.23031
21
-4.0068
0
LINE
8
BLACK
6
CONTINUOUS
10
3.23031
20
-4.0068
11
3.23523
21
-4.0068
0
LINE
8
BLACK
6
CONTINUOUS
10
3.23523
20
-4.0068
11
3.23617
21
-4.00698
0
LINE
8
BLACK
6
CONTINUOUS
10
3.21649
20
-4.00698
11
3.21729
21
-4.00752
0
LINE
8
BLACK
6
CONTINUOUS
10
3.21729
20
-4.00752
11
3.21782
21
-4.00831
0
LINE
8
BLACK
6
CONTINUOUS
10
3.21782
20
-4.00831
11
3.21801
21
-4.00926
0
LINE
8
BLACK
6
CONTINUOUS
10
3.21801
20
-4.00926
11
3.21801
21
-4.03583
0
LINE
8
BLACK
6
CONTINUOUS
10
3.21801
20
-4.03583
11
3.21782
21
-4.03677
0
LINE
8
BLACK
6
CONTINUOUS
10
3.21782
20
-4.03677
11
3.21729
21
-4.03757
0
LINE
8
BLACK
6
CONTINUOUS
10
3.21729
20
-4.03757
11
3.21649
21
-4.0381
0
LINE
8
BLACK
6
CONTINUOUS
10
3.21649
20
-4.0381
11
3.21555
21
-4.03829
0
LINE
8
BLACK
6
CONTINUOUS
10
3.21555
20
-4.03829
11
3.21063
21
-4.03829
0
LINE
8
BLACK
6
CONTINUOUS
10
3.21063
20
-4.03829
11
3.20968
21
-4.0381
0
LINE
8
BLACK
6
CONTINUOUS
10
3.20968
20
-4.0381
11
3.20889
21
-4.03757
0
LINE
8
BLACK
6
CONTINUOUS
10
3.20889
20
-4.03757
11
3.20835
21
-4.03677
0
LINE
8
BLACK
6
CONTINUOUS
10
3.20835
20
-4.03677
11
3.20817
21
-4.03583
0
LINE
8
BLACK
6
CONTINUOUS
10
3.20817
20
-4.03583
11
3.20817
21
-4.00926
0
LINE
8
BLACK
6
CONTINUOUS
10
3.20817
20
-4.00926
11
3.20835
21
-4.00831
0
LINE
8
BLACK
6
CONTINUOUS
10
3.20835
20
-4.00831
11
3.20889
21
-4.00752
0
LINE
8
BLACK
6
CONTINUOUS
10
3.20889
20
-4.00752
11
3.20968
21
-4.00698
0
LINE
8
BLACK
6
CONTINUOUS
10
3.20968
20
-4.00698
11
3.21063
21
-4.0068
0
LINE
8
BLACK
6
CONTINUOUS
10
3.21063
20
-4.0068
11
3.21555
21
-4.0068
0
LINE
8
BLACK
6
CONTINUOUS
10
3.21555
20
-4.0068
11
3.21649
21
-4.00698
0
LINE
8
BLACK
6
CONTINUOUS
10
3.1968
20
-4.00698
11
3.1976
21
-4.00752
0
LINE
8
BLACK
6
CONTINUOUS
10
3.1976
20
-4.00752
11
3.19814
21
-4.00831
0
LINE
8
BLACK
6
CONTINUOUS
10
3.19814
20
-4.00831
11
3.19832
21
-4.00926
0
LINE
8
BLACK
6
CONTINUOUS
10
3.19832
20
-4.00926
11
3.19832
21
-4.03583
0
LINE
8
BLACK
6
CONTINUOUS
10
3.19832
20
-4.03583
11
3.19814
21
-4.03677
0
LINE
8
BLACK
6
CONTINUOUS
10
3.19814
20
-4.03677
11
3.1976
21
-4.03757
0
LINE
8
BLACK
6
CONTINUOUS
10
3.1976
20
-4.03757
11
3.1968
21
-4.0381
0
LINE
8
BLACK
6
CONTINUOUS
10
3.1968
20
-4.0381
11
3.19586
21
-4.03829
0
LINE
8
BLACK
6
CONTINUOUS
10
3.19586
20
-4.03829
11
3.19094
21
-4.03829
0
LINE
8
BLACK
6
CONTINUOUS
10
3.19094
20
-4.03829
11
3.19
21
-4.0381
0
LINE
8
BLACK
6
CONTINUOUS
10
3.19
20
-4.0381
11
3.1892
21
-4.03757
0
LINE
8
BLACK
6
CONTINUOUS
10
3.1892
20
-4.03757
11
3.18867
21
-4.03677
0
LINE
8
BLACK
6
CONTINUOUS
10
3.18867
20
-4.03677
11
3.18848
21
-4.03583
0
LINE
8
BLACK
6
CONTINUOUS
10
3.18848
20
-4.03583
11
3.18848
21
-4.00926
0
LINE
8
BLACK
6
CONTINUOUS
10
3.18848
20
-4.00926
11
3.18867
21
-4.00831
0
LINE
8
BLACK
6
CONTINUOUS
10
3.18867
20
-4.00831
11
3.1892
21
-4.00752
0
LINE
8
BLACK
6
CONTINUOUS
10
3.1892
20
-4.00752
11
3.19
21
-4.00698
0
LINE
8
BLACK
6
CONTINUOUS
10
3.19
20
-4.00698
11
3.19094
21
-4.0068
0
LINE
8
BLACK
6
CONTINUOUS
10
3.19094
20
-4.0068
11
3.19586
21
-4.0068
0
LINE
8
BLACK
6
CONTINUOUS
10
3.19586
20
-4.0068
11
3.1968
21
-4.00698
0
LINE
8
BLACK
6
CONTINUOUS
10
3.29523
20
-4.00698
11
3.29603
21
-4.00752
0
LINE
8
BLACK
6
CONTINUOUS
10
3.29603
20
-4.00752
11
3.29656
21
-4.00831
0
LINE
8
BLACK
6
CONTINUOUS
10
3.29656
20
-4.00831
11
3.29675
21
-4.00926
0
LINE
8
BLACK
6
CONTINUOUS
10
3.29675
20
-4.00926
11
3.29675
21
-4.03583
0
LINE
8
BLACK
6
CONTINUOUS
10
3.29675
20
-4.03583
11
3.29656
21
-4.03677
0
LINE
8
BLACK
6
CONTINUOUS
10
3.29656
20
-4.03677
11
3.29603
21
-4.03757
0
LINE
8
BLACK
6
CONTINUOUS
10
3.29603
20
-4.03757
11
3.29523
21
-4.0381
0
LINE
8
BLACK
6
CONTINUOUS
10
3.29523
20
-4.0381
11
3.29429
21
-4.03829
0
LINE
8
BLACK
6
CONTINUOUS
10
3.29429
20
-4.03829
11
3.28937
21
-4.03829
0
LINE
8
BLACK
6
CONTINUOUS
10
3.28937
20
-4.03829
11
3.28842
21
-4.0381
0
LINE
8
BLACK
6
CONTINUOUS
10
3.28842
20
-4.0381
11
3.28763
21
-4.03757
0
LINE
8
BLACK
6
CONTINUOUS
10
3.28763
20
-4.03757
11
3.28709
21
-4.03677
0
LINE
8
BLACK
6
CONTINUOUS
10
3.28709
20
-4.03677
11
3.28691
21
-4.03583
0
LINE
8
BLACK
6
CONTINUOUS
10
3.28691
20
-4.03583
11
3.28691
21
-4.00926
0
LINE
8
BLACK
6
CONTINUOUS
10
3.28691
20
-4.00926
11
3.28709
21
-4.00831
0
LINE
8
BLACK
6
CONTINUOUS
10
3.28709
20
-4.00831
11
3.28763
21
-4.00752
0
LINE
8
BLACK
6
CONTINUOUS
10
3.28763
20
-4.00752
11
3.28842
21
-4.00698
0
LINE
8
BLACK
6
CONTINUOUS
10
3.28842
20
-4.00698
11
3.28937
21
-4.0068
0
LINE
8
BLACK
6
CONTINUOUS
10
3.28937
20
-4.0068
11
3.29429
21
-4.0068
0
LINE
8
BLACK
6
CONTINUOUS
10
3.29429
20
-4.0068
11
3.29523
21
-4.00698
0
LINE
8
BLACK
6
CONTINUOUS
10
2.81757
20
-4.02825
11
2.73883
21
-4.02825
0
LINE
8
BLACK
6
CONTINUOUS
10
2.73883
20
-4.02825
11
2.73883
21
-3.92983
0
LINE
8
BLACK
6
CONTINUOUS
10
2.73883
20
-3.92983
11
2.81757
21
-3.92983
0
LINE
8
BLACK
6
CONTINUOUS
10
2.81757
20
-3.92983
11
2.81757
21
-4.02825
0
LINE
8
BLACK
6
CONTINUOUS
10
2.46717
20
-4.02825
11
2.38843
21
-4.02825
0
LINE
8
BLACK
6
CONTINUOUS
10
2.38843
20
-4.02825
11
2.38843
21
-3.92983
0
LINE
8
BLACK
6
CONTINUOUS
10
2.38843
20
-3.92983
11
2.46717
21
-3.92983
0
LINE
8
BLACK
6
CONTINUOUS
10
2.46717
20
-3.92983
11
2.46717
21
-4.02825
0
LINE
8
BLACK
6
CONTINUOUS
10
4.38956
20
-4.0128
11
4.32814
21
-4.0128
0
LINE
8
BLACK
6
CONTINUOUS
10
4.32814
20
-4.0128
11
4.32814
21
-3.9872
0
LINE
8
BLACK
6
CONTINUOUS
10
4.32814
20
-3.9872
11
4.38956
21
-3.9872
0
LINE
8
BLACK
6
CONTINUOUS
10
4.38956
20
-3.9872
11
4.38956
21
-4.0128
0
LINE
8
BLACK
6
CONTINUOUS
10
4.49586
20
-4.0128
11
4.43444
21
-4.0128
0
LINE
8
BLACK
6
CONTINUOUS
10
4.43444
20
-4.0128
11
4.43444
21
-3.9872
0
LINE
8
BLACK
6
CONTINUOUS
10
4.43444
20
-3.9872
11
4.49586
21
-3.9872
0
LINE
8
BLACK
6
CONTINUOUS
10
4.49586
20
-3.9872
11
4.49586
21
-4.0128
0
LINE
8
BLACK
6
CONTINUOUS
10
4.49586
20
-3.97539
11
4.43444
21
-3.97539
0
LINE
8
BLACK
6
CONTINUOUS
10
4.43444
20
-3.97539
11
4.43444
21
-3.9498
0
LINE
8
BLACK
6
CONTINUOUS
10
4.43444
20
-3.9498
11
4.49586
21
-3.9498
0
LINE
8
BLACK
6
CONTINUOUS
10
4.49586
20
-3.9498
11
4.49586
21
-3.97539
0
LINE
8
BLACK
6
CONTINUOUS
10
4.38956
20
-3.97539
11
4.32814
21
-3.97539
0
LINE
8
BLACK
6
CONTINUOUS
10
4.32814
20
-3.97539
11
4.32814
21
-3.9498
0
LINE
8
BLACK
6
CONTINUOUS
10
4.32814
20
-3.9498
11
4.38956
21
-3.9498
0
LINE
8
BLACK
6
CONTINUOUS
10
4.38956
20
-3.9498
11
4.38956
21
-3.97539
0
LINE
8
BLACK
6
CONTINUOUS
10
4.72479
20
-3.79111
11
4.72492
21
-3.79109
0
LINE
8
BLACK
6
CONTINUOUS
10
4.72492
20
-3.79109
11
4.72504
21
-3.79116
0
LINE
8
BLACK
6
CONTINUOUS
10
4.72504
20
-3.79116
11
4.72542
21
-3.79123
0
LINE
8
BLACK
6
CONTINUOUS
10
4.72542
20
-3.79123
11
4.72601
21
-3.79172
0
LINE
8
BLACK
6
CONTINUOUS
10
4.72601
20
-3.79172
11
4.72667
21
-3.7921
0
LINE
8
BLACK
6
CONTINUOUS
10
4.72667
20
-3.7921
11
4.72676
21
-3.79235
0
LINE
8
BLACK
6
CONTINUOUS
10
4.72676
20
-3.79235
11
4.72697
21
-3.79252
0
LINE
8
BLACK
6
CONTINUOUS
10
4.72697
20
-3.79252
11
4.7271
21
-3.79328
0
LINE
8
BLACK
6
CONTINUOUS
10
4.7271
20
-3.79328
11
4.72736
21
-3.794
0
LINE
8
BLACK
6
CONTINUOUS
10
4.72736
20
-3.794
11
4.72736
21
-6.726
0
LINE
8
BLACK
6
CONTINUOUS
10
4.72736
20
-6.726
11
4.72729
21
-6.72638
0
LINE
8
BLACK
6
CONTINUOUS
10
4.72729
20
-6.72638
11
4.72732
21
-6.72651
0
LINE
8
BLACK
6
CONTINUOUS
10
4.72732
20
-6.72651
11
4.72725
21
-6.72663
0
LINE
8
BLACK
6
CONTINUOUS
10
4.72725
20
-6.72663
11
4.72718
21
-6.72701
0
LINE
8
BLACK
6
CONTINUOUS
10
4.72718
20
-6.72701
11
4.72669
21
-6.7276
0
LINE
8
BLACK
6
CONTINUOUS
10
4.72669
20
-6.7276
11
4.72631
21
-6.72826
0
LINE
8
BLACK
6
CONTINUOUS
10
4.72631
20
-6.72826
11
4.72606
21
-6.72835
0
LINE
8
BLACK
6
CONTINUOUS
10
4.72606
20
-6.72835
11
4.72589
21
-6.72856
0
LINE
8
BLACK
6
CONTINUOUS
10
4.72589
20
-6.72856
11
4.72513
21
-6.72869
0
LINE
8
BLACK
6
CONTINUOUS
10
4.72513
20
-6.72869
11
4.72441
21
-6.72895
0
LINE
8
BLACK
6
CONTINUOUS
10
4.72441
20
-6.72895
11
2.30315
21
-6.72895
0
LINE
8
BLACK
6
CONTINUOUS
10
2.30315
20
-6.72895
11
2.30277
21
-6.72889
0
LINE
8
BLACK
6
CONTINUOUS
10
2.30277
20
-6.72889
11
2.30264
21
-6.72891
0
LINE
8
BLACK
6
CONTINUOUS
10
2.30264
20
-6.72891
11
2.30252
21
-6.72884
0
LINE
8
BLACK
6
CONTINUOUS
10
2.30252
20
-6.72884
11
2.30214
21
-6.72877
0
LINE
8
BLACK
6
CONTINUOUS
10
2.30214
20
-6.72877
11
2.30155
21
-6.72828
0
LINE
8
BLACK
6
CONTINUOUS
10
2.30155
20
-6.72828
11
2.30089
21
-6.7279
0
LINE
8
BLACK
6
CONTINUOUS
10
2.30089
20
-6.7279
11
2.3008
21
-6.72765
0
LINE
8
BLACK
6
CONTINUOUS
10
2.3008
20
-6.72765
11
2.30059
21
-6.72748
0
LINE
8
BLACK
6
CONTINUOUS
10
2.30059
20
-6.72748
11
2.30046
21
-6.72672
0
LINE
8
BLACK
6
CONTINUOUS
10
2.30046
20
-6.72672
11
2.3002
21
-6.726
0
LINE
8
BLACK
6
CONTINUOUS
10
2.3002
20
-6.726
11
2.3002
21
-3.794
0
LINE
8
BLACK
6
CONTINUOUS
10
2.3002
20
-3.794
11
2.30026
21
-3.79362
0
LINE
8
BLACK
6
CONTINUOUS
10
2.30026
20
-3.79362
11
2.30024
21
-3.79349
0
LINE
8
BLACK
6
CONTINUOUS
10
2.30024
20
-3.79349
11
2.30031
21
-3.79337
0
LINE
8
BLACK
6
CONTINUOUS
10
2.30031
20
-3.79337
11
2.30037
21
-3.79299
0
LINE
8
BLACK
6
CONTINUOUS
10
2.30037
20
-3.79299
11
2.30087
21
-3.7924
0
LINE
8
BLACK
6
CONTINUOUS
10
2.30087
20
-3.7924
11
2.30125
21
-3.79174
0
LINE
8
BLACK
6
CONTINUOUS
10
2.30125
20
-3.79174
11
2.3015
21
-3.79165
0
LINE
8
BLACK
6
CONTINUOUS
10
2.3015
20
-3.79165
11
2.30167
21
-3.79144
0
LINE
8
BLACK
6
CONTINUOUS
10
2.30167
20
-3.79144
11
2.30243
21
-3.79131
0
LINE
8
BLACK
6
CONTINUOUS
10
2.30243
20
-3.79131
11
2.30315
21
-3.79105
0
LINE
8
BLACK
6
CONTINUOUS
10
2.30315
20
-3.79105
11
4.72441
21
-3.79105
0
LINE
8
BLACK
6
CONTINUOUS
10
4.72441
20
-3.79105
11
4.72479
21
-3.79111
0
LINE
8
BLACK
6
CONTINUOUS
10
2.3061
20
-3.79695
11
2.3061
21
-6.72305
0
LINE
8
BLACK
6
CONTINUOUS
10
2.3061
20
-6.72305
11
4.72146
21
-6.72305
0
LINE
8
BLACK
6
CONTINUOUS
10
4.72146
20
-6.72305
11
4.72146
21
-3.79695
0
LINE
8
BLACK
6
CONTINUOUS
10
4.72146
20
-3.79695
11
2.3061
21
-3.79695
  0
ENDSEC
  0
EOF
